{"glyphs":{"0":{"ha":625,"x_min":188,"x_max":717,"o":"m 394 21 q 363 29 385 21 q 317 50 342 38 q 279 75 293 63 q 222 151 243 107 q 194 245 201 196 q 194 339 188 294 q 260 515 210 428 q 378 660 311 603 q 446 710 414 692 q 519 739 478 729 q 556 744 535 743 q 588 744 578 744 q 645 733 615 744 q 696 706 675 722 q 717 676 717 690 q 715 660 717 667 q 703 660 714 654 l 689 660 l 703 618 q 713 588 708 607 q 717 554 717 569 q 713 515 717 542 q 703 457 710 488 q 689 400 696 426 q 676 361 682 374 q 672 345 672 353 q 671 332 671 338 q 653 294 665 322 q 636 256 642 267 q 627 246 631 250 q 629 236 624 242 q 622 217 629 232 q 608 190 615 203 q 596 178 600 178 q 592 177 596 178 q 589 172 589 176 q 571 144 589 167 q 528 96 553 121 q 488 64 514 82 q 435 33 461 46 q 394 21 410 21 m 392 124 q 421 128 407 124 q 444 143 435 133 q 499 194 469 160 q 544 265 529 229 q 569 309 560 286 q 597 388 578 332 q 613 425 608 403 q 617 463 617 447 q 617 504 617 478 q 624 549 618 531 q 622 594 624 585 q 611 615 621 604 q 597 624 606 619 q 578 628 588 628 q 545 619 568 628 q 511 604 522 611 q 490 603 501 599 q 478 614 478 607 q 455 615 478 633 q 401 560 432 597 q 359 509 376 535 q 342 478 342 483 q 338 464 342 472 q 329 444 333 456 q 313 413 322 435 q 294 369 303 390 q 282 336 285 347 q 282 306 282 331 q 282 261 282 282 q 283 223 282 238 q 289 198 285 208 q 300 174 293 188 q 317 151 306 164 q 333 132 329 138 q 357 118 349 118 q 392 124 365 118 z "},"1":{"ha":625,"x_min":228,"x_max":714,"o":"m 465 -18 q 451 -19 461 -21 q 430 -10 442 -17 q 408 4 418 -4 q 400 17 403 10 q 401 44 397 25 q 413 107 404 64 q 425 163 418 135 q 438 212 432 192 q 444 232 444 232 q 465 274 451 235 q 494 368 478 313 q 514 433 500 388 q 542 522 528 479 q 563 592 554 563 q 572 621 572 621 q 553 610 572 621 q 506 581 535 599 q 447 540 476 563 q 392 501 424 526 q 335 461 360 476 q 288 427 297 432 q 265 429 278 422 q 238 465 247 444 q 236 500 228 486 q 254 512 239 501 q 288 535 269 522 q 324 560 307 549 q 347 576 340 572 q 363 586 351 576 q 386 604 374 596 q 435 642 393 613 q 525 707 476 671 q 613 758 576 739 q 656 776 650 778 q 672 769 660 776 q 694 753 683 763 q 706 735 704 743 q 697 690 714 725 q 679 645 692 678 q 652 570 667 613 q 624 487 638 528 q 603 417 611 446 q 583 350 592 374 q 566 305 574 326 q 549 246 558 283 q 528 190 539 224 q 510 123 518 156 q 497 69 501 90 q 479 13 486 39 q 465 -18 472 -12 z "},"2":{"ha":625,"x_min":164,"x_max":724,"o":"m 222 25 q 206 37 217 28 q 183 58 194 46 q 168 79 172 71 q 169 104 164 86 q 179 122 174 122 q 192 132 183 119 q 209 159 200 144 q 218 176 218 174 q 226 185 219 182 q 238 193 232 189 q 256 216 244 204 q 275 236 268 228 q 315 278 286 250 q 372 335 344 306 q 424 391 401 367 q 447 425 446 415 q 452 430 447 425 q 464 439 457 435 q 483 453 471 443 q 503 471 494 463 q 518 500 506 482 q 544 532 531 518 q 565 569 556 549 q 578 599 575 589 q 576 617 582 614 q 540 631 571 621 q 471 638 507 642 q 386 600 435 635 q 351 589 367 596 q 324 583 335 582 q 311 596 318 586 q 296 614 304 606 l 282 653 l 325 676 q 431 728 382 713 q 518 732 479 744 q 546 728 533 732 q 558 725 558 725 q 588 713 569 726 q 624 681 606 700 q 650 642 642 661 q 665 568 672 608 q 624 476 658 528 q 593 442 617 468 q 540 383 569 415 q 485 325 510 350 q 454 293 461 300 q 422 265 444 289 q 373 214 399 242 q 330 165 347 186 q 315 143 313 143 q 323 140 314 138 q 344 147 332 143 q 397 161 365 154 q 463 172 429 168 q 522 178 497 176 q 551 175 547 179 q 556 170 554 168 q 558 172 558 172 q 594 178 561 182 q 653 165 626 174 q 677 157 668 161 q 686 147 686 153 q 690 141 686 147 q 701 125 693 135 q 706 97 724 107 q 632 96 688 86 q 572 92 596 96 q 549 89 567 89 q 514 88 531 89 q 464 85 489 90 q 404 69 439 81 q 365 57 392 65 q 308 40 339 49 q 253 28 278 32 q 222 25 229 24 z "},"3":{"ha":625,"x_min":199,"x_max":713,"o":"m 338 15 q 270 25 303 15 q 218 49 238 35 q 200 81 199 64 q 212 108 201 103 q 253 110 222 114 q 352 107 300 100 q 450 133 404 114 q 522 178 496 151 q 558 247 560 214 q 515 306 556 279 q 467 329 497 318 q 408 347 438 340 q 360 351 379 353 q 336 353 347 350 q 307 365 325 356 q 292 390 299 375 q 282 411 285 406 q 290 426 281 418 q 331 453 300 435 q 426 506 363 471 q 518 557 485 538 q 570 588 551 576 q 601 611 589 600 q 624 650 624 640 q 588 667 624 660 q 524 669 553 669 q 496 664 496 669 q 495 664 496 664 q 490 664 494 664 q 460 663 483 667 q 415 653 436 658 q 392 643 393 647 q 375 634 390 640 q 344 624 360 628 q 324 619 328 619 q 308 636 317 622 q 293 665 299 650 q 290 686 288 679 q 309 702 293 692 q 345 724 325 713 q 381 742 365 735 q 436 751 400 747 q 509 756 472 754 q 563 756 546 757 q 663 723 626 749 q 708 649 699 697 q 710 614 713 629 q 696 583 708 599 q 656 542 683 567 q 600 505 621 519 q 539 469 579 490 q 511 452 529 463 q 478 433 493 442 q 463 422 463 425 q 471 419 463 422 q 490 412 479 417 q 507 400 500 407 q 581 354 547 386 q 629 303 615 322 q 641 216 649 260 q 605 133 633 172 q 528 65 576 94 q 435 31 489 43 q 338 15 382 18 z "},"4":{"ha":625,"x_min":240,"x_max":749,"o":"m 447 1 q 431 27 439 10 q 432 92 424 44 q 449 174 438 131 q 467 247 460 218 q 484 294 478 274 q 490 315 490 314 q 473 314 489 315 q 433 303 457 313 q 327 292 364 288 q 267 336 290 297 q 251 362 260 343 q 242 401 243 381 q 251 432 240 421 q 270 472 261 456 q 284 501 279 489 q 289 517 289 513 q 293 526 290 521 q 297 536 296 531 q 328 585 306 551 q 376 658 350 619 q 426 727 403 696 q 460 767 449 758 q 485 777 469 772 q 507 779 501 782 q 520 760 514 774 q 530 733 526 746 q 531 719 533 721 q 528 718 531 719 q 524 710 525 717 q 509 688 522 704 q 479 650 496 671 q 440 598 460 626 q 403 540 421 569 q 369 483 385 510 q 344 438 354 457 q 335 394 335 403 q 343 381 335 385 q 378 381 356 379 q 438 393 401 383 q 479 403 460 399 q 508 411 499 407 q 528 417 519 413 q 539 426 538 421 q 553 455 544 435 q 572 499 563 475 q 598 552 583 521 q 626 608 613 583 q 675 706 661 681 q 694 732 689 732 q 710 725 699 732 q 731 706 722 718 q 744 688 740 696 q 742 665 749 679 q 734 635 740 649 q 717 603 728 621 q 690 551 707 585 q 651 472 672 515 q 611 383 631 428 q 576 297 592 338 q 550 231 560 257 q 517 132 526 165 q 506 82 507 99 q 513 53 506 65 q 501 13 514 31 q 472 -8 488 -4 q 447 1 456 -12 z "},"5":{"ha":618,"x_min":181,"x_max":688,"o":"m 233 29 q 208 60 208 47 q 196 68 203 68 q 188 78 192 67 q 183 105 185 90 q 182 125 181 119 q 201 140 188 136 q 226 140 214 143 q 239 125 238 136 q 260 107 242 114 q 310 101 279 100 q 388 119 349 103 q 461 160 428 135 q 517 214 494 185 q 535 265 526 233 q 546 322 543 297 q 542 347 549 347 q 540 357 542 347 q 533 378 538 367 q 501 420 526 399 q 453 451 476 442 q 416 455 443 454 q 368 453 389 456 q 333 453 346 451 q 319 454 319 454 q 299 467 313 456 q 273 490 285 478 q 261 508 261 501 q 276 540 264 518 q 304 590 288 563 q 340 642 321 617 q 375 683 358 667 q 472 752 417 729 q 583 772 526 775 q 642 765 624 771 q 676 736 660 758 q 686 700 688 717 q 674 676 685 683 q 647 676 664 668 q 594 686 628 689 q 522 672 560 683 q 465 642 493 661 q 431 608 438 624 q 423 600 425 604 q 415 597 421 596 q 411 592 415 597 q 407 582 407 588 q 398 570 400 574 q 390 572 396 567 q 390 568 390 572 q 389 558 390 564 q 392 543 388 549 q 424 535 397 538 q 476 524 458 529 q 529 499 494 519 q 590 438 568 476 q 619 351 613 399 q 619 256 626 303 q 611 208 615 225 q 588 163 607 192 q 508 84 556 118 q 409 31 461 50 q 310 10 357 13 q 233 29 264 8 z "},"6":{"ha":635,"x_min":169,"x_max":683,"o":"m 372 36 q 292 27 326 24 q 229 58 258 31 q 197 92 210 74 q 179 138 183 110 q 171 171 172 158 q 173 201 169 183 q 183 257 176 219 q 203 335 194 307 q 236 399 211 364 q 262 458 247 428 q 283 496 276 488 q 304 525 290 506 q 333 561 318 544 q 359 595 347 579 q 371 611 371 611 q 384 619 378 615 q 397 633 390 624 q 430 663 408 646 q 479 697 451 681 q 534 726 507 714 q 583 740 561 738 q 625 739 628 756 q 633 731 625 739 q 651 721 640 724 q 660 712 657 719 q 668 697 664 704 q 664 674 671 686 q 638 644 657 663 q 610 629 618 631 q 597 633 603 628 q 592 641 599 639 q 585 643 585 643 q 551 633 576 646 q 495 599 525 621 q 444 556 465 578 q 422 533 432 544 q 410 517 413 522 q 378 481 392 499 q 364 464 364 464 q 384 460 368 456 q 401 469 400 464 q 433 484 401 475 q 496 496 464 493 q 530 497 508 501 q 565 490 551 493 q 607 479 596 485 q 635 453 618 474 q 673 399 663 426 q 682 336 683 372 q 678 297 682 314 q 658 263 674 281 q 629 219 647 244 q 594 174 611 194 q 564 144 576 153 q 553 138 558 142 q 549 135 549 135 q 528 113 547 126 q 481 84 510 100 q 424 55 453 68 q 372 36 394 42 m 282 117 q 319 113 306 113 q 365 126 332 113 q 385 132 376 129 q 400 133 394 135 q 419 146 400 133 q 463 174 438 158 q 571 273 533 218 q 601 364 608 328 q 598 384 603 374 q 594 399 593 394 q 581 401 590 399 q 557 407 572 404 q 527 410 542 411 q 483 403 513 410 q 392 383 453 397 q 370 375 382 381 q 347 367 358 369 q 331 356 342 363 q 311 347 319 350 q 285 322 296 346 q 260 232 274 299 q 249 170 250 186 q 254 144 247 154 q 265 124 257 128 q 282 117 272 119 z "},"7":{"ha":624,"x_min":253,"x_max":710,"o":"m 314 -29 q 282 -9 297 -26 q 258 28 267 8 q 281 120 253 54 q 356 275 308 186 q 385 333 386 325 q 358 342 383 342 q 327 349 346 344 q 304 358 308 353 q 278 383 282 369 q 288 397 275 396 q 294 408 296 401 q 293 421 292 415 q 304 420 299 421 q 318 417 310 419 q 349 417 338 417 q 376 417 361 417 q 394 417 383 417 q 413 415 404 417 q 439 419 432 413 q 465 450 446 425 q 499 499 476 469 q 539 563 521 528 q 606 678 599 649 q 576 704 613 707 q 527 694 554 703 q 447 667 500 686 q 380 642 400 647 q 344 646 360 638 q 331 658 336 647 q 326 681 326 668 q 326 704 325 694 q 383 738 329 719 q 508 774 438 756 q 573 781 540 779 q 631 778 606 782 q 661 763 656 774 q 665 759 661 763 q 669 761 668 756 q 678 751 675 760 q 689 728 681 742 q 706 693 703 704 q 706 661 710 682 q 692 631 701 646 q 676 611 682 615 q 666 599 669 606 q 663 592 663 592 q 654 581 661 586 q 640 568 647 576 q 634 556 639 563 q 628 544 629 549 q 617 528 626 543 q 594 492 607 513 q 569 455 581 472 q 553 431 557 438 q 533 404 533 413 q 551 388 533 396 q 590 365 575 378 q 611 332 606 351 q 603 299 613 303 q 581 288 596 289 q 563 293 567 288 q 544 309 558 301 q 515 321 529 317 q 497 325 501 325 q 486 315 492 322 q 474 299 481 307 q 448 255 464 285 q 416 196 432 225 q 392 153 400 167 q 384 139 390 146 q 375 122 378 132 q 365 94 369 113 q 361 60 361 75 q 365 44 361 46 q 381 42 376 47 q 389 26 386 38 q 383 3 396 17 q 349 -22 369 -11 q 314 -29 329 -32 z "},"8":{"ha":625,"x_min":164,"x_max":746,"o":"m 247 -51 q 226 -42 238 -50 q 202 -25 214 -35 q 182 -8 190 -15 q 168 28 172 15 q 168 69 164 40 q 172 108 168 86 q 185 144 175 131 q 216 210 194 172 q 263 285 238 247 q 312 353 289 322 q 346 399 335 385 q 360 431 361 418 q 332 482 360 444 q 319 505 326 497 q 318 513 313 513 q 315 517 318 513 q 307 532 311 522 q 287 592 286 551 q 307 671 288 632 q 360 750 329 721 q 432 785 390 779 q 484 776 447 783 q 560 761 521 769 q 624 742 600 753 q 664 719 640 735 q 706 687 688 703 q 725 663 724 671 q 730 653 725 658 q 736 642 735 649 q 745 603 744 626 q 742 559 746 581 q 729 525 738 538 q 681 481 694 486 q 665 467 674 475 q 644 456 656 458 q 631 439 638 446 q 619 432 625 432 q 608 437 614 436 q 603 432 603 438 q 584 419 603 429 q 546 403 565 410 q 521 399 526 396 q 517 399 521 399 q 504 393 513 399 q 525 349 486 396 q 573 234 557 289 q 568 150 589 179 q 511 52 542 90 q 463 15 481 14 q 456 11 463 15 q 443 3 450 7 q 431 -10 440 -7 q 415 -12 422 -14 q 372 -26 403 -7 q 328 -46 354 -39 q 280 -54 303 -53 q 247 -51 257 -56 m 272 31 q 310 39 286 29 q 363 64 335 49 q 411 93 390 79 q 479 172 461 133 q 481 250 497 210 q 463 286 472 267 q 446 317 453 306 q 431 335 438 329 q 418 344 425 340 q 409 336 418 344 q 393 313 400 328 q 371 283 378 293 q 358 263 364 272 q 340 244 349 253 q 328 232 332 236 q 319 208 328 228 q 300 168 311 188 q 262 74 269 115 q 272 31 254 33 m 488 488 q 537 517 517 514 q 565 506 557 521 q 596 517 568 500 q 646 557 624 533 q 654 578 654 572 q 651 606 654 583 q 649 628 653 619 q 633 646 646 638 q 592 665 621 654 q 453 685 506 696 q 382 614 401 674 q 374 568 374 588 q 385 525 374 549 q 401 510 397 519 q 406 501 406 501 q 417 489 406 489 q 436 474 419 482 q 488 488 453 465 z "},"9":{"ha":619,"x_min":281,"x_max":726,"o":"m 435 -44 q 417 -37 428 -43 q 400 -23 407 -31 q 393 -12 393 -15 q 388 -6 394 -6 q 385 3 388 -6 q 383 22 382 13 q 385 43 383 26 q 386 69 386 60 q 400 143 389 97 q 426 240 411 189 q 456 331 442 290 q 473 392 475 381 q 438 400 471 403 q 358 413 394 393 q 301 468 322 432 q 283 544 281 504 q 292 583 285 565 q 318 631 300 600 q 384 709 347 674 q 461 769 421 744 q 538 800 501 793 q 590 803 560 804 q 638 794 621 801 q 679 762 658 786 q 713 710 700 738 q 722 667 726 683 q 700 597 713 621 q 669 554 688 574 q 617 483 647 535 q 558 366 588 432 q 506 236 528 300 q 481 131 486 178 q 486 82 476 83 q 503 78 492 82 q 519 74 514 74 q 524 61 524 68 q 517 39 524 54 q 501 15 513 29 q 476 -13 490 0 q 451 -35 463 -26 q 435 -44 440 -44 m 379 499 q 434 483 400 476 q 505 519 468 490 q 571 594 542 549 q 597 629 588 614 q 613 649 607 644 q 634 680 631 668 q 628 701 638 692 q 602 718 618 717 q 553 707 586 719 q 515 694 531 703 q 469 665 499 685 q 458 659 464 660 q 447 660 453 658 q 444 659 447 660 q 442 653 442 658 q 425 621 449 640 q 377 548 389 582 q 379 499 365 514 z "},"A":{"ha":701,"x_min":63,"x_max":763,"o":"m 92 -46 q 65 -15 67 -32 q 83 43 63 1 q 149 172 104 85 q 198 270 182 235 q 218 321 214 306 q 222 340 222 336 q 225 360 219 353 q 243 374 231 368 q 269 399 250 381 q 303 442 289 417 q 331 501 315 471 q 375 578 347 532 q 447 700 403 625 q 510 803 475 749 q 582 907 544 857 q 611 938 597 926 q 638 949 625 950 q 683 936 658 949 q 728 903 708 924 q 756 863 747 883 q 761 815 763 851 q 756 728 760 779 q 746 618 751 676 q 733 483 742 561 q 717 321 725 406 q 706 158 710 236 q 706 21 701 79 q 706 -3 707 8 q 704 -21 704 -14 q 674 -28 696 -29 q 633 -19 653 -28 q 610 1 613 -11 q 604 12 606 6 q 604 42 603 18 q 608 125 606 67 l 615 346 l 597 344 q 551 342 585 344 q 477 334 517 339 q 404 324 438 329 q 358 315 371 319 q 328 299 346 315 q 296 256 311 282 q 276 215 290 236 q 261 186 261 193 q 245 169 251 179 q 239 160 239 160 q 226 119 239 151 q 194 47 213 86 q 156 -22 175 7 l 124 -69 l 92 -46 m 394 411 q 409 414 394 411 q 444 420 424 417 q 482 424 465 424 q 556 441 532 436 q 592 446 581 446 q 613 442 604 446 q 623 433 618 435 q 628 432 628 432 q 633 463 629 435 q 641 533 636 492 q 651 620 646 575 q 659 703 656 665 q 664 763 663 742 q 665 810 665 789 q 665 832 665 832 q 631 802 657 832 q 574 722 606 772 q 513 615 542 672 q 486 570 499 589 q 467 551 474 551 q 451 528 464 549 q 424 481 439 507 q 400 435 410 456 q 394 411 390 414 z "},"Á":{"ha":697,"x_min":61,"x_max":854,"o":"m 90 -46 q 63 -15 65 -32 q 82 43 61 1 q 147 172 103 85 q 197 270 181 235 q 217 321 213 306 q 221 340 221 336 q 224 360 218 353 q 242 374 229 368 q 268 399 249 381 q 301 442 288 417 q 330 501 314 471 q 374 578 346 532 q 446 700 401 625 q 508 803 474 749 q 581 907 543 857 q 610 938 596 926 q 636 949 624 950 q 682 936 657 949 q 726 903 707 924 q 754 863 746 883 q 760 815 761 851 q 754 728 758 779 q 744 618 750 676 q 732 483 740 561 q 716 321 724 406 q 704 158 708 236 q 704 21 700 79 q 704 -3 706 8 q 703 -21 703 -14 q 673 -28 694 -29 q 631 -19 651 -28 q 608 1 611 -11 q 603 12 604 6 q 603 42 601 18 q 607 125 604 67 l 614 346 l 596 344 q 549 342 583 344 q 476 334 515 339 q 403 324 436 329 q 357 315 369 319 q 327 299 344 315 q 294 256 310 282 q 274 215 289 236 q 260 186 260 193 q 244 169 250 179 q 238 160 238 160 q 224 119 238 151 q 192 47 211 86 q 154 -22 174 7 l 122 -69 l 90 -46 m 393 411 q 408 414 393 411 q 443 420 422 417 q 481 424 464 424 q 555 441 531 436 q 591 446 579 446 q 611 442 603 446 q 622 433 617 435 q 626 432 626 432 q 631 463 628 435 q 640 533 635 492 q 649 620 644 575 q 658 703 654 665 q 663 763 661 742 q 664 810 664 789 q 664 832 664 832 q 630 802 656 832 q 572 722 604 772 q 511 615 540 672 q 485 570 497 589 q 465 551 472 551 q 450 528 463 549 q 423 481 438 507 q 399 435 408 456 q 393 411 389 414 m 669 992 q 655 1019 660 1001 q 651 1053 650 1038 q 670 1081 653 1060 q 711 1126 688 1101 q 758 1172 735 1151 q 792 1196 781 1192 q 824 1190 808 1206 q 850 1149 840 1174 q 839 1119 854 1136 q 800 1082 824 1101 q 754 1044 776 1063 q 721 1010 732 1025 q 697 984 707 988 q 669 992 686 981 z "},"Ă":{"ha":697,"x_min":61,"x_max":908,"o":"m 90 -46 q 63 -15 65 -32 q 82 43 61 1 q 147 172 103 85 q 197 270 181 235 q 217 321 213 306 q 221 340 221 336 q 224 360 218 353 q 242 374 229 368 q 268 399 249 381 q 301 442 288 417 q 330 501 314 471 q 374 578 346 532 q 446 700 401 625 q 508 803 474 749 q 581 907 543 857 q 610 938 596 926 q 636 949 624 950 q 682 936 657 949 q 726 903 707 924 q 754 863 746 883 q 760 815 761 851 q 754 728 758 779 q 744 618 750 676 q 732 483 740 561 q 716 321 724 406 q 704 158 708 236 q 704 21 700 79 q 704 -3 706 8 q 703 -21 703 -14 q 673 -28 694 -29 q 631 -19 651 -28 q 608 1 611 -11 q 603 12 604 6 q 603 42 601 18 q 607 125 604 67 l 614 346 l 596 344 q 549 342 583 344 q 476 334 515 339 q 403 324 436 329 q 357 315 369 319 q 327 299 344 315 q 294 256 310 282 q 274 215 289 236 q 260 186 260 193 q 244 169 250 179 q 238 160 238 160 q 224 119 238 151 q 192 47 211 86 q 154 -22 174 7 l 122 -69 l 90 -46 m 393 411 q 408 414 393 411 q 443 420 422 417 q 481 424 464 424 q 555 441 531 436 q 591 446 579 446 q 611 442 603 446 q 622 433 617 435 q 626 432 626 432 q 631 463 628 435 q 640 533 635 492 q 649 620 644 575 q 658 703 654 665 q 663 763 661 742 q 664 810 664 789 q 664 832 664 832 q 630 802 656 832 q 572 722 604 772 q 511 615 540 672 q 485 570 497 589 q 465 551 472 551 q 450 528 463 549 q 423 481 438 507 q 399 435 408 456 q 393 411 389 414 m 717 974 q 640 997 672 978 q 593 1049 607 1015 q 588 1128 579 1082 q 608 1171 593 1157 q 637 1185 622 1185 q 660 1172 651 1185 q 663 1136 669 1160 q 660 1099 658 1121 q 679 1061 663 1076 q 738 1047 696 1046 q 774 1063 756 1049 q 808 1099 793 1078 q 832 1133 824 1119 q 865 1172 850 1164 q 890 1171 879 1179 q 904 1147 900 1163 q 906 1119 908 1132 q 885 1076 900 1101 q 844 1026 869 1050 q 787 986 819 1001 q 717 974 754 971 z "},"Â":{"ha":697,"x_min":61,"x_max":850,"o":"m 90 -46 q 63 -15 65 -32 q 82 43 61 1 q 147 172 103 85 q 197 270 181 235 q 217 321 213 306 q 221 340 221 336 q 224 360 218 353 q 242 374 229 368 q 268 399 249 381 q 301 442 288 417 q 330 501 314 471 q 374 578 346 532 q 446 700 401 625 q 508 803 474 749 q 581 907 543 857 q 610 938 596 926 q 636 949 624 950 q 682 936 657 949 q 726 903 707 924 q 754 863 746 883 q 760 815 761 851 q 754 728 758 779 q 744 618 750 676 q 732 483 740 561 q 716 321 724 406 q 704 158 708 236 q 704 21 700 79 q 704 -3 706 8 q 703 -21 703 -14 q 673 -28 694 -29 q 631 -19 651 -28 q 608 1 611 -11 q 603 12 604 6 q 603 42 601 18 q 607 125 604 67 l 614 346 l 596 344 q 549 342 583 344 q 476 334 515 339 q 403 324 436 329 q 357 315 369 319 q 327 299 344 315 q 294 256 310 282 q 274 215 289 236 q 260 186 260 193 q 244 169 250 179 q 238 160 238 160 q 224 119 238 151 q 192 47 211 86 q 154 -22 174 7 l 122 -69 l 90 -46 m 393 411 q 408 414 393 411 q 443 420 422 417 q 481 424 464 424 q 555 441 531 436 q 591 446 579 446 q 611 442 603 446 q 622 433 617 435 q 626 432 626 432 q 631 463 628 435 q 640 533 635 492 q 649 620 644 575 q 658 703 654 665 q 663 763 661 742 q 664 810 664 789 q 664 832 664 832 q 630 802 656 832 q 572 722 604 772 q 511 615 540 672 q 485 570 497 589 q 465 551 472 551 q 450 528 463 549 q 423 481 438 507 q 399 435 408 456 q 393 411 389 414 m 597 1013 q 556 994 574 989 q 534 1018 539 999 q 543 1057 529 1038 q 563 1077 547 1063 q 601 1110 579 1092 q 644 1145 622 1129 q 679 1169 665 1161 q 707 1181 693 1182 q 729 1167 721 1179 q 770 1128 746 1153 q 815 1083 794 1104 q 842 1054 836 1061 q 848 1026 850 1042 q 835 999 846 1010 q 810 992 825 989 q 775 1018 794 996 q 744 1051 765 1029 q 701 1090 722 1072 q 664 1065 685 1081 q 625 1035 643 1050 q 597 1013 607 1021 z "},"Ȁ":{"ha":697,"x_min":61,"x_max":801,"o":"m 90 -46 q 63 -15 65 -32 q 82 43 61 1 q 147 172 103 85 q 197 270 181 235 q 217 321 213 306 q 221 340 221 336 q 224 360 218 353 q 242 374 229 368 q 268 399 249 381 q 301 442 288 417 q 330 501 314 471 q 374 578 346 532 q 446 700 401 625 q 508 803 474 749 q 581 907 543 857 q 610 938 596 926 q 636 949 624 950 q 682 936 657 949 q 726 903 707 924 q 754 863 746 883 q 760 815 761 851 q 754 728 758 779 q 744 618 750 676 q 732 483 740 561 q 716 321 724 406 q 704 158 708 236 q 704 21 700 79 q 704 -3 706 8 q 703 -21 703 -14 q 673 -28 694 -29 q 631 -19 651 -28 q 608 1 611 -11 q 603 12 604 6 q 603 42 601 18 q 607 125 604 67 l 614 346 l 596 344 q 549 342 583 344 q 476 334 515 339 q 403 324 436 329 q 357 315 369 319 q 327 299 344 315 q 294 256 310 282 q 274 215 289 236 q 260 186 260 193 q 244 169 250 179 q 238 160 238 160 q 224 119 238 151 q 192 47 211 86 q 154 -22 174 7 l 122 -69 l 90 -46 m 393 411 q 408 414 393 411 q 443 420 422 417 q 481 424 464 424 q 555 441 531 436 q 591 446 579 446 q 611 442 603 446 q 622 433 617 435 q 626 432 626 432 q 631 463 628 435 q 640 533 635 492 q 649 620 644 575 q 658 703 654 665 q 663 763 661 742 q 664 810 664 789 q 664 832 664 832 q 630 802 656 832 q 572 722 604 772 q 511 615 540 672 q 485 570 497 589 q 465 551 472 551 q 450 528 463 549 q 423 481 438 507 q 399 435 408 456 q 393 411 389 414 m 597 992 q 576 991 583 985 q 561 1024 569 997 q 538 1062 554 1040 q 507 1106 522 1083 q 484 1147 492 1129 q 483 1175 476 1165 q 515 1203 499 1194 q 543 1204 532 1213 q 569 1174 554 1197 q 599 1122 585 1150 q 624 1071 614 1093 q 635 1044 635 1049 q 629 1028 636 1039 q 614 1008 622 1018 q 597 992 606 997 m 764 993 q 742 991 749 986 q 728 1022 736 996 q 703 1063 718 1040 q 672 1107 688 1085 q 649 1147 657 1129 q 649 1174 642 1165 q 683 1204 668 1197 q 708 1204 699 1211 q 733 1176 718 1199 q 763 1126 747 1154 q 788 1076 778 1099 q 800 1043 799 1053 q 791 1022 801 1039 q 764 993 781 1004 z "},"Ä":{"ha":697,"x_min":61,"x_max":907,"o":"m 90 -46 q 63 -15 65 -32 q 82 43 61 1 q 147 172 103 85 q 197 270 181 235 q 217 321 213 306 q 221 340 221 336 q 224 360 218 353 q 242 374 229 368 q 268 399 249 381 q 301 442 288 417 q 330 501 314 471 q 374 578 346 532 q 446 700 401 625 q 508 803 474 749 q 581 907 543 857 q 610 938 596 926 q 636 949 624 950 q 682 936 657 949 q 726 903 707 924 q 754 863 746 883 q 760 815 761 851 q 754 728 758 779 q 744 618 750 676 q 732 483 740 561 q 716 321 724 406 q 704 158 708 236 q 704 21 700 79 q 704 -3 706 8 q 703 -21 703 -14 q 673 -28 694 -29 q 631 -19 651 -28 q 608 1 611 -11 q 603 12 604 6 q 603 42 601 18 q 607 125 604 67 l 614 346 l 596 344 q 549 342 583 344 q 476 334 515 339 q 403 324 436 329 q 357 315 369 319 q 327 299 344 315 q 294 256 310 282 q 274 215 289 236 q 260 186 260 193 q 244 169 250 179 q 238 160 238 160 q 224 119 238 151 q 192 47 211 86 q 154 -22 174 7 l 122 -69 l 90 -46 m 393 411 q 408 414 393 411 q 443 420 422 417 q 481 424 464 424 q 555 441 531 436 q 591 446 579 446 q 611 442 603 446 q 622 433 617 435 q 626 432 626 432 q 631 463 628 435 q 640 533 635 492 q 649 620 644 575 q 658 703 654 665 q 663 763 661 742 q 664 810 664 789 q 664 832 664 832 q 630 802 656 832 q 572 722 604 772 q 511 615 540 672 q 485 570 497 589 q 465 551 472 551 q 450 528 463 549 q 423 481 438 507 q 399 435 408 456 q 393 411 389 414 m 797 1040 q 781 1067 788 1050 q 776 1089 775 1083 q 787 1117 779 1096 q 803 1144 794 1138 q 817 1160 808 1150 q 831 1171 825 1169 q 865 1176 847 1185 q 890 1146 882 1168 q 901 1102 907 1122 q 874 1057 894 1082 q 831 1023 850 1024 q 797 1040 813 1022 m 611 1035 q 591 1064 599 1046 q 585 1089 583 1082 q 598 1122 588 1100 q 618 1153 608 1144 q 628 1163 622 1156 q 640 1171 635 1169 q 667 1177 654 1181 q 689 1163 679 1174 q 703 1138 699 1153 q 709 1101 714 1118 q 685 1060 704 1083 q 644 1025 663 1031 q 611 1035 626 1019 z "},"À":{"ha":697,"x_min":61,"x_max":804,"o":"m 90 -46 q 63 -15 65 -32 q 82 43 61 1 q 147 172 103 85 q 197 270 181 235 q 217 321 213 306 q 221 340 221 336 q 224 360 218 353 q 242 374 229 368 q 268 399 249 381 q 301 442 288 417 q 330 501 314 471 q 374 578 346 532 q 446 700 401 625 q 508 803 474 749 q 581 907 543 857 q 610 938 596 926 q 636 949 624 950 q 682 936 657 949 q 726 903 707 924 q 754 863 746 883 q 760 815 761 851 q 754 728 758 779 q 744 618 750 676 q 732 483 740 561 q 716 321 724 406 q 704 158 708 236 q 704 21 700 79 q 704 -3 706 8 q 703 -21 703 -14 q 673 -28 694 -29 q 631 -19 651 -28 q 608 1 611 -11 q 603 12 604 6 q 603 42 601 18 q 607 125 604 67 l 614 346 l 596 344 q 549 342 583 344 q 476 334 515 339 q 403 324 436 329 q 357 315 369 319 q 327 299 344 315 q 294 256 310 282 q 274 215 289 236 q 260 186 260 193 q 244 169 250 179 q 238 160 238 160 q 224 119 238 151 q 192 47 211 86 q 154 -22 174 7 l 122 -69 l 90 -46 m 393 411 q 408 414 393 411 q 443 420 422 417 q 481 424 464 424 q 555 441 531 436 q 591 446 579 446 q 611 442 603 446 q 622 433 617 435 q 626 432 626 432 q 631 463 628 435 q 640 533 635 492 q 649 620 644 575 q 658 703 654 665 q 663 763 661 742 q 664 810 664 789 q 664 832 664 832 q 630 802 656 832 q 572 722 604 772 q 511 615 540 672 q 485 570 497 589 q 465 551 472 551 q 450 528 463 549 q 423 481 438 507 q 399 435 408 456 q 393 411 389 414 m 763 985 q 744 980 750 976 q 735 995 739 983 q 724 1022 731 1007 q 691 1077 713 1046 q 658 1138 669 1108 q 658 1183 646 1167 q 694 1210 681 1204 q 722 1200 708 1215 q 745 1171 732 1194 q 772 1117 758 1147 q 794 1063 785 1088 q 803 1029 803 1038 q 791 1006 804 1024 q 763 985 778 989 z "},"Ȃ":{"ha":697,"x_min":61,"x_max":872,"o":"m 90 -46 q 63 -15 65 -32 q 82 43 61 1 q 147 172 103 85 q 197 270 181 235 q 217 321 213 306 q 221 340 221 336 q 224 360 218 353 q 242 374 229 368 q 268 399 249 381 q 301 442 288 417 q 330 501 314 471 q 374 578 346 532 q 446 700 401 625 q 508 803 474 749 q 581 907 543 857 q 610 938 596 926 q 636 949 624 950 q 682 936 657 949 q 726 903 707 924 q 754 863 746 883 q 760 815 761 851 q 754 728 758 779 q 744 618 750 676 q 732 483 740 561 q 716 321 724 406 q 704 158 708 236 q 704 21 700 79 q 704 -3 706 8 q 703 -21 703 -14 q 673 -28 694 -29 q 631 -19 651 -28 q 608 1 611 -11 q 603 12 604 6 q 603 42 601 18 q 607 125 604 67 l 614 346 l 596 344 q 549 342 583 344 q 476 334 515 339 q 403 324 436 329 q 357 315 369 319 q 327 299 344 315 q 294 256 310 282 q 274 215 289 236 q 260 186 260 193 q 244 169 250 179 q 238 160 238 160 q 224 119 238 151 q 192 47 211 86 q 154 -22 174 7 l 122 -69 l 90 -46 m 393 411 q 408 414 393 411 q 443 420 422 417 q 481 424 464 424 q 555 441 531 436 q 591 446 579 446 q 611 442 603 446 q 622 433 617 435 q 626 432 626 432 q 631 463 628 435 q 640 533 635 492 q 649 620 644 575 q 658 703 654 665 q 663 763 661 742 q 664 810 664 789 q 664 832 664 832 q 630 802 656 832 q 572 722 604 772 q 511 615 540 672 q 485 570 497 589 q 465 551 472 551 q 450 528 463 549 q 423 481 438 507 q 399 435 408 456 q 393 411 389 414 m 786 1018 q 790 1057 790 1035 q 774 1095 789 1079 q 718 1110 758 1111 q 680 1096 700 1111 q 642 1059 660 1081 q 611 1015 624 1038 q 575 981 592 982 q 550 999 558 981 q 543 1038 542 1017 q 567 1080 550 1054 q 609 1131 583 1106 q 667 1171 635 1156 q 733 1183 699 1186 q 815 1157 783 1179 q 860 1101 847 1135 q 864 1028 872 1068 q 834 977 856 989 q 797 976 813 965 q 786 1018 781 988 z "},"Ā":{"ha":697,"x_min":61,"x_max":914,"o":"m 90 -46 q 63 -15 65 -32 q 82 43 61 1 q 147 172 103 85 q 197 270 181 235 q 217 321 213 306 q 221 340 221 336 q 224 360 218 353 q 242 374 229 368 q 268 399 249 381 q 301 442 288 417 q 330 501 314 471 q 374 578 346 532 q 446 700 401 625 q 508 803 474 749 q 581 907 543 857 q 610 938 596 926 q 636 949 624 950 q 682 936 657 949 q 726 903 707 924 q 754 863 746 883 q 760 815 761 851 q 754 728 758 779 q 744 618 750 676 q 732 483 740 561 q 716 321 724 406 q 704 158 708 236 q 704 21 700 79 q 704 -3 706 8 q 703 -21 703 -14 q 673 -28 694 -29 q 631 -19 651 -28 q 608 1 611 -11 q 603 12 604 6 q 603 42 601 18 q 607 125 604 67 l 614 346 l 596 344 q 549 342 583 344 q 476 334 515 339 q 403 324 436 329 q 357 315 369 319 q 327 299 344 315 q 294 256 310 282 q 274 215 289 236 q 260 186 260 193 q 244 169 250 179 q 238 160 238 160 q 224 119 238 151 q 192 47 211 86 q 154 -22 174 7 l 122 -69 l 90 -46 m 393 411 q 408 414 393 411 q 443 420 422 417 q 481 424 464 424 q 555 441 531 436 q 591 446 579 446 q 611 442 603 446 q 622 433 617 435 q 626 432 626 432 q 631 463 628 435 q 640 533 635 492 q 649 620 644 575 q 658 703 654 665 q 663 763 661 742 q 664 810 664 789 q 664 832 664 832 q 630 802 656 832 q 572 722 604 772 q 511 615 540 672 q 485 570 497 589 q 465 551 472 551 q 450 528 463 549 q 423 481 438 507 q 399 435 408 456 q 393 411 389 414 m 635 1057 q 612 1058 625 1057 q 586 1064 599 1060 q 558 1068 565 1064 q 543 1085 550 1072 q 544 1114 531 1106 q 604 1128 557 1122 q 697 1140 650 1135 q 793 1144 743 1144 q 854 1140 828 1144 q 896 1124 881 1136 q 909 1085 914 1104 q 875 1068 904 1067 q 847 1067 867 1068 q 803 1065 826 1065 q 764 1064 781 1064 q 733 1061 754 1063 q 686 1058 713 1060 q 635 1057 660 1057 z "},"Ą":{"ha":697,"x_min":61,"x_max":761,"o":"m 90 -46 q 63 -15 65 -32 q 82 43 61 1 q 147 172 103 85 q 197 270 181 235 q 217 321 213 306 q 221 340 221 336 q 224 360 218 353 q 242 374 229 368 q 268 399 249 381 q 301 442 288 417 q 330 501 314 471 q 374 578 346 532 q 446 700 401 625 q 508 803 474 749 q 581 907 543 857 q 610 938 596 926 q 636 949 624 950 q 682 936 657 949 q 726 903 707 924 q 754 863 746 883 q 760 815 761 851 q 754 728 758 779 q 744 618 750 676 q 732 483 740 561 q 716 321 724 406 q 704 158 708 236 q 704 21 700 79 q 704 -3 706 8 q 703 -21 703 -14 q 673 -28 694 -29 q 631 -19 651 -28 q 608 1 611 -11 q 603 12 604 6 q 603 42 601 18 q 607 125 604 67 l 614 346 l 596 344 q 549 342 583 344 q 476 334 515 339 q 403 324 436 329 q 357 315 369 319 q 327 299 344 315 q 294 256 310 282 q 274 215 289 236 q 260 186 260 193 q 244 169 250 179 q 238 160 238 160 q 224 119 238 151 q 192 47 211 86 q 154 -22 174 7 l 122 -69 l 90 -46 m 393 411 q 408 414 393 411 q 443 420 422 417 q 481 424 464 424 q 555 441 531 436 q 591 446 579 446 q 611 442 603 446 q 622 433 617 435 q 626 432 626 432 q 631 463 628 435 q 640 533 635 492 q 649 620 644 575 q 658 703 654 665 q 663 763 661 742 q 664 810 664 789 q 664 832 664 832 q 630 802 656 832 q 572 722 604 772 q 511 615 540 672 q 485 570 497 589 q 465 551 472 551 q 450 528 463 549 q 423 481 438 507 q 399 435 408 456 q 393 411 389 414 m 539 -275 q 489 -245 511 -267 q 459 -193 467 -224 q 468 -132 451 -162 q 516 -67 485 -100 q 583 -6 547 -35 q 650 43 619 24 l 703 1 q 630 -52 672 -17 q 563 -118 588 -87 q 535 -160 543 -142 q 538 -194 528 -179 q 563 -203 542 -203 q 617 -183 594 -197 q 674 -153 639 -169 q 701 -149 692 -143 q 713 -168 711 -154 q 709 -196 715 -182 q 686 -217 703 -210 q 663 -227 681 -218 q 622 -246 644 -236 q 576 -264 599 -256 q 539 -275 554 -272 z "},"Å":{"ha":697,"x_min":61,"x_max":849,"o":"m 90 -46 q 63 -15 65 -32 q 82 43 61 1 q 147 172 103 85 q 197 270 181 235 q 217 321 213 306 q 221 340 221 336 q 224 360 218 353 q 242 374 229 368 q 268 399 249 381 q 301 442 288 417 q 330 501 314 471 q 374 578 346 532 q 446 700 401 625 q 508 803 474 749 q 581 907 543 857 q 610 938 596 926 q 636 949 624 950 q 682 936 657 949 q 726 903 707 924 q 754 863 746 883 q 760 815 761 851 q 754 728 758 779 q 744 618 750 676 q 732 483 740 561 q 716 321 724 406 q 704 158 708 236 q 704 21 700 79 q 704 -3 706 8 q 703 -21 703 -14 q 673 -28 694 -29 q 631 -19 651 -28 q 608 1 611 -11 q 603 12 604 6 q 603 42 601 18 q 607 125 604 67 l 614 346 l 596 344 q 549 342 583 344 q 476 334 515 339 q 403 324 436 329 q 357 315 369 319 q 327 299 344 315 q 294 256 310 282 q 274 215 289 236 q 260 186 260 193 q 244 169 250 179 q 238 160 238 160 q 224 119 238 151 q 192 47 211 86 q 154 -22 174 7 l 122 -69 l 90 -46 m 393 411 q 408 414 393 411 q 443 420 422 417 q 481 424 464 424 q 555 441 531 436 q 591 446 579 446 q 611 442 603 446 q 622 433 617 435 q 626 432 626 432 q 631 463 628 435 q 640 533 635 492 q 649 620 644 575 q 658 703 654 665 q 663 763 661 742 q 664 810 664 789 q 664 832 664 832 q 630 802 656 832 q 572 722 604 772 q 511 615 540 672 q 485 570 497 589 q 465 551 472 551 q 450 528 463 549 q 423 481 438 507 q 399 435 408 456 q 393 411 389 414 m 733 956 q 665 984 686 956 q 638 1056 644 1013 q 650 1120 638 1088 q 686 1174 663 1153 q 739 1196 710 1196 q 819 1174 789 1196 q 849 1111 849 1151 q 833 1036 847 1072 q 793 978 818 1000 q 733 956 768 956 m 731 1019 q 769 1036 756 1019 q 782 1081 783 1053 q 776 1115 782 1100 q 747 1131 769 1131 q 697 1065 697 1129 q 708 1035 697 1051 q 731 1019 719 1019 z "},"Ǻ":{"ha":697,"x_min":61,"x_max":964,"o":"m 90 -46 q 63 -15 65 -32 q 82 43 61 1 q 147 172 103 85 q 197 270 181 235 q 217 321 213 306 q 221 340 221 336 q 224 360 218 353 q 242 374 229 368 q 268 399 249 381 q 301 442 288 417 q 330 501 314 471 q 374 578 346 532 q 446 700 401 625 q 508 803 474 749 q 581 907 543 857 q 610 938 596 926 q 636 949 624 950 q 682 936 657 949 q 726 903 707 924 q 754 863 746 883 q 760 815 761 851 q 754 728 758 779 q 744 618 750 676 q 732 483 740 561 q 716 321 724 406 q 704 158 708 236 q 704 21 700 79 q 704 -3 706 8 q 703 -21 703 -14 q 673 -28 694 -29 q 631 -19 651 -28 q 608 1 611 -11 q 603 12 604 6 q 603 42 601 18 q 607 125 604 67 l 614 346 l 596 344 q 549 342 583 344 q 476 334 515 339 q 403 324 436 329 q 357 315 369 319 q 327 299 344 315 q 294 256 310 282 q 274 215 289 236 q 260 186 260 193 q 244 169 250 179 q 238 160 238 160 q 224 119 238 151 q 192 47 211 86 q 154 -22 174 7 l 122 -69 l 90 -46 m 393 411 q 408 414 393 411 q 443 420 422 417 q 481 424 464 424 q 555 441 531 436 q 591 446 579 446 q 611 442 603 446 q 622 433 617 435 q 626 432 626 432 q 631 463 628 435 q 640 533 635 492 q 649 620 644 575 q 658 703 654 665 q 663 763 661 742 q 664 810 664 789 q 664 832 664 832 q 630 802 656 832 q 572 722 604 772 q 511 615 540 672 q 485 570 497 589 q 465 551 472 551 q 450 528 463 549 q 423 481 438 507 q 399 435 408 456 q 393 411 389 414 m 733 956 q 665 984 686 956 q 638 1056 644 1013 q 650 1120 638 1088 q 686 1174 663 1153 q 739 1196 710 1196 q 819 1174 789 1196 q 849 1111 849 1151 q 833 1036 847 1072 q 793 978 818 1000 q 733 956 768 956 m 731 1019 q 769 1036 756 1019 q 782 1081 783 1053 q 776 1115 782 1100 q 747 1131 769 1131 q 697 1065 697 1129 q 708 1035 697 1051 q 731 1019 719 1019 m 779 1124 q 765 1151 769 1133 q 761 1185 760 1169 q 780 1213 763 1192 q 821 1258 797 1233 q 867 1303 844 1283 q 901 1328 890 1324 q 934 1322 918 1338 q 960 1281 950 1306 q 949 1251 964 1268 q 910 1214 933 1233 q 864 1176 886 1194 q 831 1142 842 1157 q 806 1116 817 1119 q 779 1124 796 1113 z "},"Ã":{"ha":697,"x_min":61,"x_max":940,"o":"m 90 -46 q 63 -15 65 -32 q 82 43 61 1 q 147 172 103 85 q 197 270 181 235 q 217 321 213 306 q 221 340 221 336 q 224 360 218 353 q 242 374 229 368 q 268 399 249 381 q 301 442 288 417 q 330 501 314 471 q 374 578 346 532 q 446 700 401 625 q 508 803 474 749 q 581 907 543 857 q 610 938 596 926 q 636 949 624 950 q 682 936 657 949 q 726 903 707 924 q 754 863 746 883 q 760 815 761 851 q 754 728 758 779 q 744 618 750 676 q 732 483 740 561 q 716 321 724 406 q 704 158 708 236 q 704 21 700 79 q 704 -3 706 8 q 703 -21 703 -14 q 673 -28 694 -29 q 631 -19 651 -28 q 608 1 611 -11 q 603 12 604 6 q 603 42 601 18 q 607 125 604 67 l 614 346 l 596 344 q 549 342 583 344 q 476 334 515 339 q 403 324 436 329 q 357 315 369 319 q 327 299 344 315 q 294 256 310 282 q 274 215 289 236 q 260 186 260 193 q 244 169 250 179 q 238 160 238 160 q 224 119 238 151 q 192 47 211 86 q 154 -22 174 7 l 122 -69 l 90 -46 m 393 411 q 408 414 393 411 q 443 420 422 417 q 481 424 464 424 q 555 441 531 436 q 591 446 579 446 q 611 442 603 446 q 622 433 617 435 q 626 432 626 432 q 631 463 628 435 q 640 533 635 492 q 649 620 644 575 q 658 703 654 665 q 663 763 661 742 q 664 810 664 789 q 664 832 664 832 q 630 802 656 832 q 572 722 604 772 q 511 615 540 672 q 485 570 497 589 q 465 551 472 551 q 450 528 463 549 q 423 481 438 507 q 399 435 408 456 q 393 411 389 414 m 793 1011 q 749 1022 768 1011 q 704 1051 731 1032 q 672 1078 692 1058 q 635 1099 651 1099 q 612 1088 621 1099 q 594 1065 603 1076 q 571 1050 586 1053 q 563 1033 569 1043 q 551 1029 557 1022 q 529 1044 538 1033 q 519 1067 521 1054 q 546 1117 525 1086 q 610 1169 567 1147 q 663 1169 635 1178 q 714 1139 692 1161 q 763 1101 746 1111 q 807 1101 781 1090 q 851 1122 828 1107 q 903 1149 874 1138 q 922 1146 913 1153 q 935 1128 931 1139 q 939 1108 940 1117 q 928 1085 938 1100 q 906 1064 918 1071 q 841 1029 864 1040 q 808 1015 818 1018 q 793 1011 799 1011 z "},"Æ":{"ha":1089,"x_min":75,"x_max":1281,"o":"m 769 -68 q 674 -61 714 -68 q 599 -26 635 -54 q 558 27 571 -4 q 546 101 544 58 q 561 197 547 143 q 572 248 565 224 q 583 285 578 272 l 567 285 q 488 284 539 282 q 367 290 436 286 l 343 261 q 320 230 338 253 q 288 178 303 207 q 253 115 274 151 q 208 51 232 79 q 165 -6 179 8 q 143 -21 150 -21 q 120 -18 129 -21 q 100 -6 111 -15 q 80 33 75 7 q 119 100 85 60 q 134 119 128 110 q 140 129 140 129 q 157 159 143 135 q 190 211 171 183 q 224 261 208 239 q 247 286 240 283 q 251 340 278 314 q 244 356 242 344 q 259 377 247 367 q 289 388 271 388 q 310 396 303 393 q 317 404 317 399 q 329 426 318 408 q 356 469 340 444 q 387 515 371 493 q 414 550 403 538 q 444 601 435 589 q 461 626 453 614 q 487 658 469 633 q 519 704 504 682 q 560 746 542 724 q 593 783 579 768 q 616 816 601 799 q 649 853 631 833 q 699 888 679 882 q 742 886 718 894 q 793 876 758 882 q 867 860 828 869 q 933 880 894 871 q 1003 890 972 889 q 1040 899 1011 896 q 1106 901 1068 901 q 1175 899 1143 901 q 1224 890 1206 899 q 1260 874 1242 882 q 1278 849 1275 861 q 1278 830 1281 838 q 1276 822 1276 822 q 1257 817 1274 819 q 1211 814 1240 815 q 1143 813 1182 813 q 1083 808 1114 813 q 1027 800 1051 804 q 993 796 1003 796 q 958 789 976 790 q 938 788 939 788 q 922 768 935 788 q 894 723 908 749 q 867 675 879 697 q 856 649 856 653 q 844 617 856 635 q 818 576 833 599 q 800 543 804 558 q 808 522 796 528 q 865 530 831 526 q 933 537 899 533 q 988 540 967 540 q 1035 544 1015 547 q 1061 536 1054 542 q 1085 524 1079 533 q 1089 504 1092 514 q 1074 489 1086 494 q 1035 471 1067 482 q 960 449 1003 460 q 874 430 917 439 q 798 415 831 421 q 757 410 765 408 q 743 408 749 426 q 714 328 738 390 q 688 266 699 293 q 671 208 678 239 q 656 135 664 178 q 653 77 647 103 q 704 31 660 51 q 774 26 732 25 q 875 42 815 26 q 922 67 900 57 q 954 83 944 78 q 976 88 961 83 q 996 93 990 93 q 1008 104 1001 100 q 1024 108 1014 108 q 1038 95 1026 108 q 1060 67 1050 82 q 1069 47 1071 51 q 1033 16 1069 33 q 926 -29 996 -1 q 870 -53 892 -44 q 827 -65 849 -61 q 769 -68 806 -68 m 429 375 q 458 378 429 375 q 526 381 488 382 q 576 383 553 383 q 614 382 599 382 q 621 401 617 393 q 631 415 625 408 q 639 435 635 421 q 644 453 643 450 q 647 463 644 453 q 656 488 650 474 q 669 516 664 506 q 675 532 674 526 q 688 550 679 538 q 703 579 696 563 q 758 681 736 640 q 789 750 779 722 q 750 756 771 754 q 704 757 729 757 q 684 747 700 761 q 647 710 668 732 q 607 667 625 688 q 582 635 589 646 q 556 597 576 628 q 511 533 535 567 q 452 447 472 481 q 427 396 432 413 q 429 375 422 379 z "},"Ǽ":{"ha":1089,"x_min":75,"x_max":1281,"o":"m 769 -68 q 674 -61 714 -68 q 599 -26 635 -54 q 558 27 571 -4 q 546 101 544 58 q 561 197 547 143 q 572 248 565 224 q 583 285 578 272 l 567 285 q 488 284 539 282 q 367 290 436 286 l 343 261 q 320 230 338 253 q 288 178 303 207 q 253 115 274 151 q 208 51 232 79 q 165 -6 179 8 q 143 -21 150 -21 q 120 -18 129 -21 q 100 -6 111 -15 q 80 33 75 7 q 119 100 85 60 q 134 119 128 110 q 140 129 140 129 q 157 159 143 135 q 190 211 171 183 q 224 261 208 239 q 247 286 240 283 q 251 340 278 314 q 244 356 242 344 q 259 377 247 367 q 289 388 271 388 q 310 396 303 393 q 317 404 317 399 q 329 426 318 408 q 356 469 340 444 q 387 515 371 493 q 414 550 403 538 q 444 601 435 589 q 461 626 453 614 q 487 658 469 633 q 519 704 504 682 q 560 746 542 724 q 593 783 579 768 q 616 816 601 799 q 649 853 631 833 q 699 888 679 882 q 742 886 718 894 q 793 876 758 882 q 867 860 828 869 q 933 880 894 871 q 1003 890 972 889 q 1040 899 1011 896 q 1106 901 1068 901 q 1175 899 1143 901 q 1224 890 1206 899 q 1260 874 1242 882 q 1278 849 1275 861 q 1278 830 1281 838 q 1276 822 1276 822 q 1257 817 1274 819 q 1211 814 1240 815 q 1143 813 1182 813 q 1083 808 1114 813 q 1027 800 1051 804 q 993 796 1003 796 q 958 789 976 790 q 938 788 939 788 q 922 768 935 788 q 894 723 908 749 q 867 675 879 697 q 856 649 856 653 q 844 617 856 635 q 818 576 833 599 q 800 543 804 558 q 808 522 796 528 q 865 530 831 526 q 933 537 899 533 q 988 540 967 540 q 1035 544 1015 547 q 1061 536 1054 542 q 1085 524 1079 533 q 1089 504 1092 514 q 1074 489 1086 494 q 1035 471 1067 482 q 960 449 1003 460 q 874 430 917 439 q 798 415 831 421 q 757 410 765 408 q 743 408 749 426 q 714 328 738 390 q 688 266 699 293 q 671 208 678 239 q 656 135 664 178 q 653 77 647 103 q 704 31 660 51 q 774 26 732 25 q 875 42 815 26 q 922 67 900 57 q 954 83 944 78 q 976 88 961 83 q 996 93 990 93 q 1008 104 1001 100 q 1024 108 1014 108 q 1038 95 1026 108 q 1060 67 1050 82 q 1069 47 1071 51 q 1033 16 1069 33 q 926 -29 996 -1 q 870 -53 892 -44 q 827 -65 849 -61 q 769 -68 806 -68 m 429 375 q 458 378 429 375 q 526 381 488 382 q 576 383 553 383 q 614 382 599 382 q 621 401 617 393 q 631 415 625 408 q 639 435 635 421 q 644 453 643 450 q 647 463 644 453 q 656 488 650 474 q 669 516 664 506 q 675 532 674 526 q 688 550 679 538 q 703 579 696 563 q 758 681 736 640 q 789 750 779 722 q 750 756 771 754 q 704 757 729 757 q 684 747 700 761 q 647 710 668 732 q 607 667 625 688 q 582 635 589 646 q 556 597 576 628 q 511 533 535 567 q 452 447 472 481 q 427 396 432 413 q 429 375 422 379 m 918 992 q 903 1019 908 1001 q 900 1053 899 1038 q 919 1081 901 1060 q 960 1126 936 1101 q 1006 1172 983 1151 q 1040 1196 1029 1192 q 1073 1190 1057 1206 q 1099 1149 1089 1174 q 1088 1119 1103 1136 q 1049 1082 1072 1101 q 1003 1044 1025 1063 q 969 1010 981 1025 q 945 984 956 988 q 918 992 935 981 z "},"B":{"ha":724,"x_min":108,"x_max":804,"o":"m 283 -86 q 206 -15 224 -47 q 226 40 189 17 q 256 35 235 46 q 289 11 276 24 q 356 -20 317 -14 q 446 -12 394 -26 q 544 36 504 6 q 622 114 583 67 q 663 193 651 151 q 673 269 675 235 q 657 319 671 304 q 564 387 622 368 q 422 383 506 406 q 393 378 413 382 q 358 370 374 374 q 342 367 343 367 q 326 362 332 364 q 313 344 321 360 q 290 285 306 328 q 244 157 275 242 q 197 37 215 72 q 165 5 179 1 q 132 35 151 8 q 115 74 121 54 q 122 119 108 94 q 133 142 129 132 q 144 179 138 153 q 172 252 151 200 q 219 374 192 304 q 278 519 247 444 q 337 661 308 594 q 385 774 365 728 q 408 836 404 817 q 406 857 413 856 q 401 870 406 864 q 399 882 397 876 q 419 897 399 888 q 465 915 440 907 q 501 921 489 924 q 518 922 508 921 q 528 928 528 922 q 554 931 532 928 q 603 931 576 933 q 750 877 696 922 q 803 747 804 832 q 780 685 801 724 q 728 606 758 646 q 667 539 697 567 q 628 508 649 524 q 594 481 608 492 q 579 471 579 471 q 590 467 579 471 q 614 458 601 463 q 718 399 678 435 q 774 299 758 363 q 774 247 779 278 q 761 187 769 217 q 743 136 753 157 q 728 116 733 126 q 722 106 722 106 q 711 84 722 103 q 685 43 700 65 q 656 4 669 21 q 620 -24 642 -7 q 574 -56 599 -40 q 522 -82 549 -72 q 438 -105 483 -99 q 350 -106 392 -111 q 283 -86 308 -101 m 363 463 q 388 467 363 463 q 442 478 413 472 q 485 490 471 485 q 505 501 492 494 q 532 522 518 508 q 579 571 551 540 q 633 635 607 601 q 675 700 660 669 q 710 774 707 750 q 694 815 713 797 q 655 836 682 831 q 597 841 628 842 q 542 833 565 840 q 514 820 524 828 q 504 797 504 813 q 497 772 504 785 q 482 753 489 760 q 474 735 481 743 q 468 726 468 726 q 449 685 468 721 q 411 596 431 649 q 374 503 386 536 q 363 463 363 469 z "},"C":{"ha":658,"x_min":153,"x_max":793,"o":"m 300 -82 q 256 -62 279 -74 q 211 -31 232 -51 q 176 22 190 -11 q 158 101 163 63 q 154 192 153 140 q 165 317 154 264 q 197 426 175 371 q 208 451 200 431 q 226 494 215 471 q 242 531 236 518 q 276 594 253 554 q 325 671 299 633 q 392 767 365 731 q 444 827 419 803 q 499 874 468 851 q 576 929 529 897 q 647 954 607 951 q 724 939 688 957 q 778 879 761 921 q 793 808 793 850 q 779 720 793 767 q 743 633 765 674 q 692 565 721 592 q 653 555 674 549 q 614 579 633 561 q 601 607 601 603 q 606 613 600 611 q 628 646 614 622 q 656 697 642 669 q 675 740 669 724 q 690 821 686 799 q 682 856 694 843 q 666 860 676 861 q 632 846 656 858 q 551 786 600 832 q 460 682 503 740 q 367 551 404 608 q 310 435 329 494 q 301 414 307 429 q 294 399 294 399 q 290 372 296 393 q 278 335 285 350 q 260 206 263 271 q 267 90 257 140 q 299 19 278 40 q 347 11 317 7 q 415 31 376 15 q 496 64 454 46 q 557 94 529 78 q 599 124 585 111 q 627 141 610 132 q 657 150 644 150 q 682 150 676 157 q 688 126 688 143 q 664 82 688 107 q 607 38 640 57 q 577 15 596 26 q 539 -3 558 4 q 467 -46 510 -25 q 380 -78 424 -67 q 300 -82 336 -89 z "},"Ć":{"ha":669,"x_min":151,"x_max":838,"o":"m 299 -82 q 254 -62 278 -74 q 210 -31 231 -51 q 175 22 189 -11 q 156 101 161 63 q 153 192 151 140 q 163 317 153 264 q 196 426 174 371 q 206 451 199 431 q 224 494 214 471 q 240 531 235 518 q 274 594 251 554 q 324 671 297 633 q 391 767 364 731 q 442 827 418 803 q 497 874 467 851 q 575 929 528 897 q 646 954 606 951 q 723 939 686 957 q 776 879 760 921 q 792 808 792 850 q 778 720 792 767 q 742 633 764 674 q 690 565 719 592 q 652 555 672 549 q 613 579 632 561 q 599 607 600 603 q 604 613 599 611 q 626 646 613 622 q 654 697 640 669 q 674 740 668 724 q 689 821 685 799 q 681 856 693 843 q 665 860 675 861 q 631 846 654 858 q 550 786 599 832 q 458 682 501 740 q 365 551 403 608 q 308 435 328 494 q 299 414 306 429 q 293 399 293 399 q 289 372 294 393 q 276 335 283 350 q 258 206 261 271 q 266 90 256 140 q 297 19 276 40 q 345 11 315 7 q 414 31 375 15 q 494 64 453 46 q 556 94 528 78 q 597 124 583 111 q 626 141 608 132 q 656 150 643 150 q 681 150 675 157 q 686 126 686 143 q 663 82 686 107 q 606 38 639 57 q 576 15 594 26 q 538 -3 557 4 q 465 -46 508 -25 q 378 -78 422 -67 q 299 -82 335 -89 m 653 992 q 638 1019 643 1001 q 635 1053 633 1038 q 653 1081 636 1060 q 694 1126 671 1101 q 741 1172 718 1151 q 775 1196 764 1192 q 808 1190 792 1206 q 833 1149 824 1174 q 822 1119 838 1136 q 783 1082 807 1101 q 738 1044 760 1063 q 704 1010 715 1025 q 680 984 690 988 q 653 992 669 981 z "},"Č":{"ha":669,"x_min":151,"x_max":882,"o":"m 299 -82 q 254 -62 278 -74 q 210 -31 231 -51 q 175 22 189 -11 q 156 101 161 63 q 153 192 151 140 q 163 317 153 264 q 196 426 174 371 q 206 451 199 431 q 224 494 214 471 q 240 531 235 518 q 274 594 251 554 q 324 671 297 633 q 391 767 364 731 q 442 827 418 803 q 497 874 467 851 q 575 929 528 897 q 646 954 606 951 q 723 939 686 957 q 776 879 760 921 q 792 808 792 850 q 778 720 792 767 q 742 633 764 674 q 690 565 719 592 q 652 555 672 549 q 613 579 632 561 q 599 607 600 603 q 604 613 599 611 q 626 646 613 622 q 654 697 640 669 q 674 740 668 724 q 689 821 685 799 q 681 856 693 843 q 665 860 675 861 q 631 846 654 858 q 550 786 599 832 q 458 682 501 740 q 365 551 403 608 q 308 435 328 494 q 299 414 306 429 q 293 399 293 399 q 289 372 294 393 q 276 335 283 350 q 258 206 261 271 q 266 90 256 140 q 297 19 276 40 q 345 11 315 7 q 414 31 375 15 q 494 64 453 46 q 556 94 528 78 q 597 124 583 111 q 626 141 608 132 q 656 150 643 150 q 681 150 675 157 q 686 126 686 143 q 663 82 686 107 q 606 38 639 57 q 576 15 594 26 q 538 -3 557 4 q 465 -46 508 -25 q 378 -78 422 -67 q 299 -82 335 -89 m 726 999 q 703 990 715 990 q 679 1001 690 989 q 637 1040 663 1015 q 589 1088 611 1065 q 563 1117 567 1110 q 566 1151 558 1133 q 591 1173 574 1169 q 631 1150 608 1176 q 663 1117 640 1136 q 707 1079 685 1099 q 745 1103 724 1089 q 785 1131 767 1117 q 814 1153 804 1144 q 860 1169 844 1174 q 878 1147 875 1164 q 876 1118 882 1131 q 857 1096 875 1113 q 815 1060 839 1079 q 767 1024 790 1040 q 726 999 743 1007 z "},"Ç":{"ha":669,"x_min":151,"x_max":792,"o":"m 299 -82 q 254 -62 278 -74 q 210 -31 231 -51 q 175 22 189 -11 q 156 101 161 63 q 153 192 151 140 q 163 317 153 264 q 196 426 174 371 q 206 451 199 431 q 224 494 214 471 q 240 531 235 518 q 274 594 251 554 q 324 671 297 633 q 391 767 364 731 q 442 827 418 803 q 497 874 467 851 q 575 929 528 897 q 646 954 606 951 q 723 939 686 957 q 776 879 760 921 q 792 808 792 850 q 778 720 792 767 q 742 633 764 674 q 690 565 719 592 q 652 555 672 549 q 613 579 632 561 q 599 607 600 603 q 604 613 599 611 q 626 646 613 622 q 654 697 640 669 q 674 740 668 724 q 689 821 685 799 q 681 856 693 843 q 665 860 675 861 q 631 846 654 858 q 550 786 599 832 q 458 682 501 740 q 365 551 403 608 q 308 435 328 494 q 299 414 306 429 q 293 399 293 399 q 289 372 294 393 q 276 335 283 350 q 258 206 261 271 q 266 90 256 140 q 297 19 276 40 q 345 11 315 7 q 414 31 375 15 q 494 64 453 46 q 556 94 528 78 q 597 124 583 111 q 626 141 608 132 q 656 150 643 150 q 681 150 675 157 q 686 126 686 143 q 663 82 686 107 q 606 38 639 57 q 576 15 594 26 q 538 -3 557 4 q 465 -46 508 -25 q 378 -78 422 -67 q 299 -82 335 -89 m 329 -354 q 277 -354 308 -358 q 219 -343 246 -350 q 185 -333 193 -336 q 162 -315 168 -328 q 159 -288 156 -301 q 174 -268 163 -275 q 206 -267 186 -261 q 255 -281 228 -272 q 303 -290 282 -290 q 335 -271 325 -290 q 337 -240 344 -256 q 314 -208 329 -225 q 292 -181 304 -196 q 264 -153 279 -167 q 250 -119 253 -136 q 269 -79 247 -101 q 358 -24 292 -57 l 415 -58 q 359 -90 381 -75 q 338 -124 338 -106 q 381 -177 357 -151 q 411 -231 404 -203 q 410 -290 419 -264 q 378 -332 400 -315 q 329 -354 357 -349 z "},"Ĉ":{"ha":669,"x_min":151,"x_max":889,"o":"m 299 -82 q 254 -62 278 -74 q 210 -31 231 -51 q 175 22 189 -11 q 156 101 161 63 q 153 192 151 140 q 163 317 153 264 q 196 426 174 371 q 206 451 199 431 q 224 494 214 471 q 240 531 235 518 q 274 594 251 554 q 324 671 297 633 q 391 767 364 731 q 442 827 418 803 q 497 874 467 851 q 575 929 528 897 q 646 954 606 951 q 723 939 686 957 q 776 879 760 921 q 792 808 792 850 q 778 720 792 767 q 742 633 764 674 q 690 565 719 592 q 652 555 672 549 q 613 579 632 561 q 599 607 600 603 q 604 613 599 611 q 626 646 613 622 q 654 697 640 669 q 674 740 668 724 q 689 821 685 799 q 681 856 693 843 q 665 860 675 861 q 631 846 654 858 q 550 786 599 832 q 458 682 501 740 q 365 551 403 608 q 308 435 328 494 q 299 414 306 429 q 293 399 293 399 q 289 372 294 393 q 276 335 283 350 q 258 206 261 271 q 266 90 256 140 q 297 19 276 40 q 345 11 315 7 q 414 31 375 15 q 494 64 453 46 q 556 94 528 78 q 597 124 583 111 q 626 141 608 132 q 656 150 643 150 q 681 150 675 157 q 686 126 686 143 q 663 82 686 107 q 606 38 639 57 q 576 15 594 26 q 538 -3 557 4 q 465 -46 508 -25 q 378 -78 422 -67 q 299 -82 335 -89 m 636 1013 q 595 994 613 989 q 573 1018 578 999 q 582 1057 568 1038 q 602 1077 586 1063 q 640 1110 618 1092 q 683 1145 661 1129 q 718 1169 704 1161 q 746 1181 732 1182 q 768 1167 760 1179 q 809 1128 785 1153 q 854 1083 833 1104 q 881 1054 875 1061 q 887 1026 889 1042 q 874 999 885 1010 q 849 992 864 989 q 814 1018 833 996 q 783 1051 804 1029 q 740 1090 761 1072 q 703 1065 724 1081 q 664 1035 682 1050 q 636 1013 646 1021 z "},"Ċ":{"ha":669,"x_min":151,"x_max":799,"o":"m 299 -82 q 254 -62 278 -74 q 210 -31 231 -51 q 175 22 189 -11 q 156 101 161 63 q 153 192 151 140 q 163 317 153 264 q 196 426 174 371 q 206 451 199 431 q 224 494 214 471 q 240 531 235 518 q 274 594 251 554 q 324 671 297 633 q 391 767 364 731 q 442 827 418 803 q 497 874 467 851 q 575 929 528 897 q 646 954 606 951 q 723 939 686 957 q 776 879 760 921 q 792 808 792 850 q 778 720 792 767 q 742 633 764 674 q 690 565 719 592 q 652 555 672 549 q 613 579 632 561 q 599 607 600 603 q 604 613 599 611 q 626 646 613 622 q 654 697 640 669 q 674 740 668 724 q 689 821 685 799 q 681 856 693 843 q 665 860 675 861 q 631 846 654 858 q 550 786 599 832 q 458 682 501 740 q 365 551 403 608 q 308 435 328 494 q 299 414 306 429 q 293 399 293 399 q 289 372 294 393 q 276 335 283 350 q 258 206 261 271 q 266 90 256 140 q 297 19 276 40 q 345 11 315 7 q 414 31 375 15 q 494 64 453 46 q 556 94 528 78 q 597 124 583 111 q 626 141 608 132 q 656 150 643 150 q 681 150 675 157 q 686 126 686 143 q 663 82 686 107 q 606 38 639 57 q 576 15 594 26 q 538 -3 557 4 q 465 -46 508 -25 q 378 -78 422 -67 q 299 -82 335 -89 m 678 1024 q 661 1053 668 1033 q 656 1082 654 1072 q 667 1113 658 1089 q 696 1154 676 1138 q 705 1163 700 1157 q 715 1171 710 1169 q 749 1176 732 1182 q 783 1147 765 1171 q 792 1096 799 1115 q 760 1044 786 1076 q 720 1011 739 1017 q 678 1024 701 1006 z "},"D":{"ha":807,"x_min":96,"x_max":918,"o":"m 307 -137 q 253 -140 281 -142 q 182 -128 225 -139 q 151 -111 160 -121 q 121 -75 142 -101 q 101 -32 107 -53 q 102 3 96 -11 q 126 15 108 17 q 144 8 132 15 q 167 -11 156 0 q 219 -41 189 -31 q 289 -46 249 -51 q 335 -36 308 -42 q 389 -22 363 -31 q 431 -3 415 -14 q 546 77 504 47 q 588 107 588 107 q 598 116 590 113 q 617 124 606 119 q 644 150 625 132 q 680 186 663 168 q 701 207 697 204 q 707 227 704 219 q 710 243 710 235 q 740 290 721 254 q 778 369 758 325 q 806 449 797 413 q 815 604 824 539 q 778 718 807 669 q 706 804 750 767 q 663 831 690 817 q 608 858 636 846 q 558 876 579 869 q 532 882 536 883 q 510 839 526 881 q 469 732 493 797 q 419 594 446 667 q 369 456 393 521 q 351 400 361 429 q 335 349 342 371 q 328 321 328 328 q 301 255 313 297 q 278 122 289 213 q 260 49 265 75 q 249 24 254 22 q 248 19 249 24 q 243 10 247 14 q 230 0 243 1 q 199 6 217 -1 q 171 29 182 14 q 165 63 167 44 q 175 122 164 82 q 193 188 182 149 q 217 270 204 228 q 242 348 231 313 q 260 401 254 383 q 288 490 269 425 q 310 563 299 526 q 333 627 322 599 q 349 664 344 656 q 369 724 356 682 q 404 819 382 767 l 414 865 l 399 872 q 373 869 382 867 q 361 872 364 871 q 338 876 353 869 q 312 895 324 883 q 297 915 300 907 q 294 930 294 921 q 293 939 293 939 q 315 956 294 947 q 369 970 336 964 q 439 979 401 976 q 511 979 476 982 q 586 963 547 976 q 663 936 625 950 q 757 879 707 919 q 849 783 807 839 q 904 667 890 728 q 913 619 908 650 q 917 560 917 589 q 911 524 918 532 q 908 510 908 518 q 913 500 907 503 q 903 469 911 496 q 888 422 894 442 q 870 344 885 386 q 838 266 856 303 q 807 206 821 229 q 797 203 801 206 q 797 200 792 201 q 782 174 797 193 q 765 153 776 169 q 746 132 753 138 q 738 116 744 122 q 725 110 731 110 q 723 110 725 110 q 721 104 721 110 q 685 63 710 88 q 630 13 661 39 q 567 -34 599 -12 q 507 -67 535 -56 q 478 -83 493 -76 q 449 -96 463 -89 q 415 -110 442 -101 q 358 -126 388 -118 q 307 -137 328 -133 z "},"Ð":{"ha":803,"x_min":99,"x_max":915,"o":"m 313 -136 q 256 -140 285 -140 q 176 -126 226 -140 q 152 -112 163 -121 q 132 -88 142 -103 q 114 -56 122 -74 q 102 -1 99 -22 q 125 15 106 19 q 149 3 138 14 q 169 -18 161 -7 q 219 -42 193 -35 q 285 -46 246 -49 q 335 -36 307 -42 q 388 -22 363 -31 q 426 -4 413 -14 q 542 76 500 46 q 585 106 585 106 q 595 115 588 111 q 614 122 603 118 q 641 149 622 131 q 677 186 660 168 q 699 207 694 204 q 704 227 701 219 q 707 243 707 235 q 738 290 718 254 q 776 369 757 325 q 804 450 796 414 q 813 610 822 544 q 774 722 804 675 q 700 807 744 769 q 657 835 683 821 q 603 860 631 849 q 554 877 575 871 q 529 882 533 883 q 510 844 525 881 q 474 749 496 807 q 428 624 451 692 q 381 492 404 556 l 399 492 q 447 486 433 490 q 475 471 460 482 q 488 431 494 450 q 449 415 481 413 q 416 413 439 414 q 369 411 393 411 q 363 411 367 411 q 354 410 358 411 q 335 353 344 379 q 325 321 325 328 q 299 255 310 297 q 276 122 288 213 q 258 48 264 75 q 247 22 253 21 l 243 15 q 229 6 243 7 q 198 10 215 4 q 172 24 181 15 q 165 56 168 39 q 171 111 161 72 q 189 180 178 139 q 213 264 200 221 q 239 342 226 307 q 257 396 251 378 q 258 401 258 399 q 260 404 258 403 l 243 404 q 226 406 238 404 q 203 411 215 407 q 173 416 182 411 q 158 432 164 421 q 160 461 147 453 q 221 475 174 469 q 254 481 239 478 q 285 485 269 483 q 286 490 286 488 q 288 493 286 492 q 310 564 299 529 q 331 626 321 599 q 347 664 342 654 q 367 724 354 682 q 401 819 379 767 l 411 865 l 396 872 q 372 869 382 867 q 358 872 363 871 q 338 876 351 869 q 313 892 324 882 q 297 911 301 903 q 292 928 293 919 q 292 938 292 938 q 324 959 293 949 q 403 976 356 969 q 500 979 450 982 q 583 964 543 978 q 661 936 624 950 q 756 878 707 919 q 846 784 806 838 q 900 672 886 731 q 911 617 907 650 q 915 557 915 585 q 908 521 915 529 q 905 508 906 515 q 910 497 904 500 q 900 466 908 493 q 885 419 892 439 q 867 342 882 382 q 836 265 853 301 q 806 206 819 229 q 795 203 800 206 q 796 200 790 201 q 790 187 796 193 q 776 169 785 181 q 761 151 771 165 q 744 132 751 138 q 736 116 743 122 q 724 110 729 110 q 722 110 724 110 q 719 104 719 110 q 684 63 708 88 q 628 13 660 39 q 565 -34 597 -12 q 506 -67 533 -56 q 476 -83 492 -76 q 447 -96 461 -89 q 416 -110 440 -101 q 363 -125 392 -118 q 313 -136 333 -132 z "},"Ď":{"ha":803,"x_min":94,"x_max":949,"o":"m 306 -137 q 251 -140 279 -142 q 181 -128 224 -139 q 149 -111 158 -121 q 119 -75 140 -101 q 100 -32 106 -53 q 101 3 94 -11 q 125 15 107 17 q 142 8 131 15 q 165 -11 154 0 q 217 -41 188 -31 q 288 -46 247 -51 q 334 -36 307 -42 q 388 -22 361 -31 q 429 -3 414 -14 q 544 77 503 47 q 586 107 586 107 q 597 116 589 113 q 615 124 604 119 q 642 150 624 132 q 678 186 661 168 q 700 207 696 204 q 706 227 703 219 q 708 243 708 235 q 738 290 719 254 q 776 369 757 325 q 804 449 796 413 q 814 604 822 539 q 777 718 806 669 q 704 804 749 767 q 662 831 689 817 q 606 858 635 846 q 556 876 578 869 q 531 882 535 883 q 508 839 525 881 q 468 732 492 797 q 418 594 444 667 q 368 456 392 521 q 350 400 360 429 q 333 349 340 371 q 326 321 326 328 q 299 255 311 297 q 276 122 288 213 q 258 49 264 75 q 247 24 253 22 q 247 19 247 24 q 242 10 246 14 q 228 0 242 1 q 198 6 215 -1 q 169 29 181 14 q 164 63 165 44 q 174 122 163 82 q 192 188 181 149 q 216 270 203 228 q 241 348 229 313 q 258 401 253 383 q 286 490 268 425 q 309 563 297 526 q 332 627 321 599 q 347 664 343 656 q 367 724 354 682 q 403 819 381 767 l 413 865 l 397 872 q 372 869 381 867 q 360 872 363 871 q 337 876 351 869 q 310 895 322 883 q 296 915 299 907 q 292 930 293 921 q 292 939 292 939 q 314 956 293 947 q 367 970 335 964 q 438 979 400 976 q 510 979 475 982 q 585 963 546 976 q 661 936 624 950 q 756 879 706 919 q 847 783 806 839 q 903 667 889 728 q 911 619 907 650 q 916 560 915 589 q 910 524 917 532 q 906 510 907 518 q 911 500 906 503 q 901 469 910 496 q 886 422 893 442 q 869 344 883 386 q 837 266 854 303 q 806 206 819 229 q 795 203 800 206 q 796 200 790 201 q 781 174 796 193 q 763 153 775 169 q 744 132 751 138 q 736 116 743 122 q 724 110 729 110 q 722 110 724 110 q 719 104 719 110 q 684 63 708 88 q 628 13 660 39 q 565 -34 597 -12 q 506 -67 533 -56 q 476 -83 492 -76 q 447 -96 461 -89 q 413 -110 440 -101 q 356 -126 386 -118 q 306 -137 326 -133 m 793 999 q 769 990 782 990 q 746 1001 757 989 q 703 1040 729 1015 q 656 1088 678 1065 q 629 1117 633 1110 q 633 1151 625 1133 q 658 1173 640 1169 q 697 1150 675 1176 q 729 1117 707 1136 q 774 1079 751 1099 q 812 1103 790 1089 q 852 1131 833 1117 q 881 1153 871 1144 q 926 1169 911 1174 q 945 1147 942 1164 q 943 1118 949 1131 q 924 1096 942 1113 q 881 1060 906 1079 q 833 1024 857 1040 q 793 999 810 1007 z "},"Đ":{"ha":803,"x_min":99,"x_max":915,"o":"m 313 -136 q 256 -140 285 -140 q 176 -126 226 -140 q 152 -112 163 -121 q 132 -88 142 -103 q 114 -56 122 -74 q 102 -1 99 -22 q 125 15 106 19 q 149 3 138 14 q 169 -18 161 -7 q 219 -42 193 -35 q 285 -46 246 -49 q 335 -36 307 -42 q 388 -22 363 -31 q 426 -4 413 -14 q 542 76 500 46 q 585 106 585 106 q 595 115 588 111 q 614 122 603 118 q 641 149 622 131 q 677 186 660 168 q 699 207 694 204 q 704 227 701 219 q 707 243 707 235 q 738 290 718 254 q 776 369 757 325 q 804 450 796 414 q 813 610 822 544 q 774 722 804 675 q 700 807 744 769 q 657 835 683 821 q 603 860 631 849 q 554 877 575 871 q 529 882 533 883 q 510 844 525 881 q 474 749 496 807 q 428 624 451 692 q 381 492 404 556 l 399 492 q 447 486 433 490 q 475 471 460 482 q 488 431 494 450 q 449 415 481 413 q 416 413 439 414 q 369 411 393 411 q 363 411 367 411 q 354 410 358 411 q 335 353 344 379 q 325 321 325 328 q 299 255 310 297 q 276 122 288 213 q 258 48 264 75 q 247 22 253 21 l 243 15 q 229 6 243 7 q 198 10 215 4 q 172 24 181 15 q 165 56 168 39 q 171 111 161 72 q 189 180 178 139 q 213 264 200 221 q 239 342 226 307 q 257 396 251 378 q 258 401 258 399 q 260 404 258 403 l 243 404 q 226 406 238 404 q 203 411 215 407 q 173 416 182 411 q 158 432 164 421 q 160 461 147 453 q 221 475 174 469 q 254 481 239 478 q 285 485 269 483 q 286 490 286 488 q 288 493 286 492 q 310 564 299 529 q 331 626 321 599 q 347 664 342 654 q 367 724 354 682 q 401 819 379 767 l 411 865 l 396 872 q 372 869 382 867 q 358 872 363 871 q 338 876 351 869 q 313 892 324 882 q 297 911 301 903 q 292 928 293 919 q 292 938 292 938 q 324 959 293 949 q 403 976 356 969 q 500 979 450 982 q 583 964 543 978 q 661 936 624 950 q 756 878 707 919 q 846 784 806 838 q 900 672 886 731 q 911 617 907 650 q 915 557 915 585 q 908 521 915 529 q 905 508 906 515 q 910 497 904 500 q 900 466 908 493 q 885 419 892 439 q 867 342 882 382 q 836 265 853 301 q 806 206 819 229 q 795 203 800 206 q 796 200 790 201 q 790 187 796 193 q 776 169 785 181 q 761 151 771 165 q 744 132 751 138 q 736 116 743 122 q 724 110 729 110 q 722 110 724 110 q 719 104 719 110 q 684 63 708 88 q 628 13 660 39 q 565 -34 597 -12 q 506 -67 533 -56 q 476 -83 492 -76 q 447 -96 461 -89 q 416 -110 440 -101 q 363 -125 392 -118 q 313 -136 333 -132 z "},"Ḍ":{"ha":803,"x_min":94,"x_max":917,"o":"m 306 -137 q 251 -140 279 -142 q 181 -128 224 -139 q 149 -111 158 -121 q 119 -75 140 -101 q 100 -32 106 -53 q 101 3 94 -11 q 125 15 107 17 q 142 8 131 15 q 165 -11 154 0 q 217 -41 188 -31 q 288 -46 247 -51 q 334 -36 307 -42 q 388 -22 361 -31 q 429 -3 414 -14 q 544 77 503 47 q 586 107 586 107 q 597 116 589 113 q 615 124 604 119 q 642 150 624 132 q 678 186 661 168 q 700 207 696 204 q 706 227 703 219 q 708 243 708 235 q 738 290 719 254 q 776 369 757 325 q 804 449 796 413 q 814 604 822 539 q 777 718 806 669 q 704 804 749 767 q 662 831 689 817 q 606 858 635 846 q 556 876 578 869 q 531 882 535 883 q 508 839 525 881 q 468 732 492 797 q 418 594 444 667 q 368 456 392 521 q 350 400 360 429 q 333 349 340 371 q 326 321 326 328 q 299 255 311 297 q 276 122 288 213 q 258 49 264 75 q 247 24 253 22 q 247 19 247 24 q 242 10 246 14 q 228 0 242 1 q 198 6 215 -1 q 169 29 181 14 q 164 63 165 44 q 174 122 163 82 q 192 188 181 149 q 216 270 203 228 q 241 348 229 313 q 258 401 253 383 q 286 490 268 425 q 309 563 297 526 q 332 627 321 599 q 347 664 343 656 q 367 724 354 682 q 403 819 381 767 l 413 865 l 397 872 q 372 869 381 867 q 360 872 363 871 q 337 876 351 869 q 310 895 322 883 q 296 915 299 907 q 292 930 293 921 q 292 939 292 939 q 314 956 293 947 q 367 970 335 964 q 438 979 400 976 q 510 979 475 982 q 585 963 546 976 q 661 936 624 950 q 756 879 706 919 q 847 783 806 839 q 903 667 889 728 q 911 619 907 650 q 916 560 915 589 q 910 524 917 532 q 906 510 907 518 q 911 500 906 503 q 901 469 910 496 q 886 422 893 442 q 869 344 883 386 q 837 266 854 303 q 806 206 819 229 q 795 203 800 206 q 796 200 790 201 q 781 174 796 193 q 763 153 775 169 q 744 132 751 138 q 736 116 743 122 q 724 110 729 110 q 722 110 724 110 q 719 104 719 110 q 684 63 708 88 q 628 13 660 39 q 565 -34 597 -12 q 506 -67 533 -56 q 476 -83 492 -76 q 447 -96 461 -89 q 413 -110 440 -101 q 356 -126 386 -118 q 306 -137 326 -133 m 319 -308 q 301 -283 307 -296 q 297 -262 296 -269 q 310 -229 301 -250 q 328 -203 319 -208 q 340 -192 335 -197 q 351 -186 346 -187 q 383 -182 368 -175 q 408 -210 399 -189 q 419 -248 422 -232 q 397 -286 415 -264 q 352 -322 369 -318 q 319 -308 335 -325 z "},"E":{"ha":738,"x_min":108,"x_max":896,"o":"m 325 -40 q 246 -12 282 -37 q 174 38 210 13 q 136 88 150 61 q 114 160 122 115 q 114 228 108 186 q 132 311 119 269 q 156 378 144 353 q 198 462 172 417 q 249 548 224 507 q 290 614 275 589 q 299 624 300 624 q 299 625 299 625 q 313 660 299 632 q 339 711 328 689 q 363 747 360 733 q 358 769 365 761 q 369 790 356 775 q 408 825 382 806 q 465 863 433 844 q 530 891 499 889 q 567 878 561 893 q 583 876 567 874 q 620 883 599 878 q 658 890 642 888 q 691 903 665 899 q 751 913 717 908 q 788 912 769 911 q 821 914 807 913 q 835 915 835 915 q 860 910 844 918 q 886 876 875 901 q 876 837 896 851 q 800 815 857 822 q 730 806 758 810 q 671 798 701 803 q 592 782 640 793 q 534 768 557 775 q 494 745 511 761 q 457 697 478 729 q 432 661 447 690 q 401 603 417 632 q 338 514 363 549 q 318 472 313 479 q 335 468 318 472 q 357 464 351 464 q 391 474 371 471 q 424 479 411 476 q 556 513 510 501 q 626 531 603 525 q 663 538 649 536 q 701 540 682 553 q 731 506 719 528 q 731 474 738 486 q 694 451 724 461 q 607 426 664 440 q 460 386 550 411 q 331 360 383 364 q 282 383 279 356 q 260 371 272 389 q 238 322 249 353 q 220 257 228 292 q 210 192 213 222 q 214 147 208 163 q 245 95 225 115 q 313 61 265 75 q 367 57 340 60 q 426 68 393 54 q 551 97 508 82 q 600 118 593 113 q 615 126 611 124 q 625 128 618 128 q 628 128 621 121 q 650 147 635 135 q 696 176 669 165 q 742 189 722 186 q 764 185 763 192 q 759 144 772 171 q 715 88 746 118 q 639 32 685 58 q 479 -23 565 -7 q 325 -40 393 -39 z "},"É":{"ha":761,"x_min":107,"x_max":893,"o":"m 324 -40 q 244 -12 281 -37 q 172 38 208 13 q 135 88 149 61 q 113 160 121 115 q 113 228 107 186 q 131 311 118 269 q 154 378 143 353 q 197 462 171 417 q 248 548 222 507 q 289 614 274 589 q 298 624 299 624 q 297 625 297 625 q 312 660 297 632 q 338 711 326 689 q 361 747 358 733 q 357 769 364 761 q 367 790 354 775 q 406 825 381 806 q 464 863 432 844 q 528 891 497 889 q 565 878 560 893 q 581 876 565 874 q 619 883 597 878 q 657 890 640 888 q 690 903 664 899 q 750 913 715 908 q 787 912 768 911 q 819 914 806 913 q 833 915 833 915 q 858 910 843 918 q 885 876 874 901 q 875 837 894 851 q 799 815 856 822 q 728 806 757 810 q 669 798 700 803 q 590 782 639 793 q 533 768 556 775 q 493 745 510 761 q 456 697 476 729 q 431 661 446 690 q 400 603 415 632 q 336 514 361 549 q 317 472 311 479 q 333 468 317 472 q 356 464 350 464 q 390 474 369 471 q 422 479 410 476 q 555 513 508 501 q 624 531 601 525 q 661 538 647 536 q 699 540 681 553 q 729 506 718 528 q 729 474 736 486 q 692 451 722 461 q 606 426 663 440 q 458 386 549 411 q 330 360 382 364 q 281 383 278 356 q 259 371 271 389 q 237 322 247 353 q 219 257 226 292 q 209 192 211 222 q 213 147 207 163 q 244 95 224 115 q 311 61 264 75 q 365 57 339 60 q 425 68 392 54 q 549 97 507 82 q 599 118 592 113 q 613 126 610 124 q 624 128 617 128 q 626 128 619 121 q 649 147 633 135 q 694 176 668 165 q 741 189 721 186 q 763 185 761 192 q 758 144 771 171 q 714 88 744 118 q 638 32 683 58 q 478 -23 564 -7 q 324 -40 392 -39 m 700 992 q 685 1019 690 1001 q 682 1053 681 1038 q 701 1081 683 1060 q 742 1126 718 1101 q 788 1172 765 1151 q 822 1196 811 1192 q 855 1190 839 1206 q 881 1149 871 1174 q 869 1119 885 1136 q 831 1082 854 1101 q 785 1044 807 1063 q 751 1010 763 1025 q 727 984 738 988 q 700 992 717 981 z "},"Ĕ":{"ha":761,"x_min":107,"x_max":939,"o":"m 324 -40 q 244 -12 281 -37 q 172 38 208 13 q 135 88 149 61 q 113 160 121 115 q 113 228 107 186 q 131 311 118 269 q 154 378 143 353 q 197 462 171 417 q 248 548 222 507 q 289 614 274 589 q 298 624 299 624 q 297 625 297 625 q 312 660 297 632 q 338 711 326 689 q 361 747 358 733 q 357 769 364 761 q 367 790 354 775 q 406 825 381 806 q 464 863 432 844 q 528 891 497 889 q 565 878 560 893 q 581 876 565 874 q 619 883 597 878 q 657 890 640 888 q 690 903 664 899 q 750 913 715 908 q 787 912 768 911 q 819 914 806 913 q 833 915 833 915 q 858 910 843 918 q 885 876 874 901 q 875 837 894 851 q 799 815 856 822 q 728 806 757 810 q 669 798 700 803 q 590 782 639 793 q 533 768 556 775 q 493 745 510 761 q 456 697 476 729 q 431 661 446 690 q 400 603 415 632 q 336 514 361 549 q 317 472 311 479 q 333 468 317 472 q 356 464 350 464 q 390 474 369 471 q 422 479 410 476 q 555 513 508 501 q 624 531 601 525 q 661 538 647 536 q 699 540 681 553 q 729 506 718 528 q 729 474 736 486 q 692 451 722 461 q 606 426 663 440 q 458 386 549 411 q 330 360 382 364 q 281 383 278 356 q 259 371 271 389 q 237 322 247 353 q 219 257 226 292 q 209 192 211 222 q 213 147 207 163 q 244 95 224 115 q 311 61 264 75 q 365 57 339 60 q 425 68 392 54 q 549 97 507 82 q 599 118 592 113 q 613 126 610 124 q 624 128 617 128 q 626 128 619 121 q 649 147 633 135 q 694 176 668 165 q 741 189 721 186 q 763 185 761 192 q 758 144 771 171 q 714 88 744 118 q 638 32 683 58 q 478 -23 564 -7 q 324 -40 392 -39 m 747 974 q 670 997 703 978 q 624 1049 638 1015 q 618 1128 610 1082 q 638 1171 624 1157 q 667 1185 653 1185 q 691 1172 682 1185 q 693 1136 700 1160 q 691 1099 689 1121 q 710 1061 693 1076 q 768 1047 726 1046 q 805 1063 786 1049 q 839 1099 824 1078 q 863 1133 854 1119 q 895 1172 881 1164 q 920 1171 910 1179 q 935 1147 931 1163 q 936 1119 939 1132 q 915 1076 931 1101 q 875 1026 900 1050 q 817 986 850 1001 q 747 974 785 971 z "},"Ě":{"ha":761,"x_min":107,"x_max":929,"o":"m 324 -40 q 244 -12 281 -37 q 172 38 208 13 q 135 88 149 61 q 113 160 121 115 q 113 228 107 186 q 131 311 118 269 q 154 378 143 353 q 197 462 171 417 q 248 548 222 507 q 289 614 274 589 q 298 624 299 624 q 297 625 297 625 q 312 660 297 632 q 338 711 326 689 q 361 747 358 733 q 357 769 364 761 q 367 790 354 775 q 406 825 381 806 q 464 863 432 844 q 528 891 497 889 q 565 878 560 893 q 581 876 565 874 q 619 883 597 878 q 657 890 640 888 q 690 903 664 899 q 750 913 715 908 q 787 912 768 911 q 819 914 806 913 q 833 915 833 915 q 858 910 843 918 q 885 876 874 901 q 875 837 894 851 q 799 815 856 822 q 728 806 757 810 q 669 798 700 803 q 590 782 639 793 q 533 768 556 775 q 493 745 510 761 q 456 697 476 729 q 431 661 446 690 q 400 603 415 632 q 336 514 361 549 q 317 472 311 479 q 333 468 317 472 q 356 464 350 464 q 390 474 369 471 q 422 479 410 476 q 555 513 508 501 q 624 531 601 525 q 661 538 647 536 q 699 540 681 553 q 729 506 718 528 q 729 474 736 486 q 692 451 722 461 q 606 426 663 440 q 458 386 549 411 q 330 360 382 364 q 281 383 278 356 q 259 371 271 389 q 237 322 247 353 q 219 257 226 292 q 209 192 211 222 q 213 147 207 163 q 244 95 224 115 q 311 61 264 75 q 365 57 339 60 q 425 68 392 54 q 549 97 507 82 q 599 118 592 113 q 613 126 610 124 q 624 128 617 128 q 626 128 619 121 q 649 147 633 135 q 694 176 668 165 q 741 189 721 186 q 763 185 761 192 q 758 144 771 171 q 714 88 744 118 q 638 32 683 58 q 478 -23 564 -7 q 324 -40 392 -39 m 774 999 q 750 990 763 990 q 726 1001 738 989 q 684 1040 710 1015 q 636 1088 658 1065 q 610 1117 614 1110 q 613 1151 606 1133 q 638 1173 621 1169 q 678 1150 656 1176 q 710 1117 688 1136 q 754 1079 732 1099 q 792 1103 771 1089 q 833 1131 814 1117 q 861 1153 851 1144 q 907 1169 892 1174 q 926 1147 922 1164 q 924 1118 929 1131 q 904 1096 922 1113 q 862 1060 886 1079 q 814 1024 838 1040 q 774 999 790 1007 z "},"Ê":{"ha":761,"x_min":107,"x_max":936,"o":"m 324 -40 q 244 -12 281 -37 q 172 38 208 13 q 135 88 149 61 q 113 160 121 115 q 113 228 107 186 q 131 311 118 269 q 154 378 143 353 q 197 462 171 417 q 248 548 222 507 q 289 614 274 589 q 298 624 299 624 q 297 625 297 625 q 312 660 297 632 q 338 711 326 689 q 361 747 358 733 q 357 769 364 761 q 367 790 354 775 q 406 825 381 806 q 464 863 432 844 q 528 891 497 889 q 565 878 560 893 q 581 876 565 874 q 619 883 597 878 q 657 890 640 888 q 690 903 664 899 q 750 913 715 908 q 787 912 768 911 q 819 914 806 913 q 833 915 833 915 q 858 910 843 918 q 885 876 874 901 q 875 837 894 851 q 799 815 856 822 q 728 806 757 810 q 669 798 700 803 q 590 782 639 793 q 533 768 556 775 q 493 745 510 761 q 456 697 476 729 q 431 661 446 690 q 400 603 415 632 q 336 514 361 549 q 317 472 311 479 q 333 468 317 472 q 356 464 350 464 q 390 474 369 471 q 422 479 410 476 q 555 513 508 501 q 624 531 601 525 q 661 538 647 536 q 699 540 681 553 q 729 506 718 528 q 729 474 736 486 q 692 451 722 461 q 606 426 663 440 q 458 386 549 411 q 330 360 382 364 q 281 383 278 356 q 259 371 271 389 q 237 322 247 353 q 219 257 226 292 q 209 192 211 222 q 213 147 207 163 q 244 95 224 115 q 311 61 264 75 q 365 57 339 60 q 425 68 392 54 q 549 97 507 82 q 599 118 592 113 q 613 126 610 124 q 624 128 617 128 q 626 128 619 121 q 649 147 633 135 q 694 176 668 165 q 741 189 721 186 q 763 185 761 192 q 758 144 771 171 q 714 88 744 118 q 638 32 683 58 q 478 -23 564 -7 q 324 -40 392 -39 m 683 1013 q 642 994 660 989 q 620 1018 625 999 q 629 1057 615 1038 q 649 1077 633 1063 q 687 1110 665 1092 q 730 1145 708 1129 q 765 1169 751 1161 q 793 1181 779 1182 q 815 1167 807 1179 q 856 1128 832 1153 q 901 1083 881 1104 q 928 1054 922 1061 q 934 1026 936 1042 q 922 999 932 1010 q 896 992 911 989 q 861 1018 881 996 q 830 1051 851 1029 q 788 1090 808 1072 q 750 1065 771 1081 q 711 1035 729 1050 q 683 1013 693 1021 z "},"Ȅ":{"ha":761,"x_min":107,"x_max":893,"o":"m 324 -40 q 244 -12 281 -37 q 172 38 208 13 q 135 88 149 61 q 113 160 121 115 q 113 228 107 186 q 131 311 118 269 q 154 378 143 353 q 197 462 171 417 q 248 548 222 507 q 289 614 274 589 q 298 624 299 624 q 297 625 297 625 q 312 660 297 632 q 338 711 326 689 q 361 747 358 733 q 357 769 364 761 q 367 790 354 775 q 406 825 381 806 q 464 863 432 844 q 528 891 497 889 q 565 878 560 893 q 581 876 565 874 q 619 883 597 878 q 657 890 640 888 q 690 903 664 899 q 750 913 715 908 q 787 912 768 911 q 819 914 806 913 q 833 915 833 915 q 858 910 843 918 q 885 876 874 901 q 875 837 894 851 q 799 815 856 822 q 728 806 757 810 q 669 798 700 803 q 590 782 639 793 q 533 768 556 775 q 493 745 510 761 q 456 697 476 729 q 431 661 446 690 q 400 603 415 632 q 336 514 361 549 q 317 472 311 479 q 333 468 317 472 q 356 464 350 464 q 390 474 369 471 q 422 479 410 476 q 555 513 508 501 q 624 531 601 525 q 661 538 647 536 q 699 540 681 553 q 729 506 718 528 q 729 474 736 486 q 692 451 722 461 q 606 426 663 440 q 458 386 549 411 q 330 360 382 364 q 281 383 278 356 q 259 371 271 389 q 237 322 247 353 q 219 257 226 292 q 209 192 211 222 q 213 147 207 163 q 244 95 224 115 q 311 61 264 75 q 365 57 339 60 q 425 68 392 54 q 549 97 507 82 q 599 118 592 113 q 613 126 610 124 q 624 128 617 128 q 626 128 619 121 q 649 147 633 135 q 694 176 668 165 q 741 189 721 186 q 763 185 761 192 q 758 144 771 171 q 714 88 744 118 q 638 32 683 58 q 478 -23 564 -7 q 324 -40 392 -39 m 628 992 q 607 991 614 985 q 592 1024 600 997 q 569 1062 585 1040 q 538 1106 553 1083 q 515 1147 522 1129 q 514 1175 507 1165 q 546 1203 529 1194 q 574 1204 563 1213 q 600 1174 585 1197 q 630 1122 615 1150 q 655 1071 644 1093 q 665 1044 665 1049 q 660 1028 667 1039 q 644 1008 653 1018 q 628 992 636 997 m 794 993 q 773 991 779 986 q 758 1022 767 996 q 733 1063 749 1040 q 703 1107 718 1085 q 680 1147 688 1129 q 679 1174 672 1165 q 714 1204 699 1197 q 739 1204 729 1211 q 763 1176 749 1199 q 793 1126 778 1154 q 819 1076 808 1099 q 831 1043 829 1053 q 822 1022 832 1039 q 794 993 811 1004 z "},"Ë":{"ha":761,"x_min":107,"x_max":938,"o":"m 324 -40 q 244 -12 281 -37 q 172 38 208 13 q 135 88 149 61 q 113 160 121 115 q 113 228 107 186 q 131 311 118 269 q 154 378 143 353 q 197 462 171 417 q 248 548 222 507 q 289 614 274 589 q 298 624 299 624 q 297 625 297 625 q 312 660 297 632 q 338 711 326 689 q 361 747 358 733 q 357 769 364 761 q 367 790 354 775 q 406 825 381 806 q 464 863 432 844 q 528 891 497 889 q 565 878 560 893 q 581 876 565 874 q 619 883 597 878 q 657 890 640 888 q 690 903 664 899 q 750 913 715 908 q 787 912 768 911 q 819 914 806 913 q 833 915 833 915 q 858 910 843 918 q 885 876 874 901 q 875 837 894 851 q 799 815 856 822 q 728 806 757 810 q 669 798 700 803 q 590 782 639 793 q 533 768 556 775 q 493 745 510 761 q 456 697 476 729 q 431 661 446 690 q 400 603 415 632 q 336 514 361 549 q 317 472 311 479 q 333 468 317 472 q 356 464 350 464 q 390 474 369 471 q 422 479 410 476 q 555 513 508 501 q 624 531 601 525 q 661 538 647 536 q 699 540 681 553 q 729 506 718 528 q 729 474 736 486 q 692 451 722 461 q 606 426 663 440 q 458 386 549 411 q 330 360 382 364 q 281 383 278 356 q 259 371 271 389 q 237 322 247 353 q 219 257 226 292 q 209 192 211 222 q 213 147 207 163 q 244 95 224 115 q 311 61 264 75 q 365 57 339 60 q 425 68 392 54 q 549 97 507 82 q 599 118 592 113 q 613 126 610 124 q 624 128 617 128 q 626 128 619 121 q 649 147 633 135 q 694 176 668 165 q 741 189 721 186 q 763 185 761 192 q 758 144 771 171 q 714 88 744 118 q 638 32 683 58 q 478 -23 564 -7 q 324 -40 392 -39 m 828 1040 q 812 1067 818 1050 q 807 1089 806 1083 q 817 1117 810 1096 q 833 1144 825 1138 q 847 1160 839 1150 q 861 1171 856 1169 q 895 1176 878 1185 q 921 1146 913 1168 q 931 1102 938 1122 q 904 1057 925 1082 q 862 1023 881 1024 q 828 1040 843 1022 m 642 1035 q 622 1064 629 1046 q 615 1089 614 1082 q 628 1122 618 1100 q 649 1153 639 1144 q 659 1163 653 1156 q 671 1171 665 1169 q 697 1177 685 1181 q 719 1163 710 1174 q 733 1138 729 1153 q 740 1101 744 1118 q 715 1060 735 1083 q 675 1025 693 1031 q 642 1035 657 1019 z "},"Ė":{"ha":761,"x_min":107,"x_max":893,"o":"m 324 -40 q 244 -12 281 -37 q 172 38 208 13 q 135 88 149 61 q 113 160 121 115 q 113 228 107 186 q 131 311 118 269 q 154 378 143 353 q 197 462 171 417 q 248 548 222 507 q 289 614 274 589 q 298 624 299 624 q 297 625 297 625 q 312 660 297 632 q 338 711 326 689 q 361 747 358 733 q 357 769 364 761 q 367 790 354 775 q 406 825 381 806 q 464 863 432 844 q 528 891 497 889 q 565 878 560 893 q 581 876 565 874 q 619 883 597 878 q 657 890 640 888 q 690 903 664 899 q 750 913 715 908 q 787 912 768 911 q 819 914 806 913 q 833 915 833 915 q 858 910 843 918 q 885 876 874 901 q 875 837 894 851 q 799 815 856 822 q 728 806 757 810 q 669 798 700 803 q 590 782 639 793 q 533 768 556 775 q 493 745 510 761 q 456 697 476 729 q 431 661 446 690 q 400 603 415 632 q 336 514 361 549 q 317 472 311 479 q 333 468 317 472 q 356 464 350 464 q 390 474 369 471 q 422 479 410 476 q 555 513 508 501 q 624 531 601 525 q 661 538 647 536 q 699 540 681 553 q 729 506 718 528 q 729 474 736 486 q 692 451 722 461 q 606 426 663 440 q 458 386 549 411 q 330 360 382 364 q 281 383 278 356 q 259 371 271 389 q 237 322 247 353 q 219 257 226 292 q 209 192 211 222 q 213 147 207 163 q 244 95 224 115 q 311 61 264 75 q 365 57 339 60 q 425 68 392 54 q 549 97 507 82 q 599 118 592 113 q 613 126 610 124 q 624 128 617 128 q 626 128 619 121 q 649 147 633 135 q 694 176 668 165 q 741 189 721 186 q 763 185 761 192 q 758 144 771 171 q 714 88 744 118 q 638 32 683 58 q 478 -23 564 -7 q 324 -40 392 -39 m 725 1024 q 708 1053 715 1033 q 703 1082 701 1072 q 715 1113 706 1089 q 743 1154 724 1138 q 752 1163 747 1157 q 763 1171 757 1169 q 796 1176 779 1182 q 831 1147 813 1171 q 840 1096 846 1115 q 807 1044 833 1076 q 767 1011 786 1017 q 725 1024 749 1006 z "},"Ẹ":{"ha":761,"x_min":107,"x_max":893,"o":"m 324 -40 q 244 -12 281 -37 q 172 38 208 13 q 135 88 149 61 q 113 160 121 115 q 113 228 107 186 q 131 311 118 269 q 154 378 143 353 q 197 462 171 417 q 248 548 222 507 q 289 614 274 589 q 298 624 299 624 q 297 625 297 625 q 312 660 297 632 q 338 711 326 689 q 361 747 358 733 q 357 769 364 761 q 367 790 354 775 q 406 825 381 806 q 464 863 432 844 q 528 891 497 889 q 565 878 560 893 q 581 876 565 874 q 619 883 597 878 q 657 890 640 888 q 690 903 664 899 q 750 913 715 908 q 787 912 768 911 q 819 914 806 913 q 833 915 833 915 q 858 910 843 918 q 885 876 874 901 q 875 837 894 851 q 799 815 856 822 q 728 806 757 810 q 669 798 700 803 q 590 782 639 793 q 533 768 556 775 q 493 745 510 761 q 456 697 476 729 q 431 661 446 690 q 400 603 415 632 q 336 514 361 549 q 317 472 311 479 q 333 468 317 472 q 356 464 350 464 q 390 474 369 471 q 422 479 410 476 q 555 513 508 501 q 624 531 601 525 q 661 538 647 536 q 699 540 681 553 q 729 506 718 528 q 729 474 736 486 q 692 451 722 461 q 606 426 663 440 q 458 386 549 411 q 330 360 382 364 q 281 383 278 356 q 259 371 271 389 q 237 322 247 353 q 219 257 226 292 q 209 192 211 222 q 213 147 207 163 q 244 95 224 115 q 311 61 264 75 q 365 57 339 60 q 425 68 392 54 q 549 97 507 82 q 599 118 592 113 q 613 126 610 124 q 624 128 617 128 q 626 128 619 121 q 649 147 633 135 q 694 176 668 165 q 741 189 721 186 q 763 185 761 192 q 758 144 771 171 q 714 88 744 118 q 638 32 683 58 q 478 -23 564 -7 q 324 -40 392 -39 m 308 -222 q 290 -197 296 -210 q 286 -176 285 -183 q 299 -143 290 -164 q 317 -117 308 -122 q 329 -106 324 -111 q 340 -100 335 -101 q 372 -96 357 -89 q 397 -124 388 -103 q 408 -162 411 -146 q 386 -200 404 -178 q 341 -235 358 -232 q 308 -222 324 -239 z "},"È":{"ha":761,"x_min":107,"x_max":893,"o":"m 324 -40 q 244 -12 281 -37 q 172 38 208 13 q 135 88 149 61 q 113 160 121 115 q 113 228 107 186 q 131 311 118 269 q 154 378 143 353 q 197 462 171 417 q 248 548 222 507 q 289 614 274 589 q 298 624 299 624 q 297 625 297 625 q 312 660 297 632 q 338 711 326 689 q 361 747 358 733 q 357 769 364 761 q 367 790 354 775 q 406 825 381 806 q 464 863 432 844 q 528 891 497 889 q 565 878 560 893 q 581 876 565 874 q 619 883 597 878 q 657 890 640 888 q 690 903 664 899 q 750 913 715 908 q 787 912 768 911 q 819 914 806 913 q 833 915 833 915 q 858 910 843 918 q 885 876 874 901 q 875 837 894 851 q 799 815 856 822 q 728 806 757 810 q 669 798 700 803 q 590 782 639 793 q 533 768 556 775 q 493 745 510 761 q 456 697 476 729 q 431 661 446 690 q 400 603 415 632 q 336 514 361 549 q 317 472 311 479 q 333 468 317 472 q 356 464 350 464 q 390 474 369 471 q 422 479 410 476 q 555 513 508 501 q 624 531 601 525 q 661 538 647 536 q 699 540 681 553 q 729 506 718 528 q 729 474 736 486 q 692 451 722 461 q 606 426 663 440 q 458 386 549 411 q 330 360 382 364 q 281 383 278 356 q 259 371 271 389 q 237 322 247 353 q 219 257 226 292 q 209 192 211 222 q 213 147 207 163 q 244 95 224 115 q 311 61 264 75 q 365 57 339 60 q 425 68 392 54 q 549 97 507 82 q 599 118 592 113 q 613 126 610 124 q 624 128 617 128 q 626 128 619 121 q 649 147 633 135 q 694 176 668 165 q 741 189 721 186 q 763 185 761 192 q 758 144 771 171 q 714 88 744 118 q 638 32 683 58 q 478 -23 564 -7 q 324 -40 392 -39 m 793 985 q 775 980 781 976 q 765 995 769 983 q 754 1022 761 1007 q 722 1077 743 1046 q 688 1138 700 1108 q 689 1183 676 1167 q 725 1210 711 1204 q 753 1200 739 1215 q 776 1171 763 1194 q 802 1117 789 1147 q 824 1063 815 1088 q 833 1029 833 1038 q 822 1006 835 1024 q 793 985 808 989 z "},"Ȇ":{"ha":761,"x_min":107,"x_max":903,"o":"m 324 -40 q 244 -12 281 -37 q 172 38 208 13 q 135 88 149 61 q 113 160 121 115 q 113 228 107 186 q 131 311 118 269 q 154 378 143 353 q 197 462 171 417 q 248 548 222 507 q 289 614 274 589 q 298 624 299 624 q 297 625 297 625 q 312 660 297 632 q 338 711 326 689 q 361 747 358 733 q 357 769 364 761 q 367 790 354 775 q 406 825 381 806 q 464 863 432 844 q 528 891 497 889 q 565 878 560 893 q 581 876 565 874 q 619 883 597 878 q 657 890 640 888 q 690 903 664 899 q 750 913 715 908 q 787 912 768 911 q 819 914 806 913 q 833 915 833 915 q 858 910 843 918 q 885 876 874 901 q 875 837 894 851 q 799 815 856 822 q 728 806 757 810 q 669 798 700 803 q 590 782 639 793 q 533 768 556 775 q 493 745 510 761 q 456 697 476 729 q 431 661 446 690 q 400 603 415 632 q 336 514 361 549 q 317 472 311 479 q 333 468 317 472 q 356 464 350 464 q 390 474 369 471 q 422 479 410 476 q 555 513 508 501 q 624 531 601 525 q 661 538 647 536 q 699 540 681 553 q 729 506 718 528 q 729 474 736 486 q 692 451 722 461 q 606 426 663 440 q 458 386 549 411 q 330 360 382 364 q 281 383 278 356 q 259 371 271 389 q 237 322 247 353 q 219 257 226 292 q 209 192 211 222 q 213 147 207 163 q 244 95 224 115 q 311 61 264 75 q 365 57 339 60 q 425 68 392 54 q 549 97 507 82 q 599 118 592 113 q 613 126 610 124 q 624 128 617 128 q 626 128 619 121 q 649 147 633 135 q 694 176 668 165 q 741 189 721 186 q 763 185 761 192 q 758 144 771 171 q 714 88 744 118 q 638 32 683 58 q 478 -23 564 -7 q 324 -40 392 -39 m 817 1018 q 820 1057 821 1035 q 804 1095 819 1079 q 749 1110 789 1111 q 710 1096 731 1111 q 672 1059 690 1081 q 642 1015 654 1038 q 606 981 622 982 q 581 999 589 981 q 574 1038 572 1017 q 597 1080 581 1054 q 640 1131 614 1106 q 697 1171 665 1156 q 764 1183 729 1186 q 846 1157 814 1179 q 890 1101 878 1135 q 894 1028 903 1068 q 865 977 886 989 q 827 976 843 965 q 817 1018 811 988 z "},"Ē":{"ha":761,"x_min":107,"x_max":944,"o":"m 324 -40 q 244 -12 281 -37 q 172 38 208 13 q 135 88 149 61 q 113 160 121 115 q 113 228 107 186 q 131 311 118 269 q 154 378 143 353 q 197 462 171 417 q 248 548 222 507 q 289 614 274 589 q 298 624 299 624 q 297 625 297 625 q 312 660 297 632 q 338 711 326 689 q 361 747 358 733 q 357 769 364 761 q 367 790 354 775 q 406 825 381 806 q 464 863 432 844 q 528 891 497 889 q 565 878 560 893 q 581 876 565 874 q 619 883 597 878 q 657 890 640 888 q 690 903 664 899 q 750 913 715 908 q 787 912 768 911 q 819 914 806 913 q 833 915 833 915 q 858 910 843 918 q 885 876 874 901 q 875 837 894 851 q 799 815 856 822 q 728 806 757 810 q 669 798 700 803 q 590 782 639 793 q 533 768 556 775 q 493 745 510 761 q 456 697 476 729 q 431 661 446 690 q 400 603 415 632 q 336 514 361 549 q 317 472 311 479 q 333 468 317 472 q 356 464 350 464 q 390 474 369 471 q 422 479 410 476 q 555 513 508 501 q 624 531 601 525 q 661 538 647 536 q 699 540 681 553 q 729 506 718 528 q 729 474 736 486 q 692 451 722 461 q 606 426 663 440 q 458 386 549 411 q 330 360 382 364 q 281 383 278 356 q 259 371 271 389 q 237 322 247 353 q 219 257 226 292 q 209 192 211 222 q 213 147 207 163 q 244 95 224 115 q 311 61 264 75 q 365 57 339 60 q 425 68 392 54 q 549 97 507 82 q 599 118 592 113 q 613 126 610 124 q 624 128 617 128 q 626 128 619 121 q 649 147 633 135 q 694 176 668 165 q 741 189 721 186 q 763 185 761 192 q 758 144 771 171 q 714 88 744 118 q 638 32 683 58 q 478 -23 564 -7 q 324 -40 392 -39 m 665 1057 q 642 1058 656 1057 q 617 1064 629 1060 q 588 1068 596 1064 q 574 1085 581 1072 q 574 1114 561 1106 q 635 1128 588 1122 q 727 1140 681 1135 q 824 1144 774 1144 q 885 1140 858 1144 q 926 1124 911 1136 q 940 1085 944 1104 q 906 1068 935 1067 q 877 1067 897 1068 q 834 1065 857 1065 q 794 1064 811 1064 q 764 1061 785 1063 q 717 1058 743 1060 q 665 1057 690 1057 z "},"Ę":{"ha":761,"x_min":107,"x_max":893,"o":"m 324 -40 q 244 -12 281 -37 q 172 38 208 13 q 135 88 149 61 q 113 160 121 115 q 113 228 107 186 q 131 311 118 269 q 154 378 143 353 q 197 462 171 417 q 248 548 222 507 q 289 614 274 589 q 298 624 299 624 q 297 625 297 625 q 312 660 297 632 q 338 711 326 689 q 361 747 358 733 q 357 769 364 761 q 367 790 354 775 q 406 825 381 806 q 464 863 432 844 q 528 891 497 889 q 565 878 560 893 q 581 876 565 874 q 619 883 597 878 q 657 890 640 888 q 690 903 664 899 q 750 913 715 908 q 787 912 768 911 q 819 914 806 913 q 833 915 833 915 q 858 910 843 918 q 885 876 874 901 q 875 837 894 851 q 799 815 856 822 q 728 806 757 810 q 669 798 700 803 q 590 782 639 793 q 533 768 556 775 q 493 745 510 761 q 456 697 476 729 q 431 661 446 690 q 400 603 415 632 q 336 514 361 549 q 317 472 311 479 q 333 468 317 472 q 356 464 350 464 q 390 474 369 471 q 422 479 410 476 q 555 513 508 501 q 624 531 601 525 q 661 538 647 536 q 699 540 681 553 q 729 506 718 528 q 729 474 736 486 q 692 451 722 461 q 606 426 663 440 q 458 386 549 411 q 330 360 382 364 q 281 383 278 356 q 259 371 271 389 q 237 322 247 353 q 219 257 226 292 q 209 192 211 222 q 213 147 207 163 q 244 95 224 115 q 311 61 264 75 q 365 57 339 60 q 425 68 392 54 q 549 97 507 82 q 599 118 592 113 q 613 126 610 124 q 624 128 617 128 q 626 128 619 121 q 649 147 633 135 q 694 176 668 165 q 741 189 721 186 q 763 185 761 192 q 758 144 771 171 q 714 88 744 118 q 638 32 683 58 q 478 -23 564 -7 q 324 -40 392 -39 m 511 -233 q 461 -203 483 -225 q 431 -151 439 -182 q 440 -90 424 -121 q 488 -26 457 -58 q 556 36 519 7 q 622 85 592 65 l 675 43 q 602 -10 644 25 q 535 -76 560 -46 q 508 -119 515 -100 q 510 -153 500 -137 q 535 -161 514 -161 q 589 -142 567 -156 q 646 -111 611 -128 q 674 -107 664 -101 q 685 -126 683 -112 q 681 -154 688 -140 q 658 -175 675 -168 q 635 -185 653 -176 q 594 -204 617 -194 q 549 -222 571 -214 q 511 -233 526 -231 z "},"Ẽ":{"ha":761,"x_min":107,"x_max":971,"o":"m 324 -40 q 244 -12 281 -37 q 172 38 208 13 q 135 88 149 61 q 113 160 121 115 q 113 228 107 186 q 131 311 118 269 q 154 378 143 353 q 197 462 171 417 q 248 548 222 507 q 289 614 274 589 q 298 624 299 624 q 297 625 297 625 q 312 660 297 632 q 338 711 326 689 q 361 747 358 733 q 357 769 364 761 q 367 790 354 775 q 406 825 381 806 q 464 863 432 844 q 528 891 497 889 q 565 878 560 893 q 581 876 565 874 q 619 883 597 878 q 657 890 640 888 q 690 903 664 899 q 750 913 715 908 q 787 912 768 911 q 819 914 806 913 q 833 915 833 915 q 858 910 843 918 q 885 876 874 901 q 875 837 894 851 q 799 815 856 822 q 728 806 757 810 q 669 798 700 803 q 590 782 639 793 q 533 768 556 775 q 493 745 510 761 q 456 697 476 729 q 431 661 446 690 q 400 603 415 632 q 336 514 361 549 q 317 472 311 479 q 333 468 317 472 q 356 464 350 464 q 390 474 369 471 q 422 479 410 476 q 555 513 508 501 q 624 531 601 525 q 661 538 647 536 q 699 540 681 553 q 729 506 718 528 q 729 474 736 486 q 692 451 722 461 q 606 426 663 440 q 458 386 549 411 q 330 360 382 364 q 281 383 278 356 q 259 371 271 389 q 237 322 247 353 q 219 257 226 292 q 209 192 211 222 q 213 147 207 163 q 244 95 224 115 q 311 61 264 75 q 365 57 339 60 q 425 68 392 54 q 549 97 507 82 q 599 118 592 113 q 613 126 610 124 q 624 128 617 128 q 626 128 619 121 q 649 147 633 135 q 694 176 668 165 q 741 189 721 186 q 763 185 761 192 q 758 144 771 171 q 714 88 744 118 q 638 32 683 58 q 478 -23 564 -7 q 324 -40 392 -39 m 824 1011 q 780 1022 799 1011 q 735 1051 761 1032 q 702 1078 722 1058 q 665 1099 682 1099 q 642 1088 651 1099 q 625 1065 633 1076 q 601 1050 617 1053 q 594 1033 600 1043 q 582 1029 588 1022 q 560 1044 568 1033 q 550 1067 551 1054 q 576 1117 556 1086 q 640 1169 597 1147 q 694 1169 665 1178 q 744 1139 722 1161 q 794 1101 776 1111 q 838 1101 811 1090 q 881 1122 858 1107 q 933 1149 904 1138 q 952 1146 943 1153 q 966 1128 961 1139 q 969 1108 971 1117 q 958 1085 968 1100 q 936 1064 949 1071 q 872 1029 894 1040 q 839 1015 849 1018 q 824 1011 829 1011 z "},"F":{"ha":636,"x_min":108,"x_max":906,"o":"m 714 432 q 681 417 708 424 q 593 404 654 411 q 540 401 575 403 q 465 399 506 400 q 392 398 425 397 q 347 401 360 399 q 341 394 347 401 q 335 376 335 388 q 311 326 325 360 q 280 251 297 292 q 249 169 263 210 q 225 99 235 129 q 215 58 215 69 q 200 1 203 25 q 190 -26 197 -22 q 169 -35 188 -37 q 140 -21 151 -33 q 114 8 119 -7 q 118 53 108 22 q 133 106 122 71 q 156 185 143 142 q 184 269 169 228 q 213 336 199 310 q 232 384 228 363 q 243 424 236 406 q 243 444 242 439 q 254 461 244 450 q 272 481 261 467 q 296 526 282 496 q 309 565 300 540 q 326 615 318 589 q 342 658 335 640 q 349 678 349 676 q 357 699 351 683 q 365 725 363 715 q 374 757 371 744 q 372 769 378 769 q 328 765 361 767 q 303 762 311 763 q 290 760 296 761 q 265 763 276 758 q 254 779 254 767 q 270 819 257 801 q 304 839 283 838 q 326 844 314 842 q 358 851 338 846 q 401 858 385 857 q 426 857 418 860 q 439 866 433 861 q 444 876 444 871 q 457 896 447 889 q 479 903 467 903 q 502 899 492 904 q 513 879 513 893 q 522 872 515 875 q 553 873 529 869 q 624 886 576 876 q 687 892 649 889 q 747 888 725 894 q 790 891 771 892 q 815 896 808 890 q 858 888 844 890 q 879 879 871 886 q 883 869 885 874 q 881 864 881 864 q 881 864 875 867 q 892 857 888 861 q 903 844 901 853 q 905 828 906 836 q 903 815 904 819 q 889 801 901 803 q 826 800 876 799 q 711 806 767 808 q 579 793 656 804 q 530 785 551 792 q 506 779 508 779 q 486 760 500 779 q 460 706 472 742 q 441 663 454 696 q 413 590 428 629 q 385 522 397 551 q 371 490 374 493 q 433 485 390 485 q 528 488 476 485 q 625 496 581 492 q 669 503 646 500 q 699 504 692 507 q 715 487 708 501 q 722 456 722 472 q 714 432 722 440 z "},"G":{"ha":679,"x_min":153,"x_max":821,"o":"m 232 -50 q 174 22 194 -25 q 154 113 153 68 q 169 288 153 199 q 211 460 185 378 q 251 563 229 510 q 294 662 272 615 q 335 738 317 708 q 425 856 378 810 q 496 915 472 901 q 571 940 521 929 q 672 939 621 951 q 741 914 708 929 q 789 883 774 899 q 810 855 801 868 q 819 825 819 842 q 808 794 821 811 q 779 769 796 776 q 750 776 763 763 q 713 816 732 804 q 674 838 694 828 q 632 848 658 847 q 578 841 606 849 q 526 815 550 833 q 494 783 514 804 q 453 735 474 761 q 419 681 433 708 q 352 551 381 617 q 303 407 324 485 q 286 342 296 383 q 267 261 276 301 q 256 194 258 221 q 253 89 249 132 q 286 30 257 46 q 378 33 315 14 q 448 61 411 39 q 519 117 485 83 q 581 193 554 151 q 622 281 604 239 q 642 348 640 322 q 615 372 643 374 q 530 376 563 376 q 476 392 497 376 q 465 422 464 403 q 485 457 465 442 q 540 468 503 465 q 620 466 578 471 q 693 446 663 461 q 730 409 719 433 q 740 355 740 385 q 735 296 740 325 q 703 216 726 260 q 647 125 681 172 q 590 62 626 96 q 515 1 554 28 q 447 -37 476 -26 q 333 -72 392 -62 q 232 -50 274 -81 z "},"Ǵ":{"ha":692,"x_min":151,"x_max":849,"o":"m 231 -50 q 172 22 193 -25 q 153 113 151 68 q 167 288 151 199 q 210 460 183 378 q 249 563 228 510 q 293 662 271 615 q 333 738 315 708 q 424 856 376 810 q 494 915 471 901 q 569 940 519 929 q 671 939 619 951 q 740 914 707 929 q 788 883 772 899 q 809 855 800 868 q 818 825 818 842 q 807 794 819 811 q 778 769 794 776 q 749 776 761 763 q 712 816 731 804 q 672 838 693 828 q 631 848 657 847 q 576 841 604 849 q 525 815 549 833 q 492 783 513 804 q 452 735 472 761 q 418 681 432 708 q 351 551 379 617 q 301 407 322 485 q 285 342 294 383 q 266 261 275 301 q 254 194 257 221 q 251 89 247 132 q 285 30 256 46 q 376 33 314 14 q 447 61 410 39 q 518 117 483 83 q 579 193 553 151 q 621 281 603 239 q 640 348 639 322 q 614 372 642 374 q 528 376 561 376 q 475 392 496 376 q 463 422 463 403 q 483 457 464 442 q 539 468 501 465 q 619 466 576 471 q 692 446 661 461 q 728 409 718 433 q 739 355 739 385 q 733 296 739 325 q 702 216 725 260 q 646 125 679 172 q 589 62 625 96 q 514 1 553 28 q 446 -37 475 -26 q 331 -72 390 -62 q 231 -50 272 -81 m 664 992 q 649 1019 654 1001 q 646 1053 644 1038 q 665 1081 647 1060 q 706 1126 682 1101 q 752 1172 729 1151 q 786 1196 775 1192 q 819 1190 803 1206 q 844 1149 835 1174 q 833 1119 849 1136 q 794 1082 818 1101 q 749 1044 771 1063 q 715 1010 726 1025 q 691 984 701 988 q 664 992 681 981 z "},"Ğ":{"ha":692,"x_min":151,"x_max":903,"o":"m 231 -50 q 172 22 193 -25 q 153 113 151 68 q 167 288 151 199 q 210 460 183 378 q 249 563 228 510 q 293 662 271 615 q 333 738 315 708 q 424 856 376 810 q 494 915 471 901 q 569 940 519 929 q 671 939 619 951 q 740 914 707 929 q 788 883 772 899 q 809 855 800 868 q 818 825 818 842 q 807 794 819 811 q 778 769 794 776 q 749 776 761 763 q 712 816 731 804 q 672 838 693 828 q 631 848 657 847 q 576 841 604 849 q 525 815 549 833 q 492 783 513 804 q 452 735 472 761 q 418 681 432 708 q 351 551 379 617 q 301 407 322 485 q 285 342 294 383 q 266 261 275 301 q 254 194 257 221 q 251 89 247 132 q 285 30 256 46 q 376 33 314 14 q 447 61 410 39 q 518 117 483 83 q 579 193 553 151 q 621 281 603 239 q 640 348 639 322 q 614 372 642 374 q 528 376 561 376 q 475 392 496 376 q 463 422 463 403 q 483 457 464 442 q 539 468 501 465 q 619 466 576 471 q 692 446 661 461 q 728 409 718 433 q 739 355 739 385 q 733 296 739 325 q 702 216 725 260 q 646 125 679 172 q 589 62 625 96 q 514 1 553 28 q 446 -37 475 -26 q 331 -72 390 -62 q 231 -50 272 -81 m 711 974 q 634 997 667 978 q 588 1049 601 1015 q 582 1128 574 1082 q 602 1171 588 1157 q 631 1185 617 1185 q 655 1172 646 1185 q 657 1136 664 1160 q 655 1099 653 1121 q 674 1061 657 1076 q 732 1047 690 1046 q 769 1063 750 1049 q 803 1099 788 1078 q 826 1133 818 1119 q 859 1172 844 1164 q 884 1171 874 1179 q 899 1147 894 1163 q 900 1119 903 1132 q 879 1076 894 1101 q 839 1026 864 1050 q 781 986 814 1001 q 711 974 749 971 z "},"Ĝ":{"ha":692,"x_min":151,"x_max":818,"o":"m 231 -50 q 172 22 193 -25 q 153 113 151 68 q 167 288 151 199 q 210 460 183 378 q 249 563 228 510 q 293 662 271 615 q 333 738 315 708 q 424 856 376 810 q 494 915 471 901 q 569 940 519 929 q 671 939 619 951 q 740 914 707 929 q 788 883 772 899 q 809 855 800 868 q 818 825 818 842 q 807 794 819 811 q 778 769 794 776 q 749 776 761 763 q 712 816 731 804 q 672 838 693 828 q 631 848 657 847 q 576 841 604 849 q 525 815 549 833 q 492 783 513 804 q 452 735 472 761 q 418 681 432 708 q 351 551 379 617 q 301 407 322 485 q 285 342 294 383 q 266 261 275 301 q 254 194 257 221 q 251 89 247 132 q 285 30 256 46 q 376 33 314 14 q 447 61 410 39 q 518 117 483 83 q 579 193 553 151 q 621 281 603 239 q 640 348 639 322 q 614 372 642 374 q 528 376 561 376 q 475 392 496 376 q 463 422 463 403 q 483 457 464 442 q 539 468 501 465 q 619 466 576 471 q 692 446 661 461 q 728 409 718 433 q 739 355 739 385 q 733 296 739 325 q 702 216 725 260 q 646 125 679 172 q 589 62 625 96 q 514 1 553 28 q 446 -37 475 -26 q 331 -72 390 -62 q 231 -50 272 -81 m 554 1013 q 513 994 531 989 q 491 1018 496 999 q 500 1057 486 1038 q 520 1077 504 1063 q 558 1110 536 1092 q 601 1145 579 1129 q 636 1169 622 1161 q 664 1181 650 1182 q 686 1167 678 1179 q 727 1128 703 1153 q 772 1083 751 1104 q 799 1054 793 1061 q 805 1026 807 1042 q 792 999 803 1010 q 767 992 782 989 q 732 1018 751 996 q 701 1051 722 1029 q 658 1090 679 1072 q 621 1065 642 1081 q 582 1035 600 1050 q 554 1013 564 1021 z "},"Ģ":{"ha":692,"x_min":151,"x_max":818,"o":"m 231 -50 q 172 22 193 -25 q 153 113 151 68 q 167 288 151 199 q 210 460 183 378 q 249 563 228 510 q 293 662 271 615 q 333 738 315 708 q 424 856 376 810 q 494 915 471 901 q 569 940 519 929 q 671 939 619 951 q 740 914 707 929 q 788 883 772 899 q 809 855 800 868 q 818 825 818 842 q 807 794 819 811 q 778 769 794 776 q 749 776 761 763 q 712 816 731 804 q 672 838 693 828 q 631 848 657 847 q 576 841 604 849 q 525 815 549 833 q 492 783 513 804 q 452 735 472 761 q 418 681 432 708 q 351 551 379 617 q 301 407 322 485 q 285 342 294 383 q 266 261 275 301 q 254 194 257 221 q 251 89 247 132 q 285 30 256 46 q 376 33 314 14 q 447 61 410 39 q 518 117 483 83 q 579 193 553 151 q 621 281 603 239 q 640 348 639 322 q 614 372 642 374 q 528 376 561 376 q 475 392 496 376 q 463 422 463 403 q 483 457 464 442 q 539 468 501 465 q 619 466 576 471 q 692 446 661 461 q 728 409 718 433 q 739 355 739 385 q 733 296 739 325 q 702 216 725 260 q 646 125 679 172 q 589 62 625 96 q 514 1 553 28 q 446 -37 475 -26 q 331 -72 390 -62 q 231 -50 272 -81 m 215 -329 q 195 -326 201 -329 q 185 -317 189 -324 q 204 -290 185 -307 q 251 -235 229 -267 q 275 -178 272 -204 q 291 -129 274 -144 q 338 -131 308 -114 q 347 -168 344 -150 q 338 -224 349 -186 q 327 -245 336 -231 q 308 -274 318 -260 q 292 -292 297 -287 q 281 -301 289 -294 q 267 -312 274 -307 q 256 -321 260 -318 q 248 -324 251 -322 q 238 -328 244 -326 q 215 -329 231 -329 z "},"Ġ":{"ha":692,"x_min":151,"x_max":818,"o":"m 231 -50 q 172 22 193 -25 q 153 113 151 68 q 167 288 151 199 q 210 460 183 378 q 249 563 228 510 q 293 662 271 615 q 333 738 315 708 q 424 856 376 810 q 494 915 471 901 q 569 940 519 929 q 671 939 619 951 q 740 914 707 929 q 788 883 772 899 q 809 855 800 868 q 818 825 818 842 q 807 794 819 811 q 778 769 794 776 q 749 776 761 763 q 712 816 731 804 q 672 838 693 828 q 631 848 657 847 q 576 841 604 849 q 525 815 549 833 q 492 783 513 804 q 452 735 472 761 q 418 681 432 708 q 351 551 379 617 q 301 407 322 485 q 285 342 294 383 q 266 261 275 301 q 254 194 257 221 q 251 89 247 132 q 285 30 256 46 q 376 33 314 14 q 447 61 410 39 q 518 117 483 83 q 579 193 553 151 q 621 281 603 239 q 640 348 639 322 q 614 372 642 374 q 528 376 561 376 q 475 392 496 376 q 463 422 463 403 q 483 457 464 442 q 539 468 501 465 q 619 466 576 471 q 692 446 661 461 q 728 409 718 433 q 739 355 739 385 q 733 296 739 325 q 702 216 725 260 q 646 125 679 172 q 589 62 625 96 q 514 1 553 28 q 446 -37 475 -26 q 331 -72 390 -62 q 231 -50 272 -81 m 689 1024 q 672 1053 679 1033 q 667 1082 665 1072 q 678 1113 669 1089 q 707 1154 688 1138 q 716 1163 711 1157 q 726 1171 721 1169 q 760 1176 743 1182 q 794 1147 776 1171 q 803 1096 810 1115 q 771 1044 797 1076 q 731 1011 750 1017 q 689 1024 713 1006 z "},"H":{"ha":788,"x_min":107,"x_max":1007,"o":"m 192 -119 q 184 -116 192 -119 q 167 -110 176 -112 q 149 -108 157 -108 q 117 -84 126 -103 q 113 -43 107 -65 q 121 -19 118 -37 q 124 10 124 -1 q 131 26 129 21 q 138 53 132 31 q 152 119 142 76 q 176 210 163 161 q 201 303 189 258 q 224 378 214 347 q 239 413 235 408 q 239 417 239 413 q 239 428 239 422 q 241 441 239 428 q 254 471 243 454 q 264 504 260 486 q 268 528 268 522 q 284 562 274 535 q 304 615 294 589 q 323 663 313 638 q 341 706 333 688 q 349 724 349 724 q 349 730 349 729 q 349 731 349 731 q 376 787 354 736 q 435 918 397 838 q 450 947 440 929 q 460 969 460 964 q 486 981 471 983 q 515 967 501 979 q 536 940 529 956 l 550 918 l 500 818 q 463 747 478 779 q 447 710 447 715 q 440 690 447 710 q 422 640 432 669 q 403 586 411 611 q 374 515 388 543 q 361 482 361 488 q 391 486 361 485 q 467 488 421 488 q 560 488 513 488 q 646 490 608 489 q 697 493 683 490 l 769 500 l 814 636 q 843 731 825 675 q 875 825 861 786 q 914 908 897 889 q 947 926 931 926 q 960 922 951 926 q 978 912 969 918 q 990 897 988 906 q 1006 863 1007 882 q 983 811 1006 843 q 947 730 961 774 q 921 658 932 686 q 917 631 921 642 q 907 615 913 621 q 896 594 904 613 q 881 558 888 576 q 874 536 874 540 q 869 513 874 526 q 860 493 865 499 q 847 451 857 485 q 825 373 838 418 q 799 285 813 328 q 774 215 785 243 q 767 191 774 206 q 760 165 760 176 q 746 124 754 149 q 738 92 738 99 q 723 24 731 60 q 710 -40 715 -12 q 706 -71 706 -67 q 677 -68 690 -75 q 649 -56 664 -61 q 617 -21 622 -40 q 628 31 613 -1 q 645 85 635 42 q 667 172 656 129 q 685 227 675 193 q 703 297 694 261 q 719 356 713 332 q 729 383 726 381 q 729 393 729 389 q 729 397 729 397 q 697 402 726 400 q 624 403 668 404 q 531 401 579 403 q 442 393 482 399 q 404 393 426 393 q 371 393 382 393 q 345 393 356 393 q 335 393 335 393 q 324 365 332 389 q 306 306 317 340 q 283 235 294 271 q 265 169 272 199 q 254 126 257 139 q 240 64 249 101 q 220 -13 231 26 q 202 -82 210 -53 q 192 -119 194 -111 z "},"Ħ":{"ha":783,"x_min":106,"x_max":1036,"o":"m 913 664 q 865 665 908 664 q 756 667 822 665 q 614 670 689 668 q 469 674 539 672 q 351 676 400 675 q 290 676 303 676 q 270 677 282 676 q 246 682 258 678 q 218 685 225 682 q 206 699 211 689 q 204 727 193 719 q 263 740 215 735 q 329 744 278 743 q 451 744 381 744 q 601 742 522 743 q 751 740 679 742 q 876 738 824 739 q 946 738 928 738 q 990 735 978 738 q 1018 721 1003 732 q 1031 683 1036 700 q 996 668 1026 665 q 962 665 986 667 q 913 664 938 664 m 189 -119 q 182 -116 189 -119 q 165 -110 175 -112 q 147 -108 156 -108 q 115 -84 125 -103 q 111 -43 106 -65 q 119 -19 117 -37 q 122 10 122 -1 q 129 26 128 21 q 136 53 131 31 q 151 119 140 76 q 174 210 161 161 q 200 303 188 258 q 223 378 213 347 q 238 413 233 408 q 238 417 238 413 q 238 428 238 422 q 240 441 238 428 q 253 471 242 454 q 263 504 258 486 q 267 528 267 522 q 283 562 272 535 q 303 615 293 589 q 322 663 311 638 q 340 706 332 688 q 347 724 347 724 q 347 730 347 729 q 347 731 347 731 q 374 787 353 736 q 433 918 396 838 q 448 947 439 929 q 457 969 457 964 q 484 981 469 983 q 513 967 499 979 q 535 940 528 956 l 549 918 l 497 818 q 460 747 475 779 q 446 710 446 715 q 438 690 446 710 q 420 640 431 669 q 401 586 410 611 q 373 515 386 543 q 360 482 360 488 q 390 486 360 485 q 465 488 419 488 q 559 488 511 488 q 644 490 607 489 q 696 493 682 490 l 768 500 l 813 636 q 842 731 824 675 q 874 825 860 786 q 913 908 896 889 q 946 926 929 926 q 959 922 950 926 q 977 912 968 918 q 989 897 986 906 q 1005 863 1006 882 q 982 811 1004 843 q 945 730 960 774 q 919 658 931 686 q 915 631 919 642 q 906 615 911 621 q 894 594 903 613 q 879 558 886 576 q 872 536 872 540 q 868 513 872 526 q 858 493 864 499 q 846 451 856 485 q 824 373 836 418 q 797 285 811 328 q 772 215 783 243 q 765 191 772 206 q 758 165 758 176 q 744 124 753 149 q 736 92 736 99 q 722 24 729 60 q 709 -40 714 -12 q 704 -71 704 -67 q 675 -68 689 -75 q 646 -56 661 -61 q 615 -21 619 -40 q 625 31 610 -1 q 642 85 632 42 q 664 172 653 129 q 682 227 672 193 q 701 297 692 261 q 718 356 711 332 q 728 383 725 381 q 728 393 728 389 q 728 397 728 397 q 695 402 725 400 q 622 403 665 404 q 529 401 578 403 q 440 393 481 399 q 402 393 425 393 q 368 393 379 393 q 342 393 353 393 q 332 393 332 393 q 322 365 331 389 q 303 306 314 340 q 281 235 293 271 q 262 169 269 199 q 251 126 254 139 q 237 64 246 101 q 217 -13 228 26 q 199 -82 207 -53 q 189 -119 192 -111 z "},"Ĥ":{"ha":783,"x_min":106,"x_max":1006,"o":"m 190 -119 q 183 -116 190 -119 q 165 -110 175 -112 q 147 -108 156 -108 q 115 -84 125 -103 q 111 -43 106 -65 q 119 -19 117 -37 q 122 10 122 -1 q 129 26 128 21 q 136 53 131 31 q 151 119 140 76 q 174 210 161 161 q 200 303 188 258 q 223 378 213 347 q 238 413 233 408 q 238 417 238 413 q 238 428 238 422 q 240 441 238 428 q 253 471 242 454 q 263 504 258 486 q 267 528 267 522 q 283 562 272 535 q 303 615 293 589 q 322 663 311 638 q 340 706 332 688 q 347 724 347 724 q 347 730 347 729 q 347 731 347 731 q 374 787 353 736 q 433 918 396 838 q 449 947 439 929 q 458 969 458 964 q 485 981 469 983 q 514 967 500 979 q 535 940 528 956 l 549 918 l 499 818 q 461 747 476 779 q 446 710 446 715 q 438 690 446 710 q 420 640 431 669 q 401 586 410 611 q 373 515 386 543 q 360 482 360 488 q 390 486 360 485 q 465 488 419 488 q 559 488 511 488 q 644 490 607 489 q 696 493 682 490 l 768 500 l 813 636 q 842 731 824 675 q 874 825 860 786 q 913 908 896 889 q 946 926 929 926 q 959 922 950 926 q 977 912 968 918 q 989 897 986 906 q 1005 863 1006 882 q 982 811 1004 843 q 945 730 960 774 q 919 658 931 686 q 915 631 919 642 q 906 615 911 621 q 894 594 903 613 q 879 558 886 576 q 872 536 872 540 q 868 513 872 526 q 858 493 864 499 q 846 451 856 485 q 824 373 836 418 q 797 285 811 328 q 772 215 783 243 q 765 191 772 206 q 758 165 758 176 q 744 124 753 149 q 736 92 736 99 q 722 24 729 60 q 709 -40 714 -12 q 704 -71 704 -67 q 676 -68 689 -75 q 647 -56 663 -61 q 616 -21 621 -40 q 626 31 611 -1 q 644 85 633 42 q 665 172 654 129 q 683 227 674 193 q 702 297 693 261 q 718 356 711 332 q 728 383 725 381 q 728 393 728 389 q 728 397 728 397 q 696 402 725 400 q 622 403 667 404 q 529 401 578 403 q 440 393 481 399 q 403 393 425 393 q 369 393 381 393 q 344 393 354 393 q 333 393 333 393 q 323 365 331 389 q 304 306 315 340 q 282 235 293 271 q 263 169 271 199 q 253 126 256 139 q 238 64 247 101 q 219 -13 229 26 q 201 -82 208 -53 q 190 -119 193 -111 m 694 1013 q 653 994 671 989 q 631 1018 636 999 q 640 1057 626 1038 q 660 1077 644 1063 q 698 1110 676 1092 q 741 1145 719 1129 q 776 1169 763 1161 q 804 1181 790 1182 q 826 1167 818 1179 q 867 1128 843 1153 q 913 1083 892 1104 q 939 1054 933 1061 q 945 1026 947 1042 q 933 999 943 1010 q 907 992 922 989 q 872 1018 892 996 q 841 1051 863 1029 q 799 1090 819 1072 q 761 1065 782 1081 q 722 1035 740 1050 q 694 1013 704 1021 z "},"Ḥ":{"ha":783,"x_min":106,"x_max":1006,"o":"m 190 -119 q 183 -116 190 -119 q 165 -110 175 -112 q 147 -108 156 -108 q 115 -84 125 -103 q 111 -43 106 -65 q 119 -19 117 -37 q 122 10 122 -1 q 129 26 128 21 q 136 53 131 31 q 151 119 140 76 q 174 210 161 161 q 200 303 188 258 q 223 378 213 347 q 238 413 233 408 q 238 417 238 413 q 238 428 238 422 q 240 441 238 428 q 253 471 242 454 q 263 504 258 486 q 267 528 267 522 q 283 562 272 535 q 303 615 293 589 q 322 663 311 638 q 340 706 332 688 q 347 724 347 724 q 347 730 347 729 q 347 731 347 731 q 374 787 353 736 q 433 918 396 838 q 449 947 439 929 q 458 969 458 964 q 485 981 469 983 q 514 967 500 979 q 535 940 528 956 l 549 918 l 499 818 q 461 747 476 779 q 446 710 446 715 q 438 690 446 710 q 420 640 431 669 q 401 586 410 611 q 373 515 386 543 q 360 482 360 488 q 390 486 360 485 q 465 488 419 488 q 559 488 511 488 q 644 490 607 489 q 696 493 682 490 l 768 500 l 813 636 q 842 731 824 675 q 874 825 860 786 q 913 908 896 889 q 946 926 929 926 q 959 922 950 926 q 977 912 968 918 q 989 897 986 906 q 1005 863 1006 882 q 982 811 1004 843 q 945 730 960 774 q 919 658 931 686 q 915 631 919 642 q 906 615 911 621 q 894 594 903 613 q 879 558 886 576 q 872 536 872 540 q 868 513 872 526 q 858 493 864 499 q 846 451 856 485 q 824 373 836 418 q 797 285 811 328 q 772 215 783 243 q 765 191 772 206 q 758 165 758 176 q 744 124 753 149 q 736 92 736 99 q 722 24 729 60 q 709 -40 714 -12 q 704 -71 704 -67 q 676 -68 689 -75 q 647 -56 663 -61 q 616 -21 621 -40 q 626 31 611 -1 q 644 85 633 42 q 665 172 654 129 q 683 227 674 193 q 702 297 693 261 q 718 356 711 332 q 728 383 725 381 q 728 393 728 389 q 728 397 728 397 q 696 402 725 400 q 622 403 667 404 q 529 401 578 403 q 440 393 481 399 q 403 393 425 393 q 369 393 381 393 q 344 393 354 393 q 333 393 333 393 q 323 365 331 389 q 304 306 315 340 q 282 235 293 271 q 263 169 271 199 q 253 126 256 139 q 238 64 247 101 q 219 -13 229 26 q 201 -82 208 -53 q 190 -119 193 -111 m 329 -235 q 311 -209 317 -222 q 307 -189 306 -196 q 320 -156 311 -176 q 338 -129 329 -135 q 350 -119 344 -124 q 361 -112 356 -114 q 393 -108 378 -101 q 418 -136 408 -115 q 428 -174 432 -158 q 407 -212 425 -190 q 362 -248 379 -244 q 329 -235 344 -251 z "},"I":{"ha":560,"x_min":63,"x_max":844,"o":"m 261 -47 q 221 -28 251 -32 q 142 -26 190 -24 q 103 -24 122 -29 q 74 -9 85 -19 q 65 13 63 1 q 97 42 67 29 q 188 57 128 56 l 256 58 l 269 86 q 282 126 275 101 q 299 182 289 150 q 315 235 304 201 q 339 308 326 269 q 361 376 351 346 q 374 419 371 407 q 389 462 379 432 q 408 523 399 492 q 419 568 417 554 q 467 724 456 678 q 472 771 478 769 q 445 769 467 771 q 399 766 424 768 q 353 761 374 764 q 329 756 333 758 q 306 753 322 746 q 285 775 289 761 q 284 796 283 788 q 292 808 285 804 q 331 827 301 817 q 396 846 360 838 q 464 858 432 854 q 511 869 488 861 q 549 888 535 876 q 573 894 561 892 q 597 896 585 897 q 635 889 608 889 q 693 890 663 889 q 799 892 771 897 q 838 867 828 886 q 838 825 844 840 q 808 811 832 810 q 767 806 796 808 q 701 803 738 804 q 599 783 606 794 q 590 772 593 778 q 581 760 586 767 q 574 725 582 754 q 556 665 567 696 q 539 614 550 647 q 516 545 528 581 q 494 481 504 510 q 481 443 485 453 q 472 416 475 431 q 467 394 468 401 q 433 280 447 326 q 408 198 419 233 q 388 131 397 163 q 367 60 378 99 q 389 62 367 60 q 447 67 411 64 q 540 75 513 74 q 574 72 567 76 q 586 54 582 67 q 590 -1 614 17 q 488 -17 565 -18 q 378 -22 415 -19 q 329 -28 342 -24 q 314 -42 317 -32 q 298 -58 315 -57 q 261 -47 281 -60 z "},"Ĳ":{"ha":1036,"x_min":61,"x_max":1233,"o":"m 260 -47 q 219 -28 250 -32 q 140 -26 189 -24 q 102 -24 121 -29 q 72 -9 83 -19 q 64 13 61 1 q 96 42 65 29 q 186 57 126 56 l 254 58 l 268 86 q 281 126 274 101 q 297 182 288 150 q 314 235 303 201 q 338 308 325 269 q 360 376 350 346 q 372 419 369 407 q 388 462 378 432 q 406 523 397 492 q 418 568 415 554 q 465 724 454 678 q 471 771 476 769 q 444 769 465 771 q 397 766 422 768 q 352 761 372 764 q 328 756 332 758 q 304 753 321 746 q 283 775 288 761 q 283 796 282 788 q 290 808 283 804 q 329 827 300 817 q 394 846 358 838 q 463 858 431 854 q 510 869 486 861 q 547 888 533 876 q 572 894 560 892 q 596 896 583 897 q 634 889 607 889 q 692 890 661 889 q 798 892 769 897 q 836 867 826 886 q 837 825 843 840 q 807 811 831 810 q 765 806 794 808 q 700 803 736 804 q 597 783 604 794 q 588 772 592 778 q 579 760 585 767 q 573 725 581 754 q 554 665 565 696 q 538 614 549 647 q 515 545 526 581 q 493 481 503 510 q 479 443 483 453 q 470 416 474 431 q 465 394 467 401 q 432 280 446 326 q 407 198 418 233 q 386 131 396 163 q 365 60 376 99 q 388 62 365 60 q 446 67 410 64 q 538 75 511 74 q 573 72 565 76 q 585 54 581 67 q 588 -1 613 17 q 486 -17 564 -18 q 377 -22 414 -19 q 328 -28 340 -24 q 313 -42 315 -32 q 297 -58 314 -57 q 260 -47 279 -60 m 733 -262 q 674 -274 707 -275 q 611 -257 642 -272 q 558 -218 581 -242 q 547 -190 549 -207 q 551 -156 546 -174 q 569 -131 558 -131 q 604 -157 585 -131 q 681 -176 643 -192 q 763 -94 719 -161 q 789 -35 771 -74 q 827 49 807 4 q 864 131 847 93 q 886 186 881 169 q 887 191 886 186 q 893 201 888 196 q 900 224 894 207 q 911 263 906 240 q 927 308 917 278 q 949 372 938 339 q 969 428 961 406 q 987 491 976 457 q 1004 543 997 525 q 1021 588 1010 554 q 1046 663 1032 622 q 1077 761 1063 717 q 1100 833 1092 806 q 1106 865 1108 861 q 1081 861 1106 865 q 1028 851 1057 857 q 981 843 1004 842 q 960 854 957 844 q 960 862 960 860 q 960 864 960 864 q 949 867 956 861 q 936 884 942 874 q 931 901 931 894 q 960 924 931 913 q 1032 940 989 935 q 1091 948 1060 944 q 1140 954 1122 951 q 1163 953 1146 958 q 1197 940 1179 947 q 1221 924 1214 932 q 1231 900 1229 913 q 1228 865 1233 888 q 1208 802 1222 843 q 1167 690 1193 761 q 1113 534 1136 604 q 1069 418 1089 464 q 1055 374 1065 403 q 1035 315 1044 344 q 1019 265 1025 285 q 999 208 1008 239 q 983 160 989 178 q 978 135 983 149 q 965 114 972 121 q 956 90 965 114 q 932 32 946 65 q 908 -30 921 4 q 883 -82 894 -64 q 867 -113 876 -99 q 857 -133 857 -128 q 856 -137 857 -133 q 850 -142 856 -142 q 846 -145 850 -142 q 842 -156 842 -149 q 826 -179 839 -164 q 796 -212 813 -194 q 762 -242 779 -229 q 733 -262 744 -256 z "},"Í":{"ha":556,"x_min":61,"x_max":843,"o":"m 260 -47 q 219 -28 250 -32 q 140 -26 189 -24 q 102 -24 121 -29 q 72 -9 83 -19 q 64 13 61 1 q 96 42 65 29 q 186 57 126 56 l 254 58 l 268 86 q 281 126 274 101 q 297 182 288 150 q 314 235 303 201 q 338 308 325 269 q 360 376 350 346 q 372 419 369 407 q 388 462 378 432 q 406 523 397 492 q 418 568 415 554 q 465 724 454 678 q 471 771 476 769 q 444 769 465 771 q 397 766 422 768 q 352 761 372 764 q 328 756 332 758 q 304 753 321 746 q 283 775 288 761 q 283 796 282 788 q 290 808 283 804 q 329 827 300 817 q 394 846 358 838 q 463 858 431 854 q 510 869 486 861 q 547 888 533 876 q 572 894 560 892 q 596 896 583 897 q 634 889 607 889 q 692 890 661 889 q 798 892 769 897 q 836 867 826 886 q 837 825 843 840 q 807 811 831 810 q 765 806 794 808 q 700 803 736 804 q 597 783 604 794 q 588 772 592 778 q 579 760 585 767 q 573 725 581 754 q 554 665 565 696 q 538 614 549 647 q 515 545 526 581 q 493 481 503 510 q 479 443 483 453 q 470 416 474 431 q 465 394 467 401 q 432 280 446 326 q 407 198 418 233 q 386 131 396 163 q 365 60 376 99 q 388 62 365 60 q 446 67 410 64 q 538 75 511 74 q 573 72 565 76 q 585 54 581 67 q 588 -1 613 17 q 486 -17 564 -18 q 377 -22 414 -19 q 328 -28 340 -24 q 313 -42 315 -32 q 297 -58 314 -57 q 260 -47 279 -60 m 560 992 q 545 1019 550 1001 q 542 1053 540 1038 q 560 1081 543 1060 q 601 1126 578 1101 q 648 1172 625 1151 q 682 1196 671 1192 q 715 1190 699 1206 q 740 1149 731 1174 q 729 1119 744 1136 q 690 1082 714 1101 q 644 1044 667 1063 q 611 1010 622 1025 q 587 984 597 988 q 560 992 576 981 z "},"Ĭ":{"ha":556,"x_min":61,"x_max":843,"o":"m 260 -47 q 219 -28 250 -32 q 140 -26 189 -24 q 102 -24 121 -29 q 72 -9 83 -19 q 64 13 61 1 q 96 42 65 29 q 186 57 126 56 l 254 58 l 268 86 q 281 126 274 101 q 297 182 288 150 q 314 235 303 201 q 338 308 325 269 q 360 376 350 346 q 372 419 369 407 q 388 462 378 432 q 406 523 397 492 q 418 568 415 554 q 465 724 454 678 q 471 771 476 769 q 444 769 465 771 q 397 766 422 768 q 352 761 372 764 q 328 756 332 758 q 304 753 321 746 q 283 775 288 761 q 283 796 282 788 q 290 808 283 804 q 329 827 300 817 q 394 846 358 838 q 463 858 431 854 q 510 869 486 861 q 547 888 533 876 q 572 894 560 892 q 596 896 583 897 q 634 889 607 889 q 692 890 661 889 q 798 892 769 897 q 836 867 826 886 q 837 825 843 840 q 807 811 831 810 q 765 806 794 808 q 700 803 736 804 q 597 783 604 794 q 588 772 592 778 q 579 760 585 767 q 573 725 581 754 q 554 665 565 696 q 538 614 549 647 q 515 545 526 581 q 493 481 503 510 q 479 443 483 453 q 470 416 474 431 q 465 394 467 401 q 432 280 446 326 q 407 198 418 233 q 386 131 396 163 q 365 60 376 99 q 388 62 365 60 q 446 67 410 64 q 538 75 511 74 q 573 72 565 76 q 585 54 581 67 q 588 -1 613 17 q 486 -17 564 -18 q 377 -22 414 -19 q 328 -28 340 -24 q 313 -42 315 -32 q 297 -58 314 -57 q 260 -47 279 -60 m 607 974 q 530 997 563 978 q 483 1049 497 1015 q 478 1128 469 1082 q 498 1171 483 1157 q 527 1185 513 1185 q 551 1172 542 1185 q 553 1136 560 1160 q 551 1099 549 1121 q 569 1061 553 1076 q 628 1047 586 1046 q 665 1063 646 1049 q 699 1099 683 1078 q 722 1133 714 1119 q 755 1172 740 1164 q 780 1171 769 1179 q 794 1147 790 1163 q 796 1119 799 1132 q 775 1076 790 1101 q 735 1026 760 1050 q 677 986 710 1001 q 607 974 644 971 z "},"Î":{"ha":556,"x_min":61,"x_max":843,"o":"m 260 -47 q 219 -28 250 -32 q 140 -26 189 -24 q 102 -24 121 -29 q 72 -9 83 -19 q 64 13 61 1 q 96 42 65 29 q 186 57 126 56 l 254 58 l 268 86 q 281 126 274 101 q 297 182 288 150 q 314 235 303 201 q 338 308 325 269 q 360 376 350 346 q 372 419 369 407 q 388 462 378 432 q 406 523 397 492 q 418 568 415 554 q 465 724 454 678 q 471 771 476 769 q 444 769 465 771 q 397 766 422 768 q 352 761 372 764 q 328 756 332 758 q 304 753 321 746 q 283 775 288 761 q 283 796 282 788 q 290 808 283 804 q 329 827 300 817 q 394 846 358 838 q 463 858 431 854 q 510 869 486 861 q 547 888 533 876 q 572 894 560 892 q 596 896 583 897 q 634 889 607 889 q 692 890 661 889 q 798 892 769 897 q 836 867 826 886 q 837 825 843 840 q 807 811 831 810 q 765 806 794 808 q 700 803 736 804 q 597 783 604 794 q 588 772 592 778 q 579 760 585 767 q 573 725 581 754 q 554 665 565 696 q 538 614 549 647 q 515 545 526 581 q 493 481 503 510 q 479 443 483 453 q 470 416 474 431 q 465 394 467 401 q 432 280 446 326 q 407 198 418 233 q 386 131 396 163 q 365 60 376 99 q 388 62 365 60 q 446 67 410 64 q 538 75 511 74 q 573 72 565 76 q 585 54 581 67 q 588 -1 613 17 q 486 -17 564 -18 q 377 -22 414 -19 q 328 -28 340 -24 q 313 -42 315 -32 q 297 -58 314 -57 q 260 -47 279 -60 m 543 1013 q 502 994 519 989 q 480 1018 485 999 q 489 1057 475 1038 q 509 1077 493 1063 q 547 1110 525 1092 q 590 1145 568 1129 q 625 1169 611 1161 q 653 1181 639 1182 q 675 1167 667 1179 q 716 1128 692 1153 q 761 1083 740 1104 q 788 1054 782 1061 q 794 1026 796 1042 q 781 999 792 1010 q 756 992 771 989 q 721 1018 740 996 q 690 1051 711 1029 q 647 1090 668 1072 q 610 1065 631 1081 q 571 1035 589 1050 q 543 1013 553 1021 z "},"Ȉ":{"ha":556,"x_min":61,"x_max":843,"o":"m 260 -47 q 219 -28 250 -32 q 140 -26 189 -24 q 102 -24 121 -29 q 72 -9 83 -19 q 64 13 61 1 q 96 42 65 29 q 186 57 126 56 l 254 58 l 268 86 q 281 126 274 101 q 297 182 288 150 q 314 235 303 201 q 338 308 325 269 q 360 376 350 346 q 372 419 369 407 q 388 462 378 432 q 406 523 397 492 q 418 568 415 554 q 465 724 454 678 q 471 771 476 769 q 444 769 465 771 q 397 766 422 768 q 352 761 372 764 q 328 756 332 758 q 304 753 321 746 q 283 775 288 761 q 283 796 282 788 q 290 808 283 804 q 329 827 300 817 q 394 846 358 838 q 463 858 431 854 q 510 869 486 861 q 547 888 533 876 q 572 894 560 892 q 596 896 583 897 q 634 889 607 889 q 692 890 661 889 q 798 892 769 897 q 836 867 826 886 q 837 825 843 840 q 807 811 831 810 q 765 806 794 808 q 700 803 736 804 q 597 783 604 794 q 588 772 592 778 q 579 760 585 767 q 573 725 581 754 q 554 665 565 696 q 538 614 549 647 q 515 545 526 581 q 493 481 503 510 q 479 443 483 453 q 470 416 474 431 q 465 394 467 401 q 432 280 446 326 q 407 198 418 233 q 386 131 396 163 q 365 60 376 99 q 388 62 365 60 q 446 67 410 64 q 538 75 511 74 q 573 72 565 76 q 585 54 581 67 q 588 -1 613 17 q 486 -17 564 -18 q 377 -22 414 -19 q 328 -28 340 -24 q 313 -42 315 -32 q 297 -58 314 -57 q 260 -47 279 -60 m 488 992 q 467 991 474 985 q 451 1024 460 997 q 428 1062 444 1040 q 397 1106 413 1083 q 374 1147 382 1129 q 374 1175 367 1165 q 406 1203 389 1194 q 433 1204 422 1213 q 460 1174 444 1197 q 490 1122 475 1150 q 515 1071 504 1093 q 525 1044 525 1049 q 519 1028 526 1039 q 504 1008 513 1018 q 488 992 496 997 m 654 993 q 633 991 639 986 q 618 1022 626 996 q 593 1063 608 1040 q 563 1107 578 1085 q 540 1147 547 1129 q 539 1174 532 1165 q 574 1204 558 1197 q 599 1204 589 1211 q 623 1176 608 1199 q 653 1126 638 1154 q 678 1076 668 1099 q 690 1043 689 1053 q 681 1022 692 1039 q 654 993 671 1004 z "},"Ï":{"ha":560,"x_min":63,"x_max":844,"o":"m 261 -47 q 221 -28 251 -32 q 142 -26 190 -24 q 103 -24 122 -29 q 74 -9 85 -19 q 65 13 63 1 q 97 42 67 29 q 188 57 128 56 l 256 58 l 269 86 q 282 126 275 101 q 299 182 289 150 q 315 235 304 201 q 339 308 326 269 q 361 376 351 346 q 374 419 371 407 q 389 462 379 432 q 408 523 399 492 q 419 568 417 554 q 467 724 456 678 q 472 771 478 769 q 445 769 467 771 q 399 766 424 768 q 353 761 374 764 q 329 756 333 758 q 306 753 322 746 q 285 775 289 761 q 284 796 283 788 q 292 808 285 804 q 331 827 301 817 q 396 846 360 838 q 464 858 432 854 q 511 869 488 861 q 549 888 535 876 q 573 894 561 892 q 597 896 585 897 q 635 889 608 889 q 693 890 663 889 q 799 892 771 897 q 838 867 828 886 q 838 825 844 840 q 808 811 832 810 q 767 806 796 808 q 701 803 738 804 q 599 783 606 794 q 590 772 593 778 q 581 760 586 767 q 574 725 582 754 q 556 665 567 696 q 539 614 550 647 q 516 545 528 581 q 494 481 504 510 q 481 443 485 453 q 472 416 475 431 q 467 394 468 401 q 433 280 447 326 q 408 198 419 233 q 388 131 397 163 q 367 60 378 99 q 389 62 367 60 q 447 67 411 64 q 540 75 513 74 q 574 72 567 76 q 586 54 582 67 q 590 -1 614 17 q 488 -17 565 -18 q 378 -22 415 -19 q 329 -28 342 -24 q 314 -42 317 -32 q 298 -58 315 -57 q 261 -47 281 -60 m 688 1040 q 672 1067 678 1050 q 667 1089 665 1083 q 677 1117 669 1096 q 693 1144 685 1138 q 707 1160 699 1150 q 721 1171 715 1169 q 755 1176 738 1185 q 781 1146 772 1168 q 791 1102 797 1122 q 764 1057 785 1082 q 722 1023 740 1024 q 688 1040 703 1022 m 501 1035 q 481 1064 489 1046 q 475 1089 474 1082 q 488 1122 478 1100 q 508 1153 499 1144 q 519 1163 513 1156 q 531 1171 525 1169 q 557 1177 544 1181 q 579 1163 569 1174 q 593 1138 589 1153 q 599 1101 604 1118 q 575 1060 594 1083 q 535 1025 553 1031 q 501 1035 517 1019 z "},"İ":{"ha":556,"x_min":61,"x_max":843,"o":"m 260 -47 q 219 -28 250 -32 q 140 -26 189 -24 q 102 -24 121 -29 q 72 -9 83 -19 q 64 13 61 1 q 96 42 65 29 q 186 57 126 56 l 254 58 l 268 86 q 281 126 274 101 q 297 182 288 150 q 314 235 303 201 q 338 308 325 269 q 360 376 350 346 q 372 419 369 407 q 388 462 378 432 q 406 523 397 492 q 418 568 415 554 q 465 724 454 678 q 471 771 476 769 q 444 769 465 771 q 397 766 422 768 q 352 761 372 764 q 328 756 332 758 q 304 753 321 746 q 283 775 288 761 q 283 796 282 788 q 290 808 283 804 q 329 827 300 817 q 394 846 358 838 q 463 858 431 854 q 510 869 486 861 q 547 888 533 876 q 572 894 560 892 q 596 896 583 897 q 634 889 607 889 q 692 890 661 889 q 798 892 769 897 q 836 867 826 886 q 837 825 843 840 q 807 811 831 810 q 765 806 794 808 q 700 803 736 804 q 597 783 604 794 q 588 772 592 778 q 579 760 585 767 q 573 725 581 754 q 554 665 565 696 q 538 614 549 647 q 515 545 526 581 q 493 481 503 510 q 479 443 483 453 q 470 416 474 431 q 465 394 467 401 q 432 280 446 326 q 407 198 418 233 q 386 131 396 163 q 365 60 376 99 q 388 62 365 60 q 446 67 410 64 q 538 75 511 74 q 573 72 565 76 q 585 54 581 67 q 588 -1 613 17 q 486 -17 564 -18 q 377 -22 414 -19 q 328 -28 340 -24 q 313 -42 315 -32 q 297 -58 314 -57 q 260 -47 279 -60 m 585 1024 q 568 1053 575 1033 q 563 1082 561 1072 q 574 1113 565 1089 q 603 1154 583 1138 q 612 1163 607 1157 q 622 1171 617 1169 q 656 1176 639 1182 q 690 1147 672 1171 q 699 1096 706 1115 q 667 1044 693 1076 q 627 1011 646 1017 q 585 1024 608 1006 z "},"Ị":{"ha":556,"x_min":61,"x_max":843,"o":"m 260 -47 q 219 -28 250 -32 q 140 -26 189 -24 q 102 -24 121 -29 q 72 -9 83 -19 q 64 13 61 1 q 96 42 65 29 q 186 57 126 56 l 254 58 l 268 86 q 281 126 274 101 q 297 182 288 150 q 314 235 303 201 q 338 308 325 269 q 360 376 350 346 q 372 419 369 407 q 388 462 378 432 q 406 523 397 492 q 418 568 415 554 q 465 724 454 678 q 471 771 476 769 q 444 769 465 771 q 397 766 422 768 q 352 761 372 764 q 328 756 332 758 q 304 753 321 746 q 283 775 288 761 q 283 796 282 788 q 290 808 283 804 q 329 827 300 817 q 394 846 358 838 q 463 858 431 854 q 510 869 486 861 q 547 888 533 876 q 572 894 560 892 q 596 896 583 897 q 634 889 607 889 q 692 890 661 889 q 798 892 769 897 q 836 867 826 886 q 837 825 843 840 q 807 811 831 810 q 765 806 794 808 q 700 803 736 804 q 597 783 604 794 q 588 772 592 778 q 579 760 585 767 q 573 725 581 754 q 554 665 565 696 q 538 614 549 647 q 515 545 526 581 q 493 481 503 510 q 479 443 483 453 q 470 416 474 431 q 465 394 467 401 q 432 280 446 326 q 407 198 418 233 q 386 131 396 163 q 365 60 376 99 q 388 62 365 60 q 446 67 410 64 q 538 75 511 74 q 573 72 565 76 q 585 54 581 67 q 588 -1 613 17 q 486 -17 564 -18 q 377 -22 414 -19 q 328 -28 340 -24 q 313 -42 315 -32 q 297 -58 314 -57 q 260 -47 279 -60 m 197 -247 q 179 -222 185 -235 q 175 -201 174 -208 q 188 -168 179 -189 q 206 -142 197 -147 q 218 -131 213 -136 q 229 -125 224 -126 q 261 -121 246 -114 q 286 -149 276 -128 q 297 -187 300 -171 q 275 -225 293 -203 q 230 -260 247 -257 q 197 -247 213 -264 z "},"Ì":{"ha":556,"x_min":61,"x_max":843,"o":"m 260 -47 q 219 -28 250 -32 q 140 -26 189 -24 q 102 -24 121 -29 q 72 -9 83 -19 q 64 13 61 1 q 96 42 65 29 q 186 57 126 56 l 254 58 l 268 86 q 281 126 274 101 q 297 182 288 150 q 314 235 303 201 q 338 308 325 269 q 360 376 350 346 q 372 419 369 407 q 388 462 378 432 q 406 523 397 492 q 418 568 415 554 q 465 724 454 678 q 471 771 476 769 q 444 769 465 771 q 397 766 422 768 q 352 761 372 764 q 328 756 332 758 q 304 753 321 746 q 283 775 288 761 q 283 796 282 788 q 290 808 283 804 q 329 827 300 817 q 394 846 358 838 q 463 858 431 854 q 510 869 486 861 q 547 888 533 876 q 572 894 560 892 q 596 896 583 897 q 634 889 607 889 q 692 890 661 889 q 798 892 769 897 q 836 867 826 886 q 837 825 843 840 q 807 811 831 810 q 765 806 794 808 q 700 803 736 804 q 597 783 604 794 q 588 772 592 778 q 579 760 585 767 q 573 725 581 754 q 554 665 565 696 q 538 614 549 647 q 515 545 526 581 q 493 481 503 510 q 479 443 483 453 q 470 416 474 431 q 465 394 467 401 q 432 280 446 326 q 407 198 418 233 q 386 131 396 163 q 365 60 376 99 q 388 62 365 60 q 446 67 410 64 q 538 75 511 74 q 573 72 565 76 q 585 54 581 67 q 588 -1 613 17 q 486 -17 564 -18 q 377 -22 414 -19 q 328 -28 340 -24 q 313 -42 315 -32 q 297 -58 314 -57 q 260 -47 279 -60 m 653 985 q 635 980 640 976 q 625 995 629 983 q 614 1022 621 1007 q 581 1077 603 1046 q 548 1138 560 1108 q 549 1183 536 1167 q 585 1210 571 1204 q 613 1200 599 1215 q 635 1171 622 1194 q 662 1117 649 1147 q 684 1063 675 1088 q 693 1029 693 1038 q 681 1006 694 1024 q 653 985 668 989 z "},"Ȋ":{"ha":556,"x_min":61,"x_max":843,"o":"m 260 -47 q 219 -28 250 -32 q 140 -26 189 -24 q 102 -24 121 -29 q 72 -9 83 -19 q 64 13 61 1 q 96 42 65 29 q 186 57 126 56 l 254 58 l 268 86 q 281 126 274 101 q 297 182 288 150 q 314 235 303 201 q 338 308 325 269 q 360 376 350 346 q 372 419 369 407 q 388 462 378 432 q 406 523 397 492 q 418 568 415 554 q 465 724 454 678 q 471 771 476 769 q 444 769 465 771 q 397 766 422 768 q 352 761 372 764 q 328 756 332 758 q 304 753 321 746 q 283 775 288 761 q 283 796 282 788 q 290 808 283 804 q 329 827 300 817 q 394 846 358 838 q 463 858 431 854 q 510 869 486 861 q 547 888 533 876 q 572 894 560 892 q 596 896 583 897 q 634 889 607 889 q 692 890 661 889 q 798 892 769 897 q 836 867 826 886 q 837 825 843 840 q 807 811 831 810 q 765 806 794 808 q 700 803 736 804 q 597 783 604 794 q 588 772 592 778 q 579 760 585 767 q 573 725 581 754 q 554 665 565 696 q 538 614 549 647 q 515 545 526 581 q 493 481 503 510 q 479 443 483 453 q 470 416 474 431 q 465 394 467 401 q 432 280 446 326 q 407 198 418 233 q 386 131 396 163 q 365 60 376 99 q 388 62 365 60 q 446 67 410 64 q 538 75 511 74 q 573 72 565 76 q 585 54 581 67 q 588 -1 613 17 q 486 -17 564 -18 q 377 -22 414 -19 q 328 -28 340 -24 q 313 -42 315 -32 q 297 -58 314 -57 q 260 -47 279 -60 m 676 1018 q 680 1057 681 1035 q 664 1095 679 1079 q 608 1110 649 1111 q 570 1096 590 1111 q 532 1059 550 1081 q 501 1015 514 1038 q 465 981 482 982 q 440 999 449 981 q 433 1038 432 1017 q 457 1080 440 1054 q 499 1131 474 1106 q 557 1171 525 1156 q 624 1183 589 1186 q 706 1157 674 1179 q 750 1101 738 1135 q 754 1028 763 1068 q 724 977 746 989 q 687 976 703 965 q 676 1018 671 988 z "},"Ī":{"ha":556,"x_min":61,"x_max":843,"o":"m 260 -47 q 219 -28 250 -32 q 140 -26 189 -24 q 102 -24 121 -29 q 72 -9 83 -19 q 64 13 61 1 q 96 42 65 29 q 186 57 126 56 l 254 58 l 268 86 q 281 126 274 101 q 297 182 288 150 q 314 235 303 201 q 338 308 325 269 q 360 376 350 346 q 372 419 369 407 q 388 462 378 432 q 406 523 397 492 q 418 568 415 554 q 465 724 454 678 q 471 771 476 769 q 444 769 465 771 q 397 766 422 768 q 352 761 372 764 q 328 756 332 758 q 304 753 321 746 q 283 775 288 761 q 283 796 282 788 q 290 808 283 804 q 329 827 300 817 q 394 846 358 838 q 463 858 431 854 q 510 869 486 861 q 547 888 533 876 q 572 894 560 892 q 596 896 583 897 q 634 889 607 889 q 692 890 661 889 q 798 892 769 897 q 836 867 826 886 q 837 825 843 840 q 807 811 831 810 q 765 806 794 808 q 700 803 736 804 q 597 783 604 794 q 588 772 592 778 q 579 760 585 767 q 573 725 581 754 q 554 665 565 696 q 538 614 549 647 q 515 545 526 581 q 493 481 503 510 q 479 443 483 453 q 470 416 474 431 q 465 394 467 401 q 432 280 446 326 q 407 198 418 233 q 386 131 396 163 q 365 60 376 99 q 388 62 365 60 q 446 67 410 64 q 538 75 511 74 q 573 72 565 76 q 585 54 581 67 q 588 -1 613 17 q 486 -17 564 -18 q 377 -22 414 -19 q 328 -28 340 -24 q 313 -42 315 -32 q 297 -58 314 -57 q 260 -47 279 -60 m 525 1057 q 502 1058 515 1057 q 476 1064 489 1060 q 448 1068 456 1064 q 433 1085 440 1072 q 434 1114 421 1106 q 494 1128 447 1122 q 587 1140 540 1135 q 683 1144 633 1144 q 744 1140 718 1144 q 786 1124 771 1136 q 799 1085 804 1104 q 765 1068 794 1067 q 737 1067 757 1068 q 694 1065 717 1065 q 654 1064 671 1064 q 624 1061 644 1063 q 576 1058 603 1060 q 525 1057 550 1057 z "},"Į":{"ha":556,"x_min":61,"x_max":843,"o":"m 260 -47 q 219 -28 250 -32 q 140 -26 189 -24 q 102 -24 121 -29 q 72 -9 83 -19 q 64 13 61 1 q 96 42 65 29 q 186 57 126 56 l 254 58 l 268 86 q 281 126 274 101 q 297 182 288 150 q 314 235 303 201 q 338 308 325 269 q 360 376 350 346 q 372 419 369 407 q 388 462 378 432 q 406 523 397 492 q 418 568 415 554 q 465 724 454 678 q 471 771 476 769 q 444 769 465 771 q 397 766 422 768 q 352 761 372 764 q 328 756 332 758 q 304 753 321 746 q 283 775 288 761 q 283 796 282 788 q 290 808 283 804 q 329 827 300 817 q 394 846 358 838 q 463 858 431 854 q 510 869 486 861 q 547 888 533 876 q 572 894 560 892 q 596 896 583 897 q 634 889 607 889 q 692 890 661 889 q 798 892 769 897 q 836 867 826 886 q 837 825 843 840 q 807 811 831 810 q 765 806 794 808 q 700 803 736 804 q 597 783 604 794 q 588 772 592 778 q 579 760 585 767 q 573 725 581 754 q 554 665 565 696 q 538 614 549 647 q 515 545 526 581 q 493 481 503 510 q 479 443 483 453 q 470 416 474 431 q 465 394 467 401 q 432 280 446 326 q 407 198 418 233 q 386 131 396 163 q 365 60 376 99 q 388 62 365 60 q 446 67 410 64 q 538 75 511 74 q 573 72 565 76 q 585 54 581 67 q 588 -1 613 17 q 486 -17 564 -18 q 377 -22 414 -19 q 328 -28 340 -24 q 313 -42 315 -32 q 297 -58 314 -57 q 260 -47 279 -60 m 190 -290 q 140 -260 163 -282 q 110 -208 118 -239 q 119 -147 103 -178 q 167 -83 136 -115 q 235 -21 199 -50 q 301 28 271 8 l 354 -14 q 281 -67 324 -32 q 214 -133 239 -103 q 187 -176 194 -157 q 189 -210 179 -194 q 214 -218 193 -218 q 268 -199 246 -212 q 325 -168 290 -185 q 353 -164 343 -158 q 365 -183 363 -169 q 360 -211 367 -197 q 338 -232 354 -225 q 314 -242 332 -233 q 273 -261 296 -251 q 228 -279 250 -271 q 190 -290 206 -287 z "},"Ĩ":{"ha":556,"x_min":61,"x_max":843,"o":"m 260 -47 q 219 -28 250 -32 q 140 -26 189 -24 q 102 -24 121 -29 q 72 -9 83 -19 q 64 13 61 1 q 96 42 65 29 q 186 57 126 56 l 254 58 l 268 86 q 281 126 274 101 q 297 182 288 150 q 314 235 303 201 q 338 308 325 269 q 360 376 350 346 q 372 419 369 407 q 388 462 378 432 q 406 523 397 492 q 418 568 415 554 q 465 724 454 678 q 471 771 476 769 q 444 769 465 771 q 397 766 422 768 q 352 761 372 764 q 328 756 332 758 q 304 753 321 746 q 283 775 288 761 q 283 796 282 788 q 290 808 283 804 q 329 827 300 817 q 394 846 358 838 q 463 858 431 854 q 510 869 486 861 q 547 888 533 876 q 572 894 560 892 q 596 896 583 897 q 634 889 607 889 q 692 890 661 889 q 798 892 769 897 q 836 867 826 886 q 837 825 843 840 q 807 811 831 810 q 765 806 794 808 q 700 803 736 804 q 597 783 604 794 q 588 772 592 778 q 579 760 585 767 q 573 725 581 754 q 554 665 565 696 q 538 614 549 647 q 515 545 526 581 q 493 481 503 510 q 479 443 483 453 q 470 416 474 431 q 465 394 467 401 q 432 280 446 326 q 407 198 418 233 q 386 131 396 163 q 365 60 376 99 q 388 62 365 60 q 446 67 410 64 q 538 75 511 74 q 573 72 565 76 q 585 54 581 67 q 588 -1 613 17 q 486 -17 564 -18 q 377 -22 414 -19 q 328 -28 340 -24 q 313 -42 315 -32 q 297 -58 314 -57 q 260 -47 279 -60 m 683 1011 q 640 1022 658 1011 q 594 1051 621 1032 q 562 1078 582 1058 q 525 1099 542 1099 q 502 1088 511 1099 q 485 1065 493 1076 q 461 1050 476 1053 q 453 1033 460 1043 q 442 1029 447 1022 q 419 1044 428 1033 q 410 1067 411 1054 q 436 1117 415 1086 q 500 1169 457 1147 q 553 1169 525 1178 q 604 1139 582 1161 q 653 1101 636 1111 q 697 1101 671 1090 q 741 1122 718 1107 q 793 1149 764 1138 q 812 1146 803 1153 q 826 1128 821 1139 q 829 1108 831 1117 q 818 1085 828 1100 q 796 1064 808 1071 q 731 1029 754 1040 q 699 1015 708 1018 q 683 1011 689 1011 z "},"J":{"ha":429,"x_min":-62,"x_max":625,"o":"m 125 -262 q 66 -274 99 -275 q 3 -257 33 -272 q -50 -218 -28 -242 q -61 -190 -60 -207 q -57 -156 -62 -174 q -39 -131 -50 -131 q -4 -157 -24 -131 q 73 -176 35 -192 q 154 -94 111 -161 q 181 -35 163 -74 q 219 49 199 4 q 256 131 239 93 q 278 186 272 169 q 278 191 278 186 q 285 201 279 196 q 292 224 286 207 q 303 263 297 240 q 319 308 308 278 q 341 372 329 339 q 361 428 353 406 q 378 491 368 457 q 396 543 389 525 q 413 588 401 554 q 438 663 424 622 q 469 761 454 717 q 492 833 483 806 q 497 865 500 861 q 473 861 497 865 q 419 851 449 857 q 372 843 396 842 q 351 854 349 844 q 351 862 351 860 q 351 864 351 864 q 340 867 347 861 q 328 884 333 874 q 322 901 322 894 q 351 924 322 913 q 424 940 381 935 q 483 948 451 944 q 532 954 514 951 q 554 953 538 958 q 588 940 571 947 q 613 924 606 932 q 623 900 621 913 q 619 865 625 888 q 599 802 614 843 q 558 690 585 761 q 504 534 528 604 q 461 418 481 464 q 447 374 457 403 q 426 315 436 344 q 411 265 417 285 q 390 208 400 239 q 375 160 381 178 q 369 135 375 149 q 357 114 364 121 q 347 90 357 114 q 324 32 338 65 q 299 -30 313 4 q 275 -82 286 -64 q 258 -113 268 -99 q 249 -133 249 -128 q 248 -137 249 -133 q 242 -142 247 -142 q 238 -145 242 -142 q 233 -156 233 -149 q 217 -179 231 -164 q 188 -212 204 -194 q 153 -242 171 -229 q 125 -262 136 -256 z "},"Ĵ":{"ha":425,"x_min":-64,"x_max":711,"o":"m 124 -262 q 65 -274 97 -275 q 1 -257 32 -272 q -51 -218 -29 -242 q -62 -190 -61 -207 q -58 -156 -64 -174 q -40 -131 -51 -131 q -6 -157 -25 -131 q 72 -176 33 -192 q 153 -94 110 -161 q 179 -35 161 -74 q 217 49 197 4 q 254 131 238 93 q 276 186 271 169 q 277 191 276 186 q 283 201 278 196 q 290 224 285 207 q 301 263 296 240 q 317 308 307 278 q 340 372 328 339 q 360 428 351 406 q 377 491 367 457 q 394 543 388 525 q 411 588 400 554 q 436 663 422 622 q 467 761 453 717 q 490 833 482 806 q 496 865 499 861 q 472 861 496 865 q 418 851 447 857 q 371 843 394 842 q 350 854 347 844 q 350 862 350 860 q 350 864 350 864 q 339 867 346 861 q 326 884 332 874 q 321 901 321 894 q 350 924 321 913 q 422 940 379 935 q 481 948 450 944 q 531 954 513 951 q 553 953 536 958 q 587 940 569 947 q 611 924 604 932 q 622 900 619 913 q 618 865 624 888 q 598 802 613 843 q 557 690 583 761 q 503 534 526 604 q 460 418 479 464 q 445 374 456 403 q 425 315 435 344 q 410 265 415 285 q 389 208 399 239 q 374 160 379 178 q 368 135 374 149 q 356 114 363 121 q 346 90 356 114 q 322 32 336 65 q 298 -30 311 4 q 274 -82 285 -64 q 257 -113 267 -99 q 247 -133 247 -128 q 247 -137 247 -133 q 240 -142 246 -142 q 236 -145 240 -142 q 232 -156 232 -149 q 216 -179 229 -164 q 186 -212 203 -194 q 152 -242 169 -229 q 124 -262 135 -256 m 458 1013 q 417 994 435 989 q 395 1018 400 999 q 404 1057 390 1038 q 424 1077 408 1063 q 462 1110 440 1092 q 505 1145 483 1129 q 540 1169 526 1161 q 568 1181 554 1182 q 590 1167 582 1179 q 631 1128 607 1153 q 676 1083 656 1104 q 703 1054 697 1061 q 709 1026 711 1042 q 697 999 707 1010 q 671 992 686 989 q 636 1018 656 996 q 605 1051 626 1029 q 563 1090 583 1072 q 525 1065 546 1081 q 486 1035 504 1050 q 458 1013 468 1021 z "},"K":{"ha":696,"x_min":108,"x_max":950,"o":"m 139 -56 q 115 -33 121 -44 q 117 8 108 -21 q 119 42 115 26 q 124 63 122 57 q 132 71 131 63 q 133 85 133 79 q 142 122 133 96 q 158 176 151 149 q 180 228 169 203 q 190 258 190 253 q 196 281 190 269 q 208 304 201 293 q 219 341 215 321 q 222 372 222 361 q 240 411 231 390 q 256 454 250 432 q 281 524 264 478 q 315 617 297 569 q 340 672 328 643 q 361 721 351 700 q 375 742 371 742 q 375 747 375 742 q 375 757 375 751 q 386 784 375 764 q 407 826 397 804 q 426 866 421 847 q 432 885 432 885 q 438 893 432 885 q 449 907 443 901 q 492 920 472 922 q 521 892 511 918 q 531 853 532 867 q 519 822 529 839 q 490 759 508 797 q 452 678 472 721 q 415 595 432 635 q 387 527 397 556 q 376 492 376 499 l 319 350 q 310 325 318 346 q 292 271 303 304 q 269 195 282 238 q 239 103 256 153 q 206 -2 218 36 q 185 -56 193 -40 q 167 -71 176 -71 q 155 -67 161 -71 q 139 -56 149 -62 m 629 -62 q 595 -51 617 -64 q 549 -18 574 -37 q 503 22 525 1 q 469 58 482 43 q 414 143 447 90 q 364 256 381 196 q 344 326 354 300 q 332 371 335 353 l 333 464 l 415 451 q 437 327 422 376 q 472 240 451 278 q 510 169 489 204 q 554 110 531 133 q 611 58 586 75 q 649 42 636 42 q 675 27 663 36 q 697 9 688 18 q 707 -7 707 0 q 708 -22 708 -11 q 703 -43 707 -33 q 694 -57 700 -53 q 677 -73 689 -67 q 629 -62 665 -79 m 315 458 l 417 532 q 444 558 421 536 q 528 625 468 581 l 703 767 q 772 810 738 785 q 825 849 806 836 q 869 880 849 865 q 894 893 889 894 q 919 888 906 899 q 940 859 932 876 q 947 831 949 842 q 942 807 950 817 q 904 781 935 797 q 855 753 875 767 q 831 733 835 740 q 803 713 831 733 q 736 664 776 692 q 642 596 681 626 q 593 549 604 565 q 583 544 588 549 q 572 542 578 540 q 562 535 572 542 q 546 519 551 528 q 534 501 543 513 q 511 490 525 489 q 476 467 501 485 q 424 429 451 450 q 378 392 397 408 q 357 372 358 375 l 315 458 z "},"Ķ":{"ha":686,"x_min":107,"x_max":949,"o":"m 138 -56 q 113 -33 119 -44 q 115 8 107 -21 q 117 42 114 26 q 122 63 121 57 q 131 71 129 63 q 132 85 132 79 q 141 122 132 96 q 157 176 150 149 q 178 228 168 203 q 189 258 189 253 q 194 281 189 269 q 207 304 200 293 q 217 341 214 321 q 221 372 221 361 q 239 411 229 390 q 254 454 249 432 q 279 524 263 478 q 314 617 296 569 q 338 672 326 643 q 360 721 350 700 q 374 742 369 742 q 374 747 374 742 q 374 757 374 751 q 385 784 374 764 q 406 826 396 804 q 425 866 419 847 q 431 885 431 885 q 436 893 431 885 q 447 907 442 901 q 490 920 471 922 q 519 892 510 918 q 529 853 531 867 q 518 822 528 839 q 489 759 507 797 q 451 678 471 721 q 413 595 431 635 q 385 527 396 556 q 375 492 375 499 l 318 350 q 309 325 317 346 q 291 271 301 304 q 267 195 281 238 q 238 103 254 153 q 204 -2 217 36 q 183 -56 192 -40 q 165 -71 175 -71 q 153 -67 160 -71 q 138 -56 147 -62 m 628 -62 q 594 -51 615 -64 q 548 -18 572 -37 q 502 22 524 1 q 468 58 481 43 q 413 143 446 90 q 363 256 379 196 q 343 326 353 300 q 331 371 333 353 l 332 464 l 414 451 q 435 327 421 376 q 471 240 450 278 q 508 169 488 204 q 553 110 529 133 q 610 58 585 75 q 647 42 635 42 q 674 27 661 36 q 696 9 686 18 q 706 -7 706 0 q 706 -22 707 -11 q 702 -43 706 -33 q 693 -57 699 -53 q 676 -73 688 -67 q 628 -62 664 -79 m 314 458 l 415 532 q 443 558 419 536 q 526 625 467 581 l 701 767 q 770 810 736 785 q 824 849 804 836 q 867 880 847 865 q 893 893 888 894 q 917 888 904 899 q 939 859 931 876 q 946 831 947 842 q 941 807 949 817 q 903 781 933 797 q 853 753 874 767 q 829 733 833 740 q 802 713 829 733 q 735 664 775 692 q 641 596 679 626 q 592 549 603 565 q 581 544 586 549 q 571 542 576 540 q 560 535 571 542 q 544 519 550 528 q 533 501 542 513 q 510 490 524 489 q 475 467 500 485 q 423 429 450 450 q 376 392 396 408 q 356 372 357 375 l 314 458 m 224 -258 q 203 -256 210 -258 q 193 -246 197 -253 q 213 -219 193 -236 q 259 -165 238 -196 q 283 -107 281 -133 q 299 -58 282 -74 q 346 -60 317 -43 q 355 -97 353 -79 q 346 -153 357 -115 q 335 -174 344 -160 q 316 -203 326 -189 q 300 -221 306 -217 q 290 -230 297 -224 q 275 -242 282 -236 q 264 -250 268 -247 q 256 -253 260 -251 q 246 -257 253 -256 q 224 -258 239 -258 z "},"L":{"ha":592,"x_min":135,"x_max":632,"o":"m 290 -64 q 194 -8 235 -50 q 139 85 154 35 q 136 133 138 103 q 136 190 135 164 q 140 219 138 215 q 144 236 144 222 q 147 255 143 242 q 154 282 150 268 q 161 309 161 299 q 160 325 161 319 q 164 334 160 325 q 174 349 168 343 q 181 365 182 357 q 181 374 181 374 q 183 389 179 379 q 192 404 188 399 q 199 416 194 407 q 204 425 204 425 q 210 447 204 429 q 225 487 217 465 q 241 526 233 508 q 253 550 249 544 l 253 553 q 268 582 258 567 q 275 605 269 589 q 288 636 281 621 q 326 712 303 669 q 375 797 349 754 q 426 873 401 839 q 468 924 450 907 q 509 955 492 950 q 547 939 526 960 q 563 914 557 929 q 567 886 568 899 q 558 872 567 874 q 531 841 549 867 q 490 781 513 815 q 444 709 467 746 q 406 643 422 672 q 372 573 388 603 q 357 543 357 543 q 354 536 356 539 q 351 531 353 533 q 317 452 331 488 q 289 378 303 417 q 279 358 281 368 q 278 349 278 349 q 274 342 275 350 q 268 325 272 335 q 260 308 261 319 q 258 285 258 296 q 240 224 249 260 q 228 156 232 189 q 226 106 225 124 q 247 64 229 82 q 292 35 265 46 q 319 25 307 29 q 340 21 331 21 q 369 22 351 19 q 417 29 386 24 l 415 29 q 453 37 433 32 q 492 46 474 42 q 524 52 508 49 q 547 58 539 56 q 593 71 578 67 q 615 69 608 75 q 627 53 622 64 q 628 31 632 43 q 603 8 625 24 q 553 -24 582 -8 q 499 -47 525 -39 q 430 -66 471 -60 q 351 -72 389 -72 q 290 -64 313 -71 z "},"Ĺ":{"ha":592,"x_min":135,"x_max":800,"o":"m 290 -64 q 194 -8 235 -50 q 139 85 154 35 q 136 133 138 103 q 136 190 135 164 q 140 219 138 215 q 144 236 144 222 q 147 255 143 242 q 154 282 150 268 q 161 309 161 299 q 160 325 161 319 q 164 334 160 325 q 174 349 168 343 q 181 365 182 357 q 181 374 181 374 q 183 389 179 379 q 192 404 188 399 q 199 416 194 407 q 204 425 204 425 q 210 447 204 429 q 225 487 217 465 q 241 526 233 508 q 253 550 249 544 l 253 553 q 268 582 258 567 q 275 605 269 589 q 288 636 281 621 q 326 712 303 669 q 375 797 349 754 q 426 873 401 839 q 468 924 450 907 q 509 955 492 950 q 547 939 526 960 q 563 914 557 929 q 567 886 568 899 q 558 872 567 874 q 531 841 549 867 q 490 781 513 815 q 444 709 467 746 q 406 643 422 672 q 372 573 388 603 q 357 543 357 543 q 354 536 356 539 q 351 531 353 533 q 317 452 331 488 q 289 378 303 417 q 279 358 281 368 q 278 349 278 349 q 274 342 275 350 q 268 325 272 335 q 260 308 261 319 q 258 285 258 296 q 240 224 249 260 q 228 156 232 189 q 226 106 225 124 q 247 64 229 82 q 292 35 265 46 q 319 25 307 29 q 340 21 331 21 q 369 22 351 19 q 417 29 386 24 l 415 29 q 453 37 433 32 q 492 46 474 42 q 524 52 508 49 q 547 58 539 56 q 593 71 578 67 q 615 69 608 75 q 627 53 622 64 q 628 31 632 43 q 603 8 625 24 q 553 -24 582 -8 q 499 -47 525 -39 q 430 -66 471 -60 q 351 -72 389 -72 q 290 -64 313 -71 m 615 992 q 601 1019 606 1001 q 597 1053 596 1038 q 616 1081 599 1060 q 657 1126 633 1101 q 703 1172 681 1151 q 738 1196 726 1192 q 770 1190 754 1206 q 796 1149 786 1174 q 785 1119 800 1136 q 746 1082 769 1101 q 700 1044 722 1063 q 667 1010 678 1025 q 642 984 653 988 q 615 992 632 981 z "},"Ľ":{"ha":592,"x_min":135,"x_max":814,"o":"m 290 -64 q 194 -8 235 -50 q 139 85 154 35 q 136 133 138 103 q 136 190 135 164 q 140 219 138 215 q 144 236 144 222 q 147 255 143 242 q 154 282 150 268 q 161 309 161 299 q 160 325 161 319 q 164 334 160 325 q 174 349 168 343 q 181 365 182 357 q 181 374 181 374 q 183 389 179 379 q 192 404 188 399 q 199 416 194 407 q 204 425 204 425 q 210 447 204 429 q 225 487 217 465 q 241 526 233 508 q 253 550 249 544 l 253 553 q 268 582 258 567 q 275 605 269 589 q 288 636 281 621 q 326 712 303 669 q 375 797 349 754 q 426 873 401 839 q 468 924 450 907 q 509 955 492 950 q 547 939 526 960 q 563 914 557 929 q 567 886 568 899 q 558 872 567 874 q 531 841 549 867 q 490 781 513 815 q 444 709 467 746 q 406 643 422 672 q 372 573 388 603 q 357 543 357 543 q 354 536 356 539 q 351 531 353 533 q 317 452 331 488 q 289 378 303 417 q 279 358 281 368 q 278 349 278 349 q 274 342 275 350 q 268 325 272 335 q 260 308 261 319 q 258 285 258 296 q 240 224 249 260 q 228 156 232 189 q 226 106 225 124 q 247 64 229 82 q 292 35 265 46 q 319 25 307 29 q 340 21 331 21 q 369 22 351 19 q 417 29 386 24 l 415 29 q 453 37 433 32 q 492 46 474 42 q 524 52 508 49 q 547 58 539 56 q 593 71 578 67 q 615 69 608 75 q 627 53 622 64 q 628 31 632 43 q 603 8 625 24 q 553 -24 582 -8 q 499 -47 525 -39 q 430 -66 471 -60 q 351 -72 389 -72 q 290 -64 313 -71 m 657 718 q 640 720 643 718 q 631 732 636 722 q 635 750 631 742 q 650 767 640 758 q 681 801 664 781 q 712 842 699 821 q 724 876 725 863 q 735 928 722 907 q 768 954 749 949 q 808 939 788 960 q 810 883 814 910 q 792 821 807 856 q 774 792 789 811 q 745 758 760 774 q 726 742 731 742 q 715 736 721 742 q 704 725 710 731 q 685 719 699 719 q 657 718 672 718 z "},"Ļ":{"ha":592,"x_min":135,"x_max":632,"o":"m 290 -64 q 194 -8 235 -50 q 139 85 154 35 q 136 133 138 103 q 136 190 135 164 q 140 219 138 215 q 144 236 144 222 q 147 255 143 242 q 154 282 150 268 q 161 309 161 299 q 160 325 161 319 q 164 334 160 325 q 174 349 168 343 q 181 365 182 357 q 181 374 181 374 q 183 389 179 379 q 192 404 188 399 q 199 416 194 407 q 204 425 204 425 q 210 447 204 429 q 225 487 217 465 q 241 526 233 508 q 253 550 249 544 l 253 553 q 268 582 258 567 q 275 605 269 589 q 288 636 281 621 q 326 712 303 669 q 375 797 349 754 q 426 873 401 839 q 468 924 450 907 q 509 955 492 950 q 547 939 526 960 q 563 914 557 929 q 567 886 568 899 q 558 872 567 874 q 531 841 549 867 q 490 781 513 815 q 444 709 467 746 q 406 643 422 672 q 372 573 388 603 q 357 543 357 543 q 354 536 356 539 q 351 531 353 533 q 317 452 331 488 q 289 378 303 417 q 279 358 281 368 q 278 349 278 349 q 274 342 275 350 q 268 325 272 335 q 260 308 261 319 q 258 285 258 296 q 240 224 249 260 q 228 156 232 189 q 226 106 225 124 q 247 64 229 82 q 292 35 265 46 q 319 25 307 29 q 340 21 331 21 q 369 22 351 19 q 417 29 386 24 l 415 29 q 453 37 433 32 q 492 46 474 42 q 524 52 508 49 q 547 58 539 56 q 593 71 578 67 q 615 69 608 75 q 627 53 622 64 q 628 31 632 43 q 603 8 625 24 q 553 -24 582 -8 q 499 -47 525 -39 q 430 -66 471 -60 q 351 -72 389 -72 q 290 -64 313 -71 m 181 -321 q 160 -318 167 -321 q 150 -308 154 -315 q 169 -282 150 -299 q 216 -227 194 -258 q 240 -169 238 -196 q 256 -121 239 -136 q 303 -122 274 -106 q 312 -160 310 -142 q 303 -215 314 -178 q 292 -237 301 -222 q 273 -265 283 -251 q 257 -283 263 -279 q 247 -292 254 -286 q 232 -304 239 -299 q 221 -312 225 -310 q 213 -316 217 -314 q 203 -319 210 -318 q 181 -321 196 -321 z "},"Ŀ":{"ha":592,"x_min":135,"x_max":667,"o":"m 290 -64 q 194 -8 235 -50 q 139 85 154 35 q 136 133 138 103 q 136 190 135 164 q 140 219 138 215 q 144 236 144 222 q 147 255 143 242 q 154 282 150 268 q 161 309 161 299 q 160 325 161 319 q 164 334 160 325 q 174 349 168 343 q 181 365 182 357 q 181 374 181 374 q 183 389 179 379 q 192 404 188 399 q 199 416 194 407 q 204 425 204 425 q 210 447 204 429 q 225 487 217 465 q 241 526 233 508 q 253 550 249 544 l 253 553 q 268 582 258 567 q 275 605 269 589 q 288 636 281 621 q 326 712 303 669 q 375 797 349 754 q 426 873 401 839 q 468 924 450 907 q 509 955 492 950 q 547 939 526 960 q 563 914 557 929 q 567 886 568 899 q 558 872 567 874 q 531 841 549 867 q 490 781 513 815 q 444 709 467 746 q 406 643 422 672 q 372 573 388 603 q 357 543 357 543 q 354 536 356 539 q 351 531 353 533 q 317 452 331 488 q 289 378 303 417 q 279 358 281 368 q 278 349 278 349 q 274 342 275 350 q 268 325 272 335 q 260 308 261 319 q 258 285 258 296 q 240 224 249 260 q 228 156 232 189 q 226 106 225 124 q 247 64 229 82 q 292 35 265 46 q 319 25 307 29 q 340 21 331 21 q 369 22 351 19 q 417 29 386 24 l 415 29 q 453 37 433 32 q 492 46 474 42 q 524 52 508 49 q 547 58 539 56 q 593 71 578 67 q 615 69 608 75 q 627 53 622 64 q 628 31 632 43 q 603 8 625 24 q 553 -24 582 -8 q 499 -47 525 -39 q 430 -66 471 -60 q 351 -72 389 -72 q 290 -64 313 -71 m 547 338 q 535 360 540 344 q 527 388 529 375 q 529 401 525 401 q 547 414 536 403 q 565 440 557 425 q 571 467 572 456 q 585 483 571 481 q 621 487 601 494 q 654 457 640 479 q 661 410 667 431 q 631 358 656 389 q 588 326 610 331 q 547 338 567 322 z "},"Ł":{"ha":592,"x_min":60,"x_max":632,"o":"m 82 306 q 66 333 60 317 q 118 368 72 350 q 167 404 132 383 q 247 447 201 425 q 338 489 292 468 q 422 526 383 510 q 479 553 460 543 q 524 569 511 567 q 556 568 538 572 q 586 541 583 560 q 560 511 589 522 q 531 488 554 501 q 488 457 507 474 q 452 445 482 457 q 381 415 422 433 q 297 378 340 397 q 220 343 254 358 q 172 321 186 328 q 154 313 165 317 q 126 307 143 308 q 99 299 108 297 q 82 306 90 300 m 290 -64 q 194 -8 235 -50 q 139 85 154 35 q 136 133 138 103 q 136 190 135 164 q 140 219 138 215 q 144 236 144 222 q 147 255 143 242 q 154 282 150 268 q 161 309 161 299 q 160 325 161 319 q 164 334 160 325 q 174 349 168 343 q 181 365 182 357 q 181 374 181 374 q 183 389 179 379 q 192 404 188 399 q 199 416 194 407 q 204 425 204 425 q 210 447 204 429 q 225 487 217 465 q 241 526 233 508 q 253 550 249 544 l 253 553 q 268 582 258 567 q 275 605 269 589 q 288 636 281 621 q 326 712 303 669 q 375 797 349 754 q 426 873 401 839 q 468 924 450 907 q 509 955 492 950 q 547 939 526 960 q 563 914 557 929 q 567 886 568 899 q 558 872 567 874 q 531 841 549 867 q 490 781 513 815 q 444 709 467 746 q 406 643 422 672 q 372 573 388 603 q 357 543 357 543 q 354 536 356 539 q 351 531 353 533 q 317 452 331 488 q 289 378 303 417 q 279 358 281 368 q 278 349 278 349 q 274 342 275 350 q 268 325 272 335 q 260 308 261 319 q 258 285 258 296 q 240 224 249 260 q 228 156 232 189 q 226 106 225 124 q 247 64 229 82 q 292 35 265 46 q 319 25 307 29 q 340 21 331 21 q 369 22 351 19 q 417 29 386 24 l 415 29 q 453 37 433 32 q 492 46 474 42 q 524 52 508 49 q 547 58 539 56 q 593 71 578 67 q 615 69 608 75 q 627 53 622 64 q 628 31 632 43 q 603 8 625 24 q 553 -24 582 -8 q 499 -47 525 -39 q 430 -66 471 -60 q 351 -72 389 -72 q 290 -64 313 -71 z "},"M":{"ha":1004,"x_min":49,"x_max":1129,"o":"m 925 -67 q 906 -71 922 -74 q 876 -51 889 -68 q 866 -3 867 -26 q 867 64 865 19 q 891 191 875 113 q 928 367 907 269 q 975 571 950 465 q 999 667 990 625 q 1013 734 1008 708 q 1018 760 1018 760 q 1013 755 1018 761 q 1001 742 1007 749 q 997 729 996 735 q 989 717 997 729 q 965 681 981 704 q 936 631 953 667 q 896 560 919 596 q 848 468 874 518 q 803 386 822 418 q 781 350 792 369 q 767 324 769 331 q 748 286 761 308 q 718 243 735 264 q 699 217 710 231 q 683 192 689 203 q 676 182 676 182 q 661 156 675 176 q 628 113 647 136 q 590 71 608 89 q 512 14 542 24 q 444 38 482 4 q 417 87 426 60 q 408 156 407 114 q 419 264 410 197 q 439 361 429 311 q 458 456 449 411 q 474 533 467 501 q 486 576 482 565 q 485 610 489 607 q 469 593 482 613 q 438 540 463 582 q 382 440 414 499 q 319 315 350 381 q 225 140 263 210 q 165 30 188 71 q 132 -31 143 -11 q 116 -59 121 -51 q 108 -69 111 -67 q 79 -56 93 -69 q 53 -25 65 -43 q 49 -3 49 -14 q 56 27 49 8 q 78 79 64 46 q 112 142 96 115 q 135 174 128 168 q 147 196 142 185 q 153 221 151 207 q 174 255 160 229 q 204 311 189 281 q 233 360 215 329 q 272 426 251 390 q 308 494 293 463 q 413 676 371 604 q 475 769 454 749 q 490 791 482 776 q 500 815 497 806 q 520 873 506 849 q 549 896 535 897 q 574 891 561 896 q 601 871 588 886 q 624 833 614 854 q 625 763 635 813 q 620 715 625 742 q 611 665 615 689 q 604 628 607 642 q 574 507 589 571 q 547 381 560 443 q 527 269 535 319 q 517 185 519 218 q 521 146 515 151 q 535 146 528 142 q 556 174 543 150 q 578 208 564 189 q 607 247 592 228 q 646 309 622 271 q 706 406 669 347 q 792 551 742 465 q 910 756 842 638 q 970 851 942 804 q 1018 917 999 899 q 1063 928 1039 936 q 1107 892 1088 919 q 1128 822 1126 864 q 1122 758 1129 803 q 1101 656 1115 713 q 1068 540 1088 599 q 1055 480 1064 517 q 1035 405 1046 443 q 1013 333 1024 367 q 997 249 1006 288 q 990 188 989 210 q 974 124 978 165 q 969 38 969 82 q 956 -39 964 -17 q 943 -60 949 -61 q 925 -67 926 -54 z "},"N":{"ha":842,"x_min":110,"x_max":1039,"o":"m 140 -97 q 116 -68 122 -82 q 113 -36 110 -54 q 124 8 117 -18 q 148 83 135 53 q 174 145 161 113 q 197 229 188 178 q 237 326 219 281 q 264 401 254 372 q 274 431 274 431 q 285 460 275 436 q 313 517 296 483 q 346 586 331 551 q 386 701 369 653 q 420 787 403 749 q 463 863 438 825 q 504 899 479 892 q 551 897 529 907 q 582 858 574 886 q 594 826 589 844 q 603 771 599 807 q 610 668 608 735 q 612 515 613 589 q 614 380 611 442 q 629 272 617 318 q 640 212 633 247 q 653 142 646 176 q 669 83 661 107 q 683 60 678 60 q 701 76 690 60 q 729 136 711 92 q 772 265 747 181 q 831 486 797 350 q 849 563 838 510 q 867 669 861 615 q 886 746 876 704 q 903 819 896 788 q 911 856 911 851 q 912 872 911 865 q 911 886 913 879 q 924 905 918 886 q 929 938 929 924 q 935 976 929 961 q 949 997 942 990 q 976 1014 957 1014 q 1014 1003 996 1014 q 1036 976 1032 993 q 1028 908 1039 961 q 997 764 1018 854 q 989 714 997 749 q 972 640 981 679 q 958 574 963 601 q 946 506 953 538 q 932 476 939 475 q 856 209 896 319 q 786 29 817 99 q 709 -65 753 -47 q 621 -26 665 -83 q 578 45 594 10 q 551 128 561 81 q 529 247 542 176 q 509 362 513 304 q 508 481 506 419 q 514 608 511 542 q 508 699 513 679 q 490 692 503 718 q 454 600 478 667 q 429 537 444 574 q 399 464 414 500 q 374 401 385 428 q 360 368 363 375 q 340 324 351 351 q 322 267 329 297 q 248 53 272 136 q 213 -61 224 -31 q 185 -111 199 -100 q 140 -97 171 -122 z "},"Ń":{"ha":786,"x_min":108,"x_max":1036,"o":"m 139 -97 q 115 -68 121 -82 q 112 -36 108 -54 q 122 8 115 -18 q 147 83 133 53 q 173 145 160 113 q 196 229 186 178 q 235 326 218 281 q 263 401 253 372 q 272 431 272 431 q 284 460 274 436 q 312 517 294 483 q 344 586 329 551 q 385 701 368 653 q 419 787 401 749 q 461 863 436 825 q 503 899 478 892 q 550 897 528 907 q 581 858 572 886 q 592 826 588 844 q 602 771 597 807 q 608 668 607 735 q 610 515 611 589 q 613 380 610 442 q 628 272 615 318 q 638 212 632 247 q 652 142 644 176 q 668 83 660 107 q 682 60 676 60 q 699 76 689 60 q 728 136 710 92 q 771 265 746 181 q 829 486 796 350 q 848 563 836 510 q 865 669 860 615 q 885 746 875 704 q 902 819 894 788 q 910 856 910 851 q 910 872 910 865 q 910 886 911 879 q 922 905 917 886 q 928 938 928 924 q 934 976 928 961 q 947 997 940 990 q 975 1014 956 1014 q 1013 1003 994 1014 q 1035 976 1031 993 q 1027 908 1038 961 q 996 764 1017 854 q 988 714 996 749 q 970 640 979 679 q 957 574 961 601 q 944 506 951 538 q 931 476 938 475 q 855 209 894 319 q 785 29 815 99 q 708 -65 751 -47 q 619 -26 664 -83 q 576 45 593 10 q 550 128 560 81 q 528 247 540 176 q 508 362 511 304 q 507 481 504 419 q 513 608 510 542 q 506 699 511 679 q 489 692 501 718 q 453 600 476 667 q 428 537 443 574 q 398 464 413 500 q 372 401 383 428 q 358 368 361 375 q 339 324 350 351 q 321 267 328 297 q 247 53 271 136 q 211 -61 222 -31 q 183 -111 197 -100 q 139 -97 169 -122 m 635 992 q 620 1019 625 1001 q 617 1053 615 1038 q 635 1081 618 1060 q 676 1126 653 1101 q 723 1172 700 1151 q 757 1196 746 1192 q 790 1190 774 1206 q 815 1149 806 1174 q 804 1119 819 1136 q 765 1082 789 1101 q 719 1044 742 1063 q 686 1010 697 1025 q 662 984 672 988 q 635 992 651 981 z "},"Ň":{"ha":786,"x_min":108,"x_max":1036,"o":"m 139 -97 q 115 -68 121 -82 q 112 -36 108 -54 q 122 8 115 -18 q 147 83 133 53 q 173 145 160 113 q 196 229 186 178 q 235 326 218 281 q 263 401 253 372 q 272 431 272 431 q 284 460 274 436 q 312 517 294 483 q 344 586 329 551 q 385 701 368 653 q 419 787 401 749 q 461 863 436 825 q 503 899 478 892 q 550 897 528 907 q 581 858 572 886 q 592 826 588 844 q 602 771 597 807 q 608 668 607 735 q 610 515 611 589 q 613 380 610 442 q 628 272 615 318 q 638 212 632 247 q 652 142 644 176 q 668 83 660 107 q 682 60 676 60 q 699 76 689 60 q 728 136 710 92 q 771 265 746 181 q 829 486 796 350 q 848 563 836 510 q 865 669 860 615 q 885 746 875 704 q 902 819 894 788 q 910 856 910 851 q 910 872 910 865 q 910 886 911 879 q 922 905 917 886 q 928 938 928 924 q 934 976 928 961 q 947 997 940 990 q 975 1014 956 1014 q 1013 1003 994 1014 q 1035 976 1031 993 q 1027 908 1038 961 q 996 764 1017 854 q 988 714 996 749 q 970 640 979 679 q 957 574 961 601 q 944 506 951 538 q 931 476 938 475 q 855 209 894 319 q 785 29 815 99 q 708 -65 751 -47 q 619 -26 664 -83 q 576 45 593 10 q 550 128 560 81 q 528 247 540 176 q 508 362 511 304 q 507 481 504 419 q 513 608 510 542 q 506 699 511 679 q 489 692 501 718 q 453 600 476 667 q 428 537 443 574 q 398 464 413 500 q 372 401 383 428 q 358 368 361 375 q 339 324 350 351 q 321 267 328 297 q 247 53 271 136 q 211 -61 222 -31 q 183 -111 197 -100 q 139 -97 169 -122 m 708 999 q 685 990 697 990 q 661 1001 672 989 q 619 1040 644 1015 q 571 1088 593 1065 q 544 1117 549 1110 q 548 1151 540 1133 q 573 1173 556 1169 q 613 1150 590 1176 q 644 1117 622 1136 q 689 1079 667 1099 q 727 1103 706 1089 q 767 1131 749 1117 q 796 1153 786 1144 q 842 1169 826 1174 q 860 1147 857 1164 q 858 1118 864 1131 q 839 1096 857 1113 q 797 1060 821 1079 q 749 1024 772 1040 q 708 999 725 1007 z "},"Ņ":{"ha":786,"x_min":108,"x_max":1036,"o":"m 139 -97 q 115 -68 121 -82 q 112 -36 108 -54 q 122 8 115 -18 q 147 83 133 53 q 173 145 160 113 q 196 229 186 178 q 235 326 218 281 q 263 401 253 372 q 272 431 272 431 q 284 460 274 436 q 312 517 294 483 q 344 586 329 551 q 385 701 368 653 q 419 787 401 749 q 461 863 436 825 q 503 899 478 892 q 550 897 528 907 q 581 858 572 886 q 592 826 588 844 q 602 771 597 807 q 608 668 607 735 q 610 515 611 589 q 613 380 610 442 q 628 272 615 318 q 638 212 632 247 q 652 142 644 176 q 668 83 660 107 q 682 60 676 60 q 699 76 689 60 q 728 136 710 92 q 771 265 746 181 q 829 486 796 350 q 848 563 836 510 q 865 669 860 615 q 885 746 875 704 q 902 819 894 788 q 910 856 910 851 q 910 872 910 865 q 910 886 911 879 q 922 905 917 886 q 928 938 928 924 q 934 976 928 961 q 947 997 940 990 q 975 1014 956 1014 q 1013 1003 994 1014 q 1035 976 1031 993 q 1027 908 1038 961 q 996 764 1017 854 q 988 714 996 749 q 970 640 979 679 q 957 574 961 601 q 944 506 951 538 q 931 476 938 475 q 855 209 894 319 q 785 29 815 99 q 708 -65 751 -47 q 619 -26 664 -83 q 576 45 593 10 q 550 128 560 81 q 528 247 540 176 q 508 362 511 304 q 507 481 504 419 q 513 608 510 542 q 506 699 511 679 q 489 692 501 718 q 453 600 476 667 q 428 537 443 574 q 398 464 413 500 q 372 401 383 428 q 358 368 361 375 q 339 324 350 351 q 321 267 328 297 q 247 53 271 136 q 211 -61 222 -31 q 183 -111 197 -100 q 139 -97 169 -122 m 283 -258 q 263 -256 269 -258 q 253 -246 257 -253 q 272 -219 253 -236 q 319 -165 297 -196 q 343 -107 340 -133 q 359 -58 342 -74 q 406 -60 376 -43 q 415 -97 413 -79 q 406 -153 417 -115 q 395 -174 404 -160 q 376 -203 386 -189 q 360 -221 365 -217 q 349 -230 357 -224 q 335 -242 342 -236 q 324 -250 328 -247 q 316 -253 319 -251 q 306 -257 313 -256 q 283 -258 299 -258 z "},"Ṅ":{"ha":786,"x_min":108,"x_max":1036,"o":"m 139 -97 q 115 -68 121 -82 q 112 -36 108 -54 q 122 8 115 -18 q 147 83 133 53 q 173 145 160 113 q 196 229 186 178 q 235 326 218 281 q 263 401 253 372 q 272 431 272 431 q 284 460 274 436 q 312 517 294 483 q 344 586 329 551 q 385 701 368 653 q 419 787 401 749 q 461 863 436 825 q 503 899 478 892 q 550 897 528 907 q 581 858 572 886 q 592 826 588 844 q 602 771 597 807 q 608 668 607 735 q 610 515 611 589 q 613 380 610 442 q 628 272 615 318 q 638 212 632 247 q 652 142 644 176 q 668 83 660 107 q 682 60 676 60 q 699 76 689 60 q 728 136 710 92 q 771 265 746 181 q 829 486 796 350 q 848 563 836 510 q 865 669 860 615 q 885 746 875 704 q 902 819 894 788 q 910 856 910 851 q 910 872 910 865 q 910 886 911 879 q 922 905 917 886 q 928 938 928 924 q 934 976 928 961 q 947 997 940 990 q 975 1014 956 1014 q 1013 1003 994 1014 q 1035 976 1031 993 q 1027 908 1038 961 q 996 764 1017 854 q 988 714 996 749 q 970 640 979 679 q 957 574 961 601 q 944 506 951 538 q 931 476 938 475 q 855 209 894 319 q 785 29 815 99 q 708 -65 751 -47 q 619 -26 664 -83 q 576 45 593 10 q 550 128 560 81 q 528 247 540 176 q 508 362 511 304 q 507 481 504 419 q 513 608 510 542 q 506 699 511 679 q 489 692 501 718 q 453 600 476 667 q 428 537 443 574 q 398 464 413 500 q 372 401 383 428 q 358 368 361 375 q 339 324 350 351 q 321 267 328 297 q 247 53 271 136 q 211 -61 222 -31 q 183 -111 197 -100 q 139 -97 169 -122 m 660 1024 q 643 1053 650 1033 q 638 1082 636 1072 q 649 1113 640 1089 q 678 1154 658 1138 q 687 1163 682 1157 q 697 1171 692 1169 q 731 1176 714 1182 q 765 1147 747 1171 q 774 1096 781 1115 q 742 1044 768 1076 q 702 1011 721 1017 q 660 1024 683 1006 z "},"Ŋ":{"ha":786,"x_min":129,"x_max":969,"o":"m 510 -217 q 455 -240 489 -235 q 388 -235 421 -244 q 333 -201 354 -226 q 333 -166 326 -181 q 353 -147 339 -151 q 383 -151 367 -142 q 431 -153 399 -156 q 481 -125 463 -151 q 509 -80 493 -111 q 543 -11 525 -49 q 576 58 561 26 q 533 118 553 78 q 501 213 513 158 q 491 274 496 243 q 483 349 486 304 q 478 465 481 393 q 472 610 472 551 q 469 674 471 668 q 456 645 468 674 q 426 572 444 617 q 389 473 408 526 q 351 368 369 419 q 317 277 332 317 q 297 219 303 238 q 251 89 267 139 q 232 24 235 39 q 226 -1 233 13 q 210 -25 219 -15 q 193 -36 201 -35 q 166 -26 181 -37 q 141 -1 151 -15 q 129 19 131 13 q 151 105 133 47 q 194 239 168 163 q 251 400 219 315 q 314 565 282 485 q 366 691 343 632 q 403 789 389 750 q 418 831 418 828 q 433 838 425 832 q 446 846 440 844 q 457 853 453 847 q 464 861 461 858 q 468 876 463 868 q 482 883 474 883 q 513 874 500 886 q 539 840 525 863 q 552 815 546 828 q 563 774 558 801 q 571 693 567 747 q 576 544 575 639 q 582 422 579 479 q 586 326 585 364 q 588 283 588 288 q 591 258 585 279 q 597 224 597 236 q 606 201 606 210 q 611 192 607 192 q 622 203 611 192 q 642 231 632 215 q 663 260 656 243 q 669 278 669 278 q 687 306 676 283 q 708 354 697 329 q 726 394 719 379 q 738 433 731 417 q 751 464 746 450 q 763 490 753 467 q 784 544 772 514 q 804 601 796 575 q 813 633 813 626 q 824 657 819 640 q 836 688 828 674 q 842 723 835 700 q 856 767 849 746 q 883 853 871 826 q 908 879 896 879 q 931 867 918 879 q 960 832 943 856 q 969 808 968 814 q 967 782 969 801 l 919 646 q 892 560 910 610 q 857 462 875 511 q 824 376 839 413 q 801 328 808 339 l 774 272 q 762 238 769 254 q 754 222 754 222 q 747 212 754 222 q 731 189 739 201 q 715 163 726 176 q 713 145 714 154 q 708 128 711 136 q 693 96 703 118 q 675 53 683 74 q 663 28 667 33 q 657 17 661 22 q 653 8 653 13 q 640 -27 653 4 q 604 -99 628 -58 q 579 -140 597 -115 q 542 -185 561 -164 q 510 -217 522 -207 z "},"Ñ":{"ha":786,"x_min":108,"x_max":1036,"o":"m 139 -97 q 115 -68 121 -82 q 112 -36 108 -54 q 122 8 115 -18 q 147 83 133 53 q 173 145 160 113 q 196 229 186 178 q 235 326 218 281 q 263 401 253 372 q 272 431 272 431 q 284 460 274 436 q 312 517 294 483 q 344 586 329 551 q 385 701 368 653 q 419 787 401 749 q 461 863 436 825 q 503 899 478 892 q 550 897 528 907 q 581 858 572 886 q 592 826 588 844 q 602 771 597 807 q 608 668 607 735 q 610 515 611 589 q 613 380 610 442 q 628 272 615 318 q 638 212 632 247 q 652 142 644 176 q 668 83 660 107 q 682 60 676 60 q 699 76 689 60 q 728 136 710 92 q 771 265 746 181 q 829 486 796 350 q 848 563 836 510 q 865 669 860 615 q 885 746 875 704 q 902 819 894 788 q 910 856 910 851 q 910 872 910 865 q 910 886 911 879 q 922 905 917 886 q 928 938 928 924 q 934 976 928 961 q 947 997 940 990 q 975 1014 956 1014 q 1013 1003 994 1014 q 1035 976 1031 993 q 1027 908 1038 961 q 996 764 1017 854 q 988 714 996 749 q 970 640 979 679 q 957 574 961 601 q 944 506 951 538 q 931 476 938 475 q 855 209 894 319 q 785 29 815 99 q 708 -65 751 -47 q 619 -26 664 -83 q 576 45 593 10 q 550 128 560 81 q 528 247 540 176 q 508 362 511 304 q 507 481 504 419 q 513 608 510 542 q 506 699 511 679 q 489 692 501 718 q 453 600 476 667 q 428 537 443 574 q 398 464 413 500 q 372 401 383 428 q 358 368 361 375 q 339 324 350 351 q 321 267 328 297 q 247 53 271 136 q 211 -61 222 -31 q 183 -111 197 -100 q 139 -97 169 -122 m 758 1011 q 715 1022 733 1011 q 669 1051 696 1032 q 637 1078 657 1058 q 600 1099 617 1099 q 577 1088 586 1099 q 560 1065 568 1076 q 536 1050 551 1053 q 528 1033 535 1043 q 517 1029 522 1022 q 494 1044 503 1033 q 485 1067 486 1054 q 511 1117 490 1086 q 575 1169 532 1147 q 628 1169 600 1178 q 679 1139 657 1161 q 728 1101 711 1111 q 772 1101 746 1090 q 816 1122 793 1107 q 868 1149 839 1138 q 887 1146 878 1153 q 901 1128 896 1139 q 904 1108 906 1117 q 893 1085 903 1100 q 871 1064 883 1071 q 806 1029 829 1040 q 774 1015 783 1018 q 758 1011 764 1011 z "},"O":{"ha":693,"x_min":153,"x_max":833,"o":"m 249 -35 q 178 29 197 4 q 156 85 158 54 q 156 153 153 110 q 165 238 160 196 q 175 300 171 279 q 181 319 182 307 q 181 331 181 331 q 190 367 179 338 q 211 444 201 397 q 265 584 239 528 q 315 681 290 640 q 365 754 340 721 q 463 844 422 813 q 546 894 503 875 q 597 921 574 911 q 636 924 621 931 q 758 859 714 907 q 819 714 801 811 q 831 603 829 653 q 824 506 833 554 q 788 401 814 458 q 717 268 763 344 q 603 94 665 167 q 476 -18 540 22 q 351 -63 411 -58 q 249 -35 292 -68 m 344 22 q 403 40 376 26 q 458 81 429 53 q 526 154 486 108 q 586 224 563 196 q 626 283 610 253 q 658 354 643 313 q 692 463 672 396 q 708 530 703 504 q 715 576 714 556 q 716 626 717 597 q 715 706 715 656 q 706 756 714 729 q 686 796 697 783 q 647 819 672 811 q 590 813 621 826 q 547 783 574 806 q 493 728 521 760 q 440 665 465 697 q 400 608 415 633 q 385 574 385 583 q 384 567 385 574 q 378 553 383 560 q 339 485 360 533 q 299 376 318 438 q 268 255 281 315 q 253 149 256 194 q 251 102 251 117 q 256 78 251 88 q 272 51 261 69 q 302 28 281 38 q 344 22 324 18 z "},"Ó":{"ha":689,"x_min":151,"x_max":847,"o":"m 247 -35 q 176 29 196 4 q 154 85 157 54 q 155 153 151 110 q 164 238 158 196 q 174 300 169 279 q 180 319 181 307 q 179 331 179 331 q 189 367 178 338 q 210 444 200 397 q 263 584 238 528 q 314 681 289 640 q 364 754 339 721 q 461 844 421 813 q 544 894 501 875 q 596 921 572 911 q 635 924 619 931 q 756 859 713 907 q 818 714 800 811 q 830 603 828 653 q 822 506 832 554 q 787 401 813 458 q 715 268 761 344 q 601 94 664 167 q 474 -18 539 22 q 350 -63 410 -58 q 247 -35 290 -68 m 343 22 q 401 40 375 26 q 456 81 428 53 q 525 154 485 108 q 585 224 561 196 q 625 283 608 253 q 656 354 642 313 q 690 463 671 396 q 707 530 701 504 q 714 576 713 556 q 715 626 715 597 q 714 706 714 656 q 704 756 713 729 q 685 796 696 783 q 645 819 671 811 q 589 813 619 826 q 546 783 572 806 q 492 728 519 760 q 439 665 464 697 q 399 608 414 633 q 383 574 383 583 q 383 567 383 574 q 376 553 382 560 q 338 485 358 533 q 298 376 317 438 q 267 255 279 315 q 251 149 254 194 q 250 102 250 117 q 255 78 250 88 q 271 51 260 69 q 301 28 279 38 q 343 22 322 18 m 663 992 q 648 1019 653 1001 q 644 1053 643 1038 q 663 1081 646 1060 q 704 1126 681 1101 q 751 1172 728 1151 q 785 1196 774 1192 q 817 1190 801 1206 q 843 1149 833 1174 q 832 1119 847 1136 q 793 1082 817 1101 q 747 1044 769 1063 q 714 1010 725 1025 q 690 984 700 988 q 663 992 679 981 z "},"Ŏ":{"ha":689,"x_min":151,"x_max":901,"o":"m 247 -35 q 176 29 196 4 q 154 85 157 54 q 155 153 151 110 q 164 238 158 196 q 174 300 169 279 q 180 319 181 307 q 179 331 179 331 q 189 367 178 338 q 210 444 200 397 q 263 584 238 528 q 314 681 289 640 q 364 754 339 721 q 461 844 421 813 q 544 894 501 875 q 596 921 572 911 q 635 924 619 931 q 756 859 713 907 q 818 714 800 811 q 830 603 828 653 q 822 506 832 554 q 787 401 813 458 q 715 268 761 344 q 601 94 664 167 q 474 -18 539 22 q 350 -63 410 -58 q 247 -35 290 -68 m 343 22 q 401 40 375 26 q 456 81 428 53 q 525 154 485 108 q 585 224 561 196 q 625 283 608 253 q 656 354 642 313 q 690 463 671 396 q 707 530 701 504 q 714 576 713 556 q 715 626 715 597 q 714 706 714 656 q 704 756 713 729 q 685 796 696 783 q 645 819 671 811 q 589 813 619 826 q 546 783 572 806 q 492 728 519 760 q 439 665 464 697 q 399 608 414 633 q 383 574 383 583 q 383 567 383 574 q 376 553 382 560 q 338 485 358 533 q 298 376 317 438 q 267 255 279 315 q 251 149 254 194 q 250 102 250 117 q 255 78 250 88 q 271 51 260 69 q 301 28 279 38 q 343 22 322 18 m 710 974 q 633 997 665 978 q 586 1049 600 1015 q 581 1128 572 1082 q 601 1171 586 1157 q 630 1185 615 1185 q 653 1172 644 1185 q 656 1136 663 1160 q 653 1099 651 1121 q 672 1061 656 1076 q 731 1047 689 1046 q 767 1063 749 1049 q 801 1099 786 1078 q 825 1133 817 1119 q 858 1172 843 1164 q 883 1171 872 1179 q 897 1147 893 1163 q 899 1119 901 1132 q 878 1076 893 1101 q 838 1026 863 1050 q 780 986 813 1001 q 710 974 747 971 z "},"Ô":{"ha":689,"x_min":151,"x_max":899,"o":"m 247 -35 q 176 29 196 4 q 154 85 157 54 q 155 153 151 110 q 164 238 158 196 q 174 300 169 279 q 180 319 181 307 q 179 331 179 331 q 189 367 178 338 q 210 444 200 397 q 263 584 238 528 q 314 681 289 640 q 364 754 339 721 q 461 844 421 813 q 544 894 501 875 q 596 921 572 911 q 635 924 619 931 q 756 859 713 907 q 818 714 800 811 q 830 603 828 653 q 822 506 832 554 q 787 401 813 458 q 715 268 761 344 q 601 94 664 167 q 474 -18 539 22 q 350 -63 410 -58 q 247 -35 290 -68 m 343 22 q 401 40 375 26 q 456 81 428 53 q 525 154 485 108 q 585 224 561 196 q 625 283 608 253 q 656 354 642 313 q 690 463 671 396 q 707 530 701 504 q 714 576 713 556 q 715 626 715 597 q 714 706 714 656 q 704 756 713 729 q 685 796 696 783 q 645 819 671 811 q 589 813 619 826 q 546 783 572 806 q 492 728 519 760 q 439 665 464 697 q 399 608 414 633 q 383 574 383 583 q 383 567 383 574 q 376 553 382 560 q 338 485 358 533 q 298 376 317 438 q 267 255 279 315 q 251 149 254 194 q 250 102 250 117 q 255 78 250 88 q 271 51 260 69 q 301 28 279 38 q 343 22 322 18 m 646 1013 q 605 994 622 989 q 583 1018 588 999 q 592 1057 578 1038 q 612 1077 596 1063 q 649 1110 628 1092 q 692 1145 671 1129 q 728 1169 714 1161 q 756 1181 742 1182 q 778 1167 769 1179 q 819 1128 794 1153 q 864 1083 843 1104 q 890 1054 885 1061 q 897 1026 899 1042 q 884 999 894 1010 q 858 992 874 989 q 824 1018 843 996 q 792 1051 814 1029 q 750 1090 771 1072 q 713 1065 733 1081 q 674 1035 692 1050 q 646 1013 656 1021 z "},"Ȍ":{"ha":689,"x_min":151,"x_max":832,"o":"m 247 -35 q 176 29 196 4 q 154 85 157 54 q 155 153 151 110 q 164 238 158 196 q 174 300 169 279 q 180 319 181 307 q 179 331 179 331 q 189 367 178 338 q 210 444 200 397 q 263 584 238 528 q 314 681 289 640 q 364 754 339 721 q 461 844 421 813 q 544 894 501 875 q 596 921 572 911 q 635 924 619 931 q 756 859 713 907 q 818 714 800 811 q 830 603 828 653 q 822 506 832 554 q 787 401 813 458 q 715 268 761 344 q 601 94 664 167 q 474 -18 539 22 q 350 -63 410 -58 q 247 -35 290 -68 m 343 22 q 401 40 375 26 q 456 81 428 53 q 525 154 485 108 q 585 224 561 196 q 625 283 608 253 q 656 354 642 313 q 690 463 671 396 q 707 530 701 504 q 714 576 713 556 q 715 626 715 597 q 714 706 714 656 q 704 756 713 729 q 685 796 696 783 q 645 819 671 811 q 589 813 619 826 q 546 783 572 806 q 492 728 519 760 q 439 665 464 697 q 399 608 414 633 q 383 574 383 583 q 383 567 383 574 q 376 553 382 560 q 338 485 358 533 q 298 376 317 438 q 267 255 279 315 q 251 149 254 194 q 250 102 250 117 q 255 78 250 88 q 271 51 260 69 q 301 28 279 38 q 343 22 322 18 m 590 992 q 569 991 576 985 q 554 1024 563 997 q 531 1062 547 1040 q 500 1106 515 1083 q 477 1147 485 1129 q 476 1175 469 1165 q 508 1203 492 1194 q 536 1204 525 1213 q 563 1174 547 1197 q 592 1122 578 1150 q 617 1071 607 1093 q 628 1044 628 1049 q 622 1028 629 1039 q 607 1008 615 1018 q 590 992 599 997 m 757 993 q 735 991 742 986 q 721 1022 729 996 q 696 1063 711 1040 q 665 1107 681 1085 q 642 1147 650 1129 q 642 1174 635 1165 q 676 1204 661 1197 q 701 1204 692 1211 q 726 1176 711 1199 q 756 1126 740 1154 q 781 1076 771 1099 q 793 1043 792 1053 q 784 1022 794 1039 q 757 993 774 1004 z "},"Ö":{"ha":689,"x_min":151,"x_max":900,"o":"m 247 -35 q 176 29 196 4 q 154 85 157 54 q 155 153 151 110 q 164 238 158 196 q 174 300 169 279 q 180 319 181 307 q 179 331 179 331 q 189 367 178 338 q 210 444 200 397 q 263 584 238 528 q 314 681 289 640 q 364 754 339 721 q 461 844 421 813 q 544 894 501 875 q 596 921 572 911 q 635 924 619 931 q 756 859 713 907 q 818 714 800 811 q 830 603 828 653 q 822 506 832 554 q 787 401 813 458 q 715 268 761 344 q 601 94 664 167 q 474 -18 539 22 q 350 -63 410 -58 q 247 -35 290 -68 m 343 22 q 401 40 375 26 q 456 81 428 53 q 525 154 485 108 q 585 224 561 196 q 625 283 608 253 q 656 354 642 313 q 690 463 671 396 q 707 530 701 504 q 714 576 713 556 q 715 626 715 597 q 714 706 714 656 q 704 756 713 729 q 685 796 696 783 q 645 819 671 811 q 589 813 619 826 q 546 783 572 806 q 492 728 519 760 q 439 665 464 697 q 399 608 414 633 q 383 574 383 583 q 383 567 383 574 q 376 553 382 560 q 338 485 358 533 q 298 376 317 438 q 267 255 279 315 q 251 149 254 194 q 250 102 250 117 q 255 78 250 88 q 271 51 260 69 q 301 28 279 38 q 343 22 322 18 m 790 1040 q 774 1067 781 1050 q 769 1089 768 1083 q 780 1117 772 1096 q 796 1144 788 1138 q 810 1160 801 1150 q 824 1171 818 1169 q 858 1176 840 1185 q 883 1146 875 1168 q 894 1102 900 1122 q 867 1057 888 1082 q 824 1023 843 1024 q 790 1040 806 1022 m 604 1035 q 584 1064 592 1046 q 578 1089 576 1082 q 591 1122 581 1100 q 611 1153 601 1144 q 622 1163 615 1156 q 633 1171 628 1169 q 660 1177 647 1181 q 682 1163 672 1174 q 696 1138 692 1153 q 702 1101 707 1118 q 678 1060 697 1083 q 638 1025 656 1031 q 604 1035 619 1019 z "},"Ọ":{"ha":689,"x_min":151,"x_max":832,"o":"m 247 -35 q 176 29 196 4 q 154 85 157 54 q 155 153 151 110 q 164 238 158 196 q 174 300 169 279 q 180 319 181 307 q 179 331 179 331 q 189 367 178 338 q 210 444 200 397 q 263 584 238 528 q 314 681 289 640 q 364 754 339 721 q 461 844 421 813 q 544 894 501 875 q 596 921 572 911 q 635 924 619 931 q 756 859 713 907 q 818 714 800 811 q 830 603 828 653 q 822 506 832 554 q 787 401 813 458 q 715 268 761 344 q 601 94 664 167 q 474 -18 539 22 q 350 -63 410 -58 q 247 -35 290 -68 m 343 22 q 401 40 375 26 q 456 81 428 53 q 525 154 485 108 q 585 224 561 196 q 625 283 608 253 q 656 354 642 313 q 690 463 671 396 q 707 530 701 504 q 714 576 713 556 q 715 626 715 597 q 714 706 714 656 q 704 756 713 729 q 685 796 696 783 q 645 819 671 811 q 589 813 619 826 q 546 783 572 806 q 492 728 519 760 q 439 665 464 697 q 399 608 414 633 q 383 574 383 583 q 383 567 383 574 q 376 553 382 560 q 338 485 358 533 q 298 376 317 438 q 267 255 279 315 q 251 149 254 194 q 250 102 250 117 q 255 78 250 88 q 271 51 260 69 q 301 28 279 38 q 343 22 322 18 m 226 -246 q 208 -220 214 -233 q 204 -200 203 -207 q 217 -167 208 -187 q 235 -140 226 -146 q 247 -130 242 -135 q 258 -124 253 -125 q 290 -119 275 -112 q 315 -147 306 -126 q 326 -185 329 -169 q 304 -224 322 -201 q 259 -259 276 -256 q 226 -246 242 -262 z "},"Ò":{"ha":689,"x_min":151,"x_max":832,"o":"m 247 -35 q 176 29 196 4 q 154 85 157 54 q 155 153 151 110 q 164 238 158 196 q 174 300 169 279 q 180 319 181 307 q 179 331 179 331 q 189 367 178 338 q 210 444 200 397 q 263 584 238 528 q 314 681 289 640 q 364 754 339 721 q 461 844 421 813 q 544 894 501 875 q 596 921 572 911 q 635 924 619 931 q 756 859 713 907 q 818 714 800 811 q 830 603 828 653 q 822 506 832 554 q 787 401 813 458 q 715 268 761 344 q 601 94 664 167 q 474 -18 539 22 q 350 -63 410 -58 q 247 -35 290 -68 m 343 22 q 401 40 375 26 q 456 81 428 53 q 525 154 485 108 q 585 224 561 196 q 625 283 608 253 q 656 354 642 313 q 690 463 671 396 q 707 530 701 504 q 714 576 713 556 q 715 626 715 597 q 714 706 714 656 q 704 756 713 729 q 685 796 696 783 q 645 819 671 811 q 589 813 619 826 q 546 783 572 806 q 492 728 519 760 q 439 665 464 697 q 399 608 414 633 q 383 574 383 583 q 383 567 383 574 q 376 553 382 560 q 338 485 358 533 q 298 376 317 438 q 267 255 279 315 q 251 149 254 194 q 250 102 250 117 q 255 78 250 88 q 271 51 260 69 q 301 28 279 38 q 343 22 322 18 m 756 985 q 738 980 743 976 q 728 995 732 983 q 717 1022 724 1007 q 684 1077 706 1046 q 651 1138 663 1108 q 651 1183 639 1167 q 688 1210 674 1204 q 715 1200 701 1215 q 738 1171 725 1194 q 765 1117 751 1147 q 787 1063 778 1088 q 796 1029 796 1038 q 784 1006 797 1024 q 756 985 771 989 z "},"Ő":{"ha":689,"x_min":151,"x_max":940,"o":"m 247 -35 q 176 29 196 4 q 154 85 157 54 q 155 153 151 110 q 164 238 158 196 q 174 300 169 279 q 180 319 181 307 q 179 331 179 331 q 189 367 178 338 q 210 444 200 397 q 263 584 238 528 q 314 681 289 640 q 364 754 339 721 q 461 844 421 813 q 544 894 501 875 q 596 921 572 911 q 635 924 619 931 q 756 859 713 907 q 818 714 800 811 q 830 603 828 653 q 822 506 832 554 q 787 401 813 458 q 715 268 761 344 q 601 94 664 167 q 474 -18 539 22 q 350 -63 410 -58 q 247 -35 290 -68 m 343 22 q 401 40 375 26 q 456 81 428 53 q 525 154 485 108 q 585 224 561 196 q 625 283 608 253 q 656 354 642 313 q 690 463 671 396 q 707 530 701 504 q 714 576 713 556 q 715 626 715 597 q 714 706 714 656 q 704 756 713 729 q 685 796 696 783 q 645 819 671 811 q 589 813 619 826 q 546 783 572 806 q 492 728 519 760 q 439 665 464 697 q 399 608 414 633 q 383 574 383 583 q 383 567 383 574 q 376 553 382 560 q 338 485 358 533 q 298 376 317 438 q 267 255 279 315 q 251 149 254 194 q 250 102 250 117 q 255 78 250 88 q 271 51 260 69 q 301 28 279 38 q 343 22 322 18 m 571 996 q 557 1024 561 1004 q 554 1056 553 1043 q 572 1080 557 1061 q 608 1122 588 1099 q 649 1163 629 1144 q 679 1185 669 1181 q 709 1181 696 1193 q 733 1142 722 1168 q 728 1119 738 1132 q 701 1090 718 1106 q 663 1056 683 1074 q 625 1021 643 1039 q 608 1001 615 1010 q 594 991 601 993 q 571 996 586 989 m 774 997 q 759 1028 764 1007 q 756 1056 754 1049 q 772 1078 757 1060 q 810 1120 788 1097 q 851 1162 832 1143 q 881 1185 871 1181 q 910 1181 896 1192 q 936 1140 925 1171 q 926 1115 940 1131 q 892 1080 913 1099 q 851 1044 871 1061 q 821 1014 831 1028 q 797 990 807 993 q 774 997 786 988 z "},"Ȏ":{"ha":689,"x_min":151,"x_max":865,"o":"m 247 -35 q 176 29 196 4 q 154 85 157 54 q 155 153 151 110 q 164 238 158 196 q 174 300 169 279 q 180 319 181 307 q 179 331 179 331 q 189 367 178 338 q 210 444 200 397 q 263 584 238 528 q 314 681 289 640 q 364 754 339 721 q 461 844 421 813 q 544 894 501 875 q 596 921 572 911 q 635 924 619 931 q 756 859 713 907 q 818 714 800 811 q 830 603 828 653 q 822 506 832 554 q 787 401 813 458 q 715 268 761 344 q 601 94 664 167 q 474 -18 539 22 q 350 -63 410 -58 q 247 -35 290 -68 m 343 22 q 401 40 375 26 q 456 81 428 53 q 525 154 485 108 q 585 224 561 196 q 625 283 608 253 q 656 354 642 313 q 690 463 671 396 q 707 530 701 504 q 714 576 713 556 q 715 626 715 597 q 714 706 714 656 q 704 756 713 729 q 685 796 696 783 q 645 819 671 811 q 589 813 619 826 q 546 783 572 806 q 492 728 519 760 q 439 665 464 697 q 399 608 414 633 q 383 574 383 583 q 383 567 383 574 q 376 553 382 560 q 338 485 358 533 q 298 376 317 438 q 267 255 279 315 q 251 149 254 194 q 250 102 250 117 q 255 78 250 88 q 271 51 260 69 q 301 28 279 38 q 343 22 322 18 m 779 1018 q 783 1057 783 1035 q 767 1095 782 1079 q 711 1110 751 1111 q 673 1096 693 1111 q 635 1059 653 1081 q 604 1015 617 1038 q 568 981 585 982 q 543 999 551 981 q 536 1038 535 1017 q 560 1080 543 1054 q 602 1131 576 1106 q 660 1171 628 1156 q 726 1183 692 1186 q 808 1157 776 1179 q 853 1101 840 1135 q 857 1028 865 1068 q 827 977 849 989 q 790 976 806 965 q 779 1018 774 988 z "},"Ō":{"ha":689,"x_min":151,"x_max":907,"o":"m 247 -35 q 176 29 196 4 q 154 85 157 54 q 155 153 151 110 q 164 238 158 196 q 174 300 169 279 q 180 319 181 307 q 179 331 179 331 q 189 367 178 338 q 210 444 200 397 q 263 584 238 528 q 314 681 289 640 q 364 754 339 721 q 461 844 421 813 q 544 894 501 875 q 596 921 572 911 q 635 924 619 931 q 756 859 713 907 q 818 714 800 811 q 830 603 828 653 q 822 506 832 554 q 787 401 813 458 q 715 268 761 344 q 601 94 664 167 q 474 -18 539 22 q 350 -63 410 -58 q 247 -35 290 -68 m 343 22 q 401 40 375 26 q 456 81 428 53 q 525 154 485 108 q 585 224 561 196 q 625 283 608 253 q 656 354 642 313 q 690 463 671 396 q 707 530 701 504 q 714 576 713 556 q 715 626 715 597 q 714 706 714 656 q 704 756 713 729 q 685 796 696 783 q 645 819 671 811 q 589 813 619 826 q 546 783 572 806 q 492 728 519 760 q 439 665 464 697 q 399 608 414 633 q 383 574 383 583 q 383 567 383 574 q 376 553 382 560 q 338 485 358 533 q 298 376 317 438 q 267 255 279 315 q 251 149 254 194 q 250 102 250 117 q 255 78 250 88 q 271 51 260 69 q 301 28 279 38 q 343 22 322 18 m 628 1057 q 605 1058 618 1057 q 579 1064 592 1060 q 551 1068 558 1064 q 536 1085 543 1072 q 537 1114 524 1106 q 597 1128 550 1122 q 690 1140 643 1135 q 786 1144 736 1144 q 847 1140 821 1144 q 889 1124 874 1136 q 902 1085 907 1104 q 868 1068 897 1067 q 840 1067 860 1068 q 797 1065 819 1065 q 757 1064 774 1064 q 726 1061 747 1063 q 679 1058 706 1060 q 628 1057 653 1057 z "},"Ǫ":{"ha":689,"x_min":142,"x_max":832,"o":"m 247 -35 q 176 29 196 4 q 154 85 157 54 q 155 153 151 110 q 164 238 158 196 q 174 300 169 279 q 180 319 181 307 q 179 331 179 331 q 189 367 178 338 q 210 444 200 397 q 263 584 238 528 q 314 681 289 640 q 364 754 339 721 q 461 844 421 813 q 544 894 501 875 q 596 921 572 911 q 635 924 619 931 q 756 859 713 907 q 818 714 800 811 q 830 603 828 653 q 822 506 832 554 q 787 401 813 458 q 715 268 761 344 q 601 94 664 167 q 474 -18 539 22 q 350 -63 410 -58 q 247 -35 290 -68 m 343 22 q 401 40 375 26 q 456 81 428 53 q 525 154 485 108 q 585 224 561 196 q 625 283 608 253 q 656 354 642 313 q 690 463 671 396 q 707 530 701 504 q 714 576 713 556 q 715 626 715 597 q 714 706 714 656 q 704 756 713 729 q 685 796 696 783 q 645 819 671 811 q 589 813 619 826 q 546 783 572 806 q 492 728 519 760 q 439 665 464 697 q 399 608 414 633 q 383 574 383 583 q 383 567 383 574 q 376 553 382 560 q 338 485 358 533 q 298 376 317 438 q 267 255 279 315 q 251 149 254 194 q 250 102 250 117 q 255 78 250 88 q 271 51 260 69 q 301 28 279 38 q 343 22 322 18 m 229 -304 q 179 -274 201 -296 q 149 -222 157 -253 q 158 -161 142 -192 q 206 -97 175 -129 q 274 -35 238 -64 q 340 14 310 -6 l 393 -28 q 320 -81 363 -46 q 253 -147 278 -117 q 226 -190 233 -171 q 228 -224 218 -208 q 253 -232 232 -232 q 307 -212 285 -226 q 364 -182 329 -199 q 392 -178 382 -172 q 403 -197 401 -183 q 399 -225 406 -211 q 376 -246 393 -239 q 353 -256 371 -247 q 312 -275 335 -265 q 267 -293 289 -285 q 229 -304 244 -301 z "},"Ø":{"ha":689,"x_min":126,"x_max":900,"o":"m 179 -112 q 139 -90 151 -111 q 136 -31 126 -69 q 181 64 146 8 q 201 92 192 79 q 213 115 210 106 q 240 157 218 124 q 293 237 261 190 q 360 334 325 283 q 425 430 394 385 q 477 505 456 475 q 501 538 499 535 q 514 544 507 536 q 524 561 521 551 q 536 584 528 572 q 551 597 544 596 q 560 612 554 604 q 568 625 567 619 q 574 635 569 631 q 581 644 579 639 q 622 692 594 658 q 682 766 650 725 q 744 847 714 807 q 795 914 775 886 q 818 949 815 942 q 847 961 825 969 q 862 964 851 964 q 878 963 872 964 q 881 956 878 963 q 892 935 883 950 q 899 907 900 921 q 890 878 897 893 q 876 847 885 860 q 845 814 867 835 q 782 749 824 793 q 743 708 761 725 q 725 685 725 690 q 716 672 722 679 q 700 650 710 665 q 675 624 692 642 q 642 585 658 606 q 613 549 625 564 q 600 531 600 533 q 595 521 597 526 q 585 513 593 515 q 577 508 581 515 q 574 500 574 500 q 562 477 574 494 q 531 436 550 460 q 488 373 515 414 q 425 279 460 332 q 354 172 390 226 q 287 69 318 118 q 235 -15 256 19 q 210 -61 214 -49 q 195 -101 200 -92 q 179 -112 190 -110 m 244 -35 q 174 29 193 4 q 151 85 154 54 q 152 153 149 110 q 161 238 156 196 q 171 300 167 279 q 177 319 178 307 q 176 331 176 331 q 186 367 175 338 q 207 444 197 397 q 260 584 235 528 q 311 681 286 640 q 361 754 336 721 q 458 844 418 813 q 542 894 499 875 q 593 921 569 911 q 632 924 617 931 q 753 859 710 907 q 815 714 797 811 q 827 603 825 653 q 819 506 829 554 q 784 401 810 458 q 713 268 758 344 q 599 94 661 167 q 472 -18 536 22 q 347 -63 407 -58 q 244 -35 288 -68 m 340 22 q 399 40 372 26 q 453 81 425 53 q 522 154 482 108 q 582 224 558 196 q 622 283 606 253 q 653 354 638 313 q 688 463 668 396 q 704 530 699 504 q 711 576 710 556 q 712 626 713 597 q 711 706 711 656 q 701 756 710 729 q 682 796 693 783 q 642 819 668 811 q 585 813 615 826 q 542 783 568 806 q 488 728 517 760 q 435 665 460 697 q 394 608 410 633 q 379 574 379 583 q 378 567 379 574 q 372 553 378 560 q 333 485 354 533 q 294 376 313 438 q 264 255 276 315 q 249 149 251 194 q 246 102 246 117 q 251 78 246 88 q 267 51 256 69 q 297 28 275 38 q 340 22 319 18 z "},"Ǿ":{"ha":689,"x_min":126,"x_max":900,"o":"m 179 -112 q 139 -90 151 -111 q 136 -31 126 -69 q 181 64 146 8 q 201 92 192 79 q 213 115 210 106 q 240 157 218 124 q 293 237 261 190 q 360 334 325 283 q 425 430 394 385 q 477 505 456 475 q 501 538 499 535 q 514 544 507 536 q 524 561 521 551 q 536 584 528 572 q 551 597 544 596 q 560 612 554 604 q 568 625 567 619 q 574 635 569 631 q 581 644 579 639 q 622 692 594 658 q 682 766 650 725 q 744 847 714 807 q 795 914 775 886 q 818 949 815 942 q 847 961 825 969 q 862 964 851 964 q 878 963 872 964 q 881 956 878 963 q 892 935 883 950 q 899 907 900 921 q 890 878 897 893 q 876 847 885 860 q 845 814 867 835 q 782 749 824 793 q 743 708 761 725 q 725 685 725 690 q 716 672 722 679 q 700 650 710 665 q 675 624 692 642 q 642 585 658 606 q 613 549 625 564 q 600 531 600 533 q 595 521 597 526 q 585 513 593 515 q 577 508 581 515 q 574 500 574 500 q 562 477 574 494 q 531 436 550 460 q 488 373 515 414 q 425 279 460 332 q 354 172 390 226 q 287 69 318 118 q 235 -15 256 19 q 210 -61 214 -49 q 195 -101 200 -92 q 179 -112 190 -110 m 244 -35 q 174 29 193 4 q 151 85 154 54 q 152 153 149 110 q 161 238 156 196 q 171 300 167 279 q 177 319 178 307 q 176 331 176 331 q 186 367 175 338 q 207 444 197 397 q 260 584 235 528 q 311 681 286 640 q 361 754 336 721 q 458 844 418 813 q 542 894 499 875 q 593 921 569 911 q 632 924 617 931 q 753 859 710 907 q 815 714 797 811 q 827 603 825 653 q 819 506 829 554 q 784 401 810 458 q 713 268 758 344 q 599 94 661 167 q 472 -18 536 22 q 347 -63 407 -58 q 244 -35 288 -68 m 340 22 q 399 40 372 26 q 453 81 425 53 q 522 154 482 108 q 582 224 558 196 q 622 283 606 253 q 653 354 638 313 q 688 463 668 396 q 704 530 699 504 q 711 576 710 556 q 712 626 713 597 q 711 706 711 656 q 701 756 710 729 q 682 796 693 783 q 642 819 668 811 q 585 813 615 826 q 542 783 568 806 q 488 728 517 760 q 435 665 460 697 q 394 608 410 633 q 379 574 379 583 q 378 567 379 574 q 372 553 378 560 q 333 485 354 533 q 294 376 313 438 q 264 255 276 315 q 249 149 251 194 q 246 102 246 117 q 251 78 246 88 q 267 51 256 69 q 297 28 275 38 q 340 22 319 18 m 661 992 q 647 1019 651 1001 q 643 1053 642 1038 q 662 1081 644 1060 q 703 1126 679 1101 q 749 1172 726 1151 q 783 1196 772 1192 q 816 1190 800 1206 q 842 1149 832 1174 q 831 1119 846 1136 q 792 1082 815 1101 q 746 1044 768 1063 q 713 1010 724 1025 q 688 984 699 988 q 661 992 678 981 z "},"Õ":{"ha":689,"x_min":151,"x_max":933,"o":"m 247 -35 q 176 29 196 4 q 154 85 157 54 q 155 153 151 110 q 164 238 158 196 q 174 300 169 279 q 180 319 181 307 q 179 331 179 331 q 189 367 178 338 q 210 444 200 397 q 263 584 238 528 q 314 681 289 640 q 364 754 339 721 q 461 844 421 813 q 544 894 501 875 q 596 921 572 911 q 635 924 619 931 q 756 859 713 907 q 818 714 800 811 q 830 603 828 653 q 822 506 832 554 q 787 401 813 458 q 715 268 761 344 q 601 94 664 167 q 474 -18 539 22 q 350 -63 410 -58 q 247 -35 290 -68 m 343 22 q 401 40 375 26 q 456 81 428 53 q 525 154 485 108 q 585 224 561 196 q 625 283 608 253 q 656 354 642 313 q 690 463 671 396 q 707 530 701 504 q 714 576 713 556 q 715 626 715 597 q 714 706 714 656 q 704 756 713 729 q 685 796 696 783 q 645 819 671 811 q 589 813 619 826 q 546 783 572 806 q 492 728 519 760 q 439 665 464 697 q 399 608 414 633 q 383 574 383 583 q 383 567 383 574 q 376 553 382 560 q 338 485 358 533 q 298 376 317 438 q 267 255 279 315 q 251 149 254 194 q 250 102 250 117 q 255 78 250 88 q 271 51 260 69 q 301 28 279 38 q 343 22 322 18 m 786 1011 q 742 1022 761 1011 q 697 1051 724 1032 q 665 1078 685 1058 q 628 1099 644 1099 q 605 1088 614 1099 q 588 1065 596 1076 q 564 1050 579 1053 q 556 1033 563 1043 q 544 1029 550 1022 q 522 1044 531 1033 q 513 1067 514 1054 q 539 1117 518 1086 q 603 1169 560 1147 q 656 1169 628 1178 q 707 1139 685 1161 q 756 1101 739 1111 q 800 1101 774 1090 q 844 1122 821 1107 q 896 1149 867 1138 q 915 1146 906 1153 q 928 1128 924 1139 q 932 1108 933 1117 q 921 1085 931 1100 q 899 1064 911 1071 q 834 1029 857 1040 q 801 1015 811 1018 q 786 1011 792 1011 z "},"Œ":{"ha":1089,"x_min":135,"x_max":1294,"o":"m 789 -68 q 712 -64 744 -67 q 655 -51 679 -61 q 607 -22 631 -40 q 588 -1 597 -15 q 572 22 578 13 q 556 13 565 19 q 539 0 546 6 q 501 -22 524 -12 q 454 -40 479 -32 q 406 -52 429 -47 q 364 -57 383 -57 q 265 -40 318 -62 q 175 18 213 -18 q 149 71 160 38 q 137 139 139 104 q 142 194 135 174 q 149 232 147 215 q 156 270 151 249 q 171 328 160 292 q 193 378 182 353 q 217 431 204 403 q 245 494 229 460 q 281 574 261 529 q 358 699 313 636 q 453 815 404 761 q 546 903 503 868 q 594 926 571 922 q 640 927 618 931 q 679 921 663 924 q 735 900 710 917 q 783 860 761 883 q 819 811 804 836 l 824 803 l 836 822 q 850 843 835 831 q 890 864 865 856 q 955 884 918 874 q 1042 900 992 894 q 1164 900 1093 906 q 1216 897 1196 901 q 1250 885 1236 892 q 1276 869 1264 878 q 1292 844 1289 860 q 1294 829 1294 829 q 1258 816 1294 818 q 1175 814 1221 814 q 1074 806 1124 814 q 1001 796 1025 797 q 967 789 982 790 q 953 788 953 788 q 936 769 949 788 q 908 726 924 751 q 881 678 893 701 q 869 647 869 656 q 855 613 869 633 q 828 572 840 593 q 813 542 817 556 q 822 522 810 528 q 883 531 844 526 q 958 538 921 535 q 1017 542 996 542 q 1055 543 1040 547 q 1076 535 1069 539 q 1099 522 1093 532 q 1101 503 1104 513 q 1089 490 1099 494 q 1048 471 1081 482 q 972 449 1015 460 q 883 428 928 438 q 808 414 839 419 q 771 410 776 408 q 756 403 763 418 q 726 329 750 388 q 692 235 704 279 q 668 126 679 192 q 672 68 661 90 q 721 29 683 46 q 791 26 749 25 q 888 42 833 28 q 935 67 913 57 q 967 83 957 78 q 988 88 974 83 q 1008 92 1003 92 q 1020 103 1014 99 q 1036 108 1026 108 q 1051 97 1040 108 q 1073 70 1063 85 q 1082 46 1083 56 q 1051 17 1082 32 q 951 -25 1021 3 q 894 -49 917 -40 q 848 -63 871 -58 q 789 -68 825 -68 m 647 822 q 581 804 618 831 q 492 708 543 778 q 467 669 482 688 q 435 632 451 651 q 403 585 419 613 q 332 457 361 522 q 284 334 303 392 q 254 235 265 276 q 242 158 242 182 q 238 121 243 135 q 263 59 246 82 q 311 36 281 36 q 340 35 321 33 q 377 40 358 38 q 404 44 396 43 q 442 55 425 49 q 489 67 460 61 q 505 74 489 67 q 532 83 521 81 q 539 121 533 100 q 550 150 544 142 q 563 185 554 164 q 581 231 571 207 q 592 273 586 257 q 604 293 599 289 l 614 331 q 626 383 621 364 q 640 410 632 401 q 649 428 644 415 q 656 443 654 440 q 658 460 656 443 q 676 504 661 476 q 686 524 681 518 q 692 536 692 531 q 700 549 694 542 q 708 565 706 557 l 733 613 q 738 641 733 624 q 742 672 743 658 q 732 744 742 710 q 701 799 722 778 q 647 822 681 821 z "},"P":{"ha":646,"x_min":110,"x_max":829,"o":"m 156 -71 q 128 -53 139 -71 q 115 -28 119 -44 q 118 26 110 -12 q 153 144 126 65 q 175 222 167 197 q 183 257 183 246 q 187 283 183 272 q 190 303 190 293 q 207 318 199 303 q 221 360 215 333 q 231 398 226 383 q 236 418 236 413 q 251 453 243 429 q 275 510 258 476 q 300 597 286 551 q 328 681 314 642 q 353 743 343 721 q 376 803 368 786 q 376 826 385 821 q 371 854 367 833 q 400 896 375 875 q 431 922 415 914 q 467 929 446 929 q 522 926 489 929 q 576 925 547 925 q 611 925 604 925 q 642 913 624 919 q 674 900 660 906 q 689 890 689 894 q 695 880 689 882 q 708 876 701 878 q 737 861 718 876 q 775 823 756 846 q 804 776 794 800 q 822 732 815 753 q 822 672 829 711 q 816 631 821 651 q 806 603 811 610 q 790 589 797 597 q 783 574 783 581 q 773 551 783 568 q 747 510 763 533 q 713 465 732 488 q 678 426 694 442 q 635 385 660 404 q 592 353 611 365 q 511 320 556 336 q 426 294 467 304 q 358 285 385 283 q 306 274 318 279 q 289 250 294 269 q 276 213 282 232 q 269 186 269 193 q 256 153 267 181 q 234 90 246 126 q 212 19 222 54 q 196 -40 201 -17 q 179 -65 190 -60 q 156 -71 168 -71 m 336 371 q 376 369 342 365 q 454 390 411 374 q 510 414 482 400 q 565 444 539 428 q 603 476 579 454 q 654 532 626 497 q 669 559 658 539 q 688 597 679 579 q 713 655 700 617 q 718 718 725 693 q 685 783 711 754 q 621 824 658 813 q 570 829 590 829 q 526 825 550 829 q 494 806 504 818 q 468 753 485 793 q 440 696 458 733 q 410 624 422 658 q 363 476 385 532 q 335 406 340 421 q 333 384 336 390 q 336 371 331 378 z "},"Þ":{"ha":656,"x_min":106,"x_max":786,"o":"m 165 -100 q 144 -92 158 -96 q 120 -80 131 -87 q 108 -60 110 -72 q 106 -50 107 -56 q 110 -28 106 -44 q 122 21 114 -12 q 133 56 124 25 q 154 128 142 86 q 179 211 167 171 q 201 278 192 251 q 211 300 210 304 q 220 329 213 307 q 233 357 228 351 q 241 390 235 369 q 256 428 247 410 q 274 454 265 447 q 281 482 274 463 q 297 523 288 501 q 315 560 307 544 q 325 575 324 575 q 327 583 325 575 q 343 610 329 592 q 345 624 343 610 q 358 646 347 638 q 365 674 364 667 q 361 685 367 682 q 383 722 349 721 q 403 746 392 722 q 408 753 406 751 q 443 846 426 800 q 470 924 460 892 q 481 963 481 956 q 494 979 481 974 q 519 985 508 985 q 530 990 524 989 q 542 992 536 992 l 564 969 q 577 947 575 960 q 579 918 579 935 q 576 889 579 901 q 562 853 572 876 q 528 782 551 831 q 560 788 547 785 q 574 790 574 790 q 624 788 593 790 q 674 781 656 785 q 751 718 724 757 q 783 647 779 679 q 778 597 786 631 q 758 526 769 564 q 731 459 746 489 q 703 419 715 429 q 697 404 710 421 q 666 370 685 388 q 638 350 647 353 q 628 333 638 350 q 600 306 618 315 q 565 283 583 296 q 535 253 546 269 q 528 260 535 264 q 513 249 521 257 q 499 239 504 242 q 378 190 436 201 q 356 183 371 185 q 328 182 342 182 l 281 189 l 254 117 q 233 39 244 74 q 213 -37 222 4 q 200 -78 208 -62 q 182 -100 192 -94 q 165 -100 172 -106 m 318 276 q 440 301 393 275 q 528 365 486 326 q 558 397 539 375 q 597 443 576 418 q 632 488 617 468 q 663 553 653 517 q 673 622 672 590 q 667 667 674 653 q 617 697 649 692 q 553 694 586 701 q 493 671 519 686 q 469 640 486 668 q 433 570 453 613 q 392 481 413 528 q 353 390 371 433 q 326 315 336 346 q 318 276 317 285 z "},"Q":{"ha":693,"x_min":151,"x_max":828,"o":"m 322 -106 q 275 -87 301 -101 q 226 -52 249 -72 q 193 -12 203 -32 q 155 138 158 58 q 175 332 151 218 q 194 396 182 356 q 219 476 206 436 q 244 544 233 517 q 258 572 256 572 q 263 596 263 576 q 274 626 263 603 q 305 678 286 649 q 344 734 324 707 q 382 776 364 761 q 445 842 410 813 q 515 889 481 871 q 542 901 524 894 q 581 914 560 908 q 617 921 601 919 q 724 902 686 925 q 789 825 763 879 q 819 765 817 794 q 828 696 822 736 q 820 608 828 658 q 800 508 813 557 q 772 426 788 458 q 743 393 757 393 q 739 392 743 393 q 735 385 735 392 q 729 341 738 375 q 700 267 721 307 q 594 56 656 142 q 462 -72 532 -31 q 322 -106 392 -114 m 608 -175 q 562 -161 586 -176 q 532 -128 538 -146 q 522 -112 522 -119 q 519 -101 522 -104 q 504 -87 514 -99 q 490 -60 494 -75 q 462 -3 481 -40 q 422 73 443 33 q 385 142 401 113 q 367 176 369 172 q 369 204 356 188 q 390 228 376 221 q 429 228 403 235 q 488 161 461 228 q 500 128 489 154 q 525 76 511 101 q 547 43 539 50 q 563 8 554 28 q 581 -24 571 -11 q 599 -57 585 -39 q 618 -94 613 -75 q 647 -160 650 -144 q 608 -175 644 -176 m 338 -12 q 451 53 396 -4 q 556 205 506 110 q 647 418 606 300 q 678 494 660 453 q 711 588 697 536 q 725 696 725 639 q 721 784 733 757 q 675 826 708 811 q 578 821 631 843 q 476 740 526 799 q 386 583 426 681 q 297 369 329 463 q 256 201 265 275 q 261 64 247 126 q 283 -1 264 21 q 338 -12 303 -22 z "},"R":{"ha":749,"x_min":107,"x_max":901,"o":"m 204 -83 q 178 -98 199 -97 q 133 -81 157 -99 q 112 -55 117 -64 q 117 -24 107 -46 q 150 51 126 -3 q 169 119 156 85 q 190 167 183 153 q 213 231 196 186 q 253 332 231 276 q 297 437 276 388 q 328 511 318 486 q 376 628 351 567 q 444 782 401 689 q 447 811 450 796 q 421 826 444 826 q 406 858 407 842 q 419 881 404 874 l 511 915 q 645 924 576 931 q 775 886 714 918 q 870 805 842 847 q 900 719 899 763 q 886 638 901 676 q 844 574 875 608 q 772 504 813 539 q 687 441 731 469 q 606 397 643 413 q 532 367 571 381 q 453 340 493 353 q 400 335 431 335 q 354 340 369 335 l 331 282 q 283 133 317 232 q 204 -83 249 35 m 756 -103 q 726 -106 744 -107 q 675 -83 707 -104 q 553 4 614 -47 q 415 143 492 56 q 368 209 386 178 q 328 293 350 240 l 308 368 l 351 393 l 404 343 q 460 250 426 294 q 525 171 494 206 q 593 101 550 142 q 685 22 636 60 q 772 -35 733 -15 q 777 -58 781 -42 q 767 -87 774 -74 q 756 -103 761 -101 m 400 424 q 473 440 432 426 q 557 472 514 454 q 641 517 597 492 q 722 574 685 543 q 781 640 758 606 q 800 711 803 675 q 787 749 800 729 q 755 786 774 769 q 718 808 736 803 q 629 826 663 822 q 578 819 596 829 q 554 782 561 810 q 543 755 554 778 q 516 697 532 732 q 485 624 500 663 q 424 501 444 542 q 399 444 404 460 q 400 424 394 429 z "},"Ŕ":{"ha":692,"x_min":107,"x_max":901,"o":"m 204 -83 q 178 -98 199 -97 q 133 -81 157 -99 q 112 -55 117 -64 q 117 -24 107 -46 q 150 51 126 -3 q 169 119 156 85 q 190 167 183 153 q 213 231 196 186 q 253 332 231 276 q 297 437 276 388 q 328 511 318 486 q 376 628 351 567 q 444 782 401 689 q 447 811 450 796 q 421 826 444 826 q 406 858 407 842 q 419 881 404 874 l 511 915 q 645 924 576 931 q 775 886 714 918 q 870 805 842 847 q 900 719 899 763 q 886 638 901 676 q 844 574 875 608 q 772 504 813 539 q 687 441 731 469 q 606 397 643 413 q 532 367 571 381 q 453 340 493 353 q 400 335 431 335 q 354 340 369 335 l 331 282 q 283 133 317 232 q 204 -83 249 35 m 756 -103 q 726 -106 744 -107 q 675 -83 707 -104 q 553 4 614 -47 q 415 143 492 56 q 368 209 386 178 q 328 293 350 240 l 308 368 l 351 393 l 404 343 q 460 250 426 294 q 525 171 494 206 q 593 101 550 142 q 685 22 636 60 q 772 -35 733 -15 q 777 -58 781 -42 q 767 -87 774 -74 q 756 -103 761 -101 m 400 424 q 473 440 432 426 q 557 472 514 454 q 641 517 597 492 q 722 574 685 543 q 781 640 758 606 q 800 711 803 675 q 787 749 800 729 q 755 786 774 769 q 718 808 736 803 q 629 826 663 822 q 578 819 596 829 q 554 782 561 810 q 543 755 554 778 q 516 697 532 732 q 485 624 500 663 q 424 501 444 542 q 399 444 404 460 q 400 424 394 429 m 633 992 q 619 1019 624 1001 q 615 1053 614 1038 q 634 1081 617 1060 q 675 1126 651 1101 q 722 1172 699 1151 q 756 1196 744 1192 q 788 1190 772 1206 q 814 1149 804 1174 q 803 1119 818 1136 q 764 1082 788 1101 q 718 1044 740 1063 q 685 1010 696 1025 q 660 984 671 988 q 633 992 650 981 z "},"Ř":{"ha":692,"x_min":107,"x_max":901,"o":"m 204 -83 q 178 -98 199 -97 q 133 -81 157 -99 q 112 -55 117 -64 q 117 -24 107 -46 q 150 51 126 -3 q 169 119 156 85 q 190 167 183 153 q 213 231 196 186 q 253 332 231 276 q 297 437 276 388 q 328 511 318 486 q 376 628 351 567 q 444 782 401 689 q 447 811 450 796 q 421 826 444 826 q 406 858 407 842 q 419 881 404 874 l 511 915 q 645 924 576 931 q 775 886 714 918 q 870 805 842 847 q 900 719 899 763 q 886 638 901 676 q 844 574 875 608 q 772 504 813 539 q 687 441 731 469 q 606 397 643 413 q 532 367 571 381 q 453 340 493 353 q 400 335 431 335 q 354 340 369 335 l 331 282 q 283 133 317 232 q 204 -83 249 35 m 756 -103 q 726 -106 744 -107 q 675 -83 707 -104 q 553 4 614 -47 q 415 143 492 56 q 368 209 386 178 q 328 293 350 240 l 308 368 l 351 393 l 404 343 q 460 250 426 294 q 525 171 494 206 q 593 101 550 142 q 685 22 636 60 q 772 -35 733 -15 q 777 -58 781 -42 q 767 -87 774 -74 q 756 -103 761 -101 m 400 424 q 473 440 432 426 q 557 472 514 454 q 641 517 597 492 q 722 574 685 543 q 781 640 758 606 q 800 711 803 675 q 787 749 800 729 q 755 786 774 769 q 718 808 736 803 q 629 826 663 822 q 578 819 596 829 q 554 782 561 810 q 543 755 554 778 q 516 697 532 732 q 485 624 500 663 q 424 501 444 542 q 399 444 404 460 q 400 424 394 429 m 707 999 q 683 990 696 990 q 660 1001 671 989 q 617 1040 643 1015 q 569 1088 592 1065 q 543 1117 547 1110 q 547 1151 539 1133 q 572 1173 554 1169 q 611 1150 589 1176 q 643 1117 621 1136 q 688 1079 665 1099 q 726 1103 704 1089 q 766 1131 747 1117 q 794 1153 785 1144 q 840 1169 825 1174 q 859 1147 856 1164 q 857 1118 863 1131 q 838 1096 856 1113 q 795 1060 819 1079 q 747 1024 771 1040 q 707 999 724 1007 z "}}}
